M48
;GenerationSoftware,Autodesk,EAGLE,9.6.1*%
;CreationDate,2025-10-03T13:17:01Z*%
FMAT,2
ICI,OFF
METRIC,TZ,000.000
T4C0.813
T3C1.000
T2C1.016
T1C1.040
%
G90
M71
T1
X43180Y52780
X43180Y50240
X43180Y7060
X43180Y47700
X43180Y45160
X43180Y42620
X43180Y40080
X43180Y37540
X43180Y35000
X43180Y32460
X43180Y29920
X43180Y27380
X43180Y24840
X43180Y22300
X43180Y19760
X43180Y17220
X43180Y14680
X43180Y12140
X43180Y9600
X68580Y52780
X68580Y50240
X68580Y47700
X68580Y45160
X68580Y42620
X68580Y40080
X68580Y37540
X68580Y35000
X68580Y32460
X68580Y29920
X68580Y27380
X68580Y24840
X68580Y22300
X68580Y19760
X68580Y17220
X68580Y14680
X68580Y12140
X68580Y9600
X68580Y7060
T2
X34290Y58420
X34290Y55880
X34290Y53340
X34290Y50800
X73660Y38100
X73660Y35560
X73660Y33020
X73660Y30480
X73660Y27940
X73660Y25400
X62230Y-3810
X69850Y-3810
X34290Y-6350
X34290Y-8890
X54610Y-7620
X41910Y-2540
X41910Y-5080
X41910Y-7620
X48260Y-2540
X48260Y-5080
X48260Y-7620
X54610Y-2540
X54610Y-5080
T3
X38060Y0
X33060Y0
X33790Y36036
X33790Y33496
X33790Y30956
X33790Y28416
X33790Y25876
X33790Y41116
X33790Y43656
X33790Y38576
T4
X69850Y66040
X72390Y58420
X72390Y66040
X50800Y66040
X58420Y66040
X63500Y66040
X60960Y66040
X67310Y66040
M30