G04 EAGLE Gerber RS-274X export*
G75*
%MOMM*%
%FSLAX34Y34*%
%LPD*%
%INTop Copper*%
%IPPOS*%
%AMOC8*
5,1,8,0,0,1.08239X$1,22.5*%
G01*
%ADD10C,0.130000*%
%ADD11C,0.152400*%
%ADD12C,0.203200*%
%ADD13R,1.560000X1.560000*%
%ADD14C,1.560000*%
%ADD15C,1.524000*%
%ADD16C,1.508000*%
%ADD17P,2.749271X8X22.500000*%
%ADD18P,1.429621X8X202.500000*%
%ADD19P,1.429621X8X22.500000*%
%ADD20P,1.429621X8X112.500000*%
%ADD21C,1.508000*%
%ADD22C,0.508000*%


D10*
X292100Y711100D02*
X292100Y819600D01*
X784100Y819600D02*
X784100Y711100D01*
X783450Y800100D02*
X292750Y800100D01*
X318100Y803292D01*
X318100Y796908D01*
X292750Y800100D01*
X318100Y801400D01*
X318100Y798800D02*
X292750Y800100D01*
X318100Y802700D01*
X318100Y797500D02*
X292750Y800100D01*
X758100Y803292D02*
X783450Y800100D01*
X758100Y803292D02*
X758100Y796908D01*
X783450Y800100D01*
X758100Y801400D01*
X758100Y798800D02*
X783450Y800100D01*
X758100Y802700D01*
X758100Y797500D02*
X783450Y800100D01*
D11*
X518564Y822863D02*
X514048Y819251D01*
X518564Y822863D02*
X518564Y806607D01*
X523079Y806607D02*
X514048Y806607D01*
X529054Y806607D02*
X529054Y807510D01*
X529957Y807510D01*
X529957Y806607D01*
X529054Y806607D01*
X539544Y813832D02*
X544963Y813832D01*
X539544Y813832D02*
X539426Y813834D01*
X539308Y813840D01*
X539190Y813849D01*
X539073Y813863D01*
X538956Y813880D01*
X538839Y813901D01*
X538724Y813926D01*
X538609Y813955D01*
X538495Y813988D01*
X538383Y814024D01*
X538272Y814064D01*
X538162Y814107D01*
X538053Y814154D01*
X537946Y814204D01*
X537841Y814259D01*
X537738Y814316D01*
X537637Y814377D01*
X537537Y814441D01*
X537440Y814508D01*
X537345Y814578D01*
X537253Y814652D01*
X537162Y814728D01*
X537075Y814808D01*
X536990Y814890D01*
X536908Y814975D01*
X536828Y815062D01*
X536752Y815153D01*
X536678Y815245D01*
X536608Y815340D01*
X536541Y815437D01*
X536477Y815537D01*
X536416Y815638D01*
X536359Y815741D01*
X536304Y815846D01*
X536254Y815953D01*
X536207Y816062D01*
X536164Y816172D01*
X536124Y816283D01*
X536088Y816395D01*
X536055Y816509D01*
X536026Y816624D01*
X536001Y816739D01*
X535980Y816856D01*
X535963Y816973D01*
X535949Y817090D01*
X535940Y817208D01*
X535934Y817326D01*
X535932Y817444D01*
X535932Y818347D01*
X535931Y818347D02*
X535933Y818480D01*
X535939Y818612D01*
X535949Y818744D01*
X535962Y818876D01*
X535980Y819008D01*
X536001Y819138D01*
X536026Y819269D01*
X536055Y819398D01*
X536088Y819526D01*
X536124Y819654D01*
X536164Y819780D01*
X536208Y819905D01*
X536256Y820029D01*
X536307Y820151D01*
X536362Y820272D01*
X536420Y820391D01*
X536482Y820509D01*
X536547Y820624D01*
X536616Y820738D01*
X536687Y820849D01*
X536763Y820958D01*
X536841Y821065D01*
X536922Y821170D01*
X537007Y821272D01*
X537094Y821372D01*
X537184Y821469D01*
X537277Y821564D01*
X537373Y821655D01*
X537471Y821744D01*
X537572Y821830D01*
X537676Y821913D01*
X537782Y821993D01*
X537890Y822069D01*
X538000Y822143D01*
X538113Y822213D01*
X538227Y822280D01*
X538344Y822343D01*
X538462Y822403D01*
X538582Y822460D01*
X538704Y822513D01*
X538827Y822562D01*
X538951Y822608D01*
X539077Y822650D01*
X539204Y822688D01*
X539332Y822723D01*
X539461Y822754D01*
X539590Y822781D01*
X539721Y822804D01*
X539852Y822824D01*
X539984Y822839D01*
X540116Y822851D01*
X540248Y822859D01*
X540381Y822863D01*
X540513Y822863D01*
X540646Y822859D01*
X540778Y822851D01*
X540910Y822839D01*
X541042Y822824D01*
X541173Y822804D01*
X541304Y822781D01*
X541433Y822754D01*
X541562Y822723D01*
X541690Y822688D01*
X541817Y822650D01*
X541943Y822608D01*
X542067Y822562D01*
X542190Y822513D01*
X542312Y822460D01*
X542432Y822403D01*
X542550Y822343D01*
X542667Y822280D01*
X542781Y822213D01*
X542894Y822143D01*
X543004Y822069D01*
X543112Y821993D01*
X543218Y821913D01*
X543322Y821830D01*
X543423Y821744D01*
X543521Y821655D01*
X543617Y821564D01*
X543710Y821469D01*
X543800Y821372D01*
X543887Y821272D01*
X543972Y821170D01*
X544053Y821065D01*
X544131Y820958D01*
X544207Y820849D01*
X544278Y820738D01*
X544347Y820624D01*
X544412Y820509D01*
X544474Y820391D01*
X544532Y820272D01*
X544587Y820151D01*
X544638Y820029D01*
X544686Y819905D01*
X544730Y819780D01*
X544770Y819654D01*
X544806Y819526D01*
X544839Y819398D01*
X544868Y819269D01*
X544893Y819138D01*
X544914Y819008D01*
X544932Y818876D01*
X544945Y818744D01*
X544955Y818612D01*
X544961Y818480D01*
X544963Y818347D01*
X544963Y813832D01*
X544961Y813657D01*
X544955Y813483D01*
X544944Y813309D01*
X544929Y813135D01*
X544910Y812961D01*
X544887Y812788D01*
X544860Y812616D01*
X544828Y812444D01*
X544793Y812273D01*
X544753Y812103D01*
X544709Y811934D01*
X544661Y811766D01*
X544609Y811599D01*
X544553Y811434D01*
X544493Y811270D01*
X544430Y811107D01*
X544362Y810947D01*
X544290Y810787D01*
X544215Y810630D01*
X544135Y810474D01*
X544052Y810321D01*
X543966Y810169D01*
X543875Y810020D01*
X543781Y809873D01*
X543684Y809728D01*
X543583Y809585D01*
X543479Y809445D01*
X543371Y809308D01*
X543260Y809173D01*
X543146Y809041D01*
X543029Y808912D01*
X542908Y808785D01*
X542785Y808662D01*
X542658Y808541D01*
X542529Y808424D01*
X542397Y808310D01*
X542262Y808199D01*
X542125Y808091D01*
X541985Y807987D01*
X541842Y807886D01*
X541697Y807789D01*
X541550Y807695D01*
X541401Y807604D01*
X541249Y807518D01*
X541096Y807435D01*
X540940Y807355D01*
X540783Y807280D01*
X540623Y807208D01*
X540463Y807140D01*
X540300Y807077D01*
X540136Y807017D01*
X539971Y806961D01*
X539804Y806909D01*
X539636Y806861D01*
X539467Y806817D01*
X539297Y806777D01*
X539126Y806742D01*
X538954Y806710D01*
X538782Y806683D01*
X538609Y806660D01*
X538435Y806641D01*
X538261Y806626D01*
X538087Y806615D01*
X537913Y806609D01*
X537738Y806607D01*
X551563Y810219D02*
X555175Y822863D01*
X551563Y810219D02*
X560594Y810219D01*
X557885Y813832D02*
X557885Y806607D01*
D10*
X784100Y711100D02*
X921200Y711100D01*
X921200Y-127000D02*
X784100Y-127000D01*
X901700Y-126350D02*
X901700Y710450D01*
X898508Y685100D01*
X904892Y685100D01*
X901700Y710450D01*
X900400Y685100D01*
X903000Y685100D02*
X901700Y710450D01*
X899100Y685100D01*
X904300Y685100D02*
X901700Y710450D01*
X898508Y-101000D02*
X901700Y-126350D01*
X898508Y-101000D02*
X904892Y-101000D01*
X901700Y-126350D01*
X900400Y-101000D01*
X903000Y-101000D02*
X901700Y-126350D01*
X899100Y-101000D01*
X904300Y-101000D02*
X901700Y-126350D01*
D11*
X895193Y267998D02*
X895193Y272514D01*
X895191Y272647D01*
X895185Y272779D01*
X895175Y272911D01*
X895162Y273043D01*
X895144Y273175D01*
X895123Y273305D01*
X895098Y273436D01*
X895069Y273565D01*
X895036Y273693D01*
X895000Y273821D01*
X894960Y273947D01*
X894916Y274072D01*
X894868Y274196D01*
X894817Y274318D01*
X894762Y274439D01*
X894704Y274558D01*
X894642Y274676D01*
X894577Y274791D01*
X894508Y274905D01*
X894437Y275016D01*
X894361Y275125D01*
X894283Y275232D01*
X894202Y275337D01*
X894117Y275439D01*
X894030Y275539D01*
X893940Y275636D01*
X893847Y275731D01*
X893751Y275822D01*
X893653Y275911D01*
X893552Y275997D01*
X893448Y276080D01*
X893342Y276160D01*
X893234Y276236D01*
X893124Y276310D01*
X893011Y276380D01*
X892897Y276447D01*
X892780Y276510D01*
X892662Y276570D01*
X892542Y276627D01*
X892420Y276680D01*
X892297Y276729D01*
X892173Y276775D01*
X892047Y276817D01*
X891920Y276855D01*
X891792Y276890D01*
X891663Y276921D01*
X891534Y276948D01*
X891403Y276971D01*
X891272Y276991D01*
X891140Y277006D01*
X891008Y277018D01*
X890876Y277026D01*
X890743Y277030D01*
X890611Y277030D01*
X890478Y277026D01*
X890346Y277018D01*
X890214Y277006D01*
X890082Y276991D01*
X889951Y276971D01*
X889820Y276948D01*
X889691Y276921D01*
X889562Y276890D01*
X889434Y276855D01*
X889307Y276817D01*
X889181Y276775D01*
X889057Y276729D01*
X888934Y276680D01*
X888812Y276627D01*
X888692Y276570D01*
X888574Y276510D01*
X888457Y276447D01*
X888343Y276380D01*
X888230Y276310D01*
X888120Y276236D01*
X888012Y276160D01*
X887906Y276080D01*
X887802Y275997D01*
X887701Y275911D01*
X887603Y275822D01*
X887507Y275731D01*
X887414Y275636D01*
X887324Y275539D01*
X887237Y275439D01*
X887152Y275337D01*
X887071Y275232D01*
X886993Y275125D01*
X886917Y275016D01*
X886846Y274905D01*
X886777Y274791D01*
X886712Y274676D01*
X886650Y274558D01*
X886592Y274439D01*
X886537Y274318D01*
X886486Y274196D01*
X886438Y274072D01*
X886394Y273947D01*
X886354Y273821D01*
X886318Y273693D01*
X886285Y273565D01*
X886256Y273436D01*
X886231Y273305D01*
X886210Y273175D01*
X886192Y273043D01*
X886179Y272911D01*
X886169Y272779D01*
X886163Y272647D01*
X886161Y272514D01*
X878937Y273417D02*
X878937Y267998D01*
X878937Y273417D02*
X878939Y273536D01*
X878945Y273656D01*
X878955Y273775D01*
X878969Y273893D01*
X878986Y274012D01*
X879008Y274129D01*
X879033Y274246D01*
X879063Y274361D01*
X879096Y274476D01*
X879133Y274590D01*
X879173Y274702D01*
X879218Y274813D01*
X879266Y274922D01*
X879317Y275030D01*
X879372Y275136D01*
X879431Y275240D01*
X879493Y275342D01*
X879558Y275442D01*
X879627Y275540D01*
X879699Y275636D01*
X879774Y275729D01*
X879851Y275819D01*
X879932Y275907D01*
X880016Y275992D01*
X880103Y276074D01*
X880192Y276154D01*
X880284Y276230D01*
X880378Y276304D01*
X880475Y276374D01*
X880573Y276441D01*
X880674Y276505D01*
X880778Y276565D01*
X880883Y276622D01*
X880990Y276675D01*
X881098Y276725D01*
X881208Y276771D01*
X881320Y276813D01*
X881433Y276852D01*
X881547Y276887D01*
X881662Y276918D01*
X881779Y276946D01*
X881896Y276969D01*
X882013Y276989D01*
X882132Y277005D01*
X882251Y277017D01*
X882370Y277025D01*
X882489Y277029D01*
X882609Y277029D01*
X882728Y277025D01*
X882847Y277017D01*
X882966Y277005D01*
X883085Y276989D01*
X883202Y276969D01*
X883319Y276946D01*
X883436Y276918D01*
X883551Y276887D01*
X883665Y276852D01*
X883778Y276813D01*
X883890Y276771D01*
X884000Y276725D01*
X884108Y276675D01*
X884215Y276622D01*
X884320Y276565D01*
X884424Y276505D01*
X884525Y276441D01*
X884623Y276374D01*
X884720Y276304D01*
X884814Y276230D01*
X884906Y276154D01*
X884995Y276074D01*
X885082Y275992D01*
X885166Y275907D01*
X885247Y275819D01*
X885324Y275729D01*
X885399Y275636D01*
X885471Y275540D01*
X885540Y275442D01*
X885605Y275342D01*
X885667Y275240D01*
X885726Y275136D01*
X885781Y275030D01*
X885832Y274922D01*
X885880Y274813D01*
X885925Y274702D01*
X885965Y274590D01*
X886002Y274476D01*
X886035Y274361D01*
X886065Y274246D01*
X886090Y274129D01*
X886112Y274012D01*
X886129Y273893D01*
X886143Y273775D01*
X886153Y273656D01*
X886159Y273536D01*
X886161Y273417D01*
X886162Y273417D02*
X886162Y269804D01*
X894290Y283004D02*
X895193Y283004D01*
X894290Y283004D02*
X894290Y283907D01*
X895193Y283907D01*
X895193Y283004D01*
X895193Y289882D02*
X895193Y294397D01*
X895191Y294530D01*
X895185Y294662D01*
X895175Y294794D01*
X895162Y294926D01*
X895144Y295058D01*
X895123Y295188D01*
X895098Y295319D01*
X895069Y295448D01*
X895036Y295576D01*
X895000Y295704D01*
X894960Y295830D01*
X894916Y295955D01*
X894868Y296079D01*
X894817Y296201D01*
X894762Y296322D01*
X894704Y296441D01*
X894642Y296559D01*
X894577Y296674D01*
X894508Y296788D01*
X894437Y296899D01*
X894361Y297008D01*
X894283Y297115D01*
X894202Y297220D01*
X894117Y297322D01*
X894030Y297422D01*
X893940Y297519D01*
X893847Y297614D01*
X893751Y297705D01*
X893653Y297794D01*
X893552Y297880D01*
X893448Y297963D01*
X893342Y298043D01*
X893234Y298119D01*
X893124Y298193D01*
X893011Y298263D01*
X892897Y298330D01*
X892780Y298393D01*
X892662Y298453D01*
X892542Y298510D01*
X892420Y298563D01*
X892297Y298612D01*
X892173Y298658D01*
X892047Y298700D01*
X891920Y298738D01*
X891792Y298773D01*
X891663Y298804D01*
X891534Y298831D01*
X891403Y298854D01*
X891272Y298874D01*
X891140Y298889D01*
X891008Y298901D01*
X890876Y298909D01*
X890743Y298913D01*
X890611Y298913D01*
X890478Y298909D01*
X890346Y298901D01*
X890214Y298889D01*
X890082Y298874D01*
X889951Y298854D01*
X889820Y298831D01*
X889691Y298804D01*
X889562Y298773D01*
X889434Y298738D01*
X889307Y298700D01*
X889181Y298658D01*
X889057Y298612D01*
X888934Y298563D01*
X888812Y298510D01*
X888692Y298453D01*
X888574Y298393D01*
X888457Y298330D01*
X888343Y298263D01*
X888230Y298193D01*
X888120Y298119D01*
X888012Y298043D01*
X887906Y297963D01*
X887802Y297880D01*
X887701Y297794D01*
X887603Y297705D01*
X887507Y297614D01*
X887414Y297519D01*
X887324Y297422D01*
X887237Y297322D01*
X887152Y297220D01*
X887071Y297115D01*
X886993Y297008D01*
X886917Y296899D01*
X886846Y296788D01*
X886777Y296674D01*
X886712Y296559D01*
X886650Y296441D01*
X886592Y296322D01*
X886537Y296201D01*
X886486Y296079D01*
X886438Y295955D01*
X886394Y295830D01*
X886354Y295704D01*
X886318Y295576D01*
X886285Y295448D01*
X886256Y295319D01*
X886231Y295188D01*
X886210Y295058D01*
X886192Y294926D01*
X886179Y294794D01*
X886169Y294662D01*
X886163Y294530D01*
X886161Y294397D01*
X878937Y295300D02*
X878937Y289882D01*
X878937Y295300D02*
X878939Y295419D01*
X878945Y295539D01*
X878955Y295658D01*
X878969Y295776D01*
X878986Y295895D01*
X879008Y296012D01*
X879033Y296129D01*
X879063Y296244D01*
X879096Y296359D01*
X879133Y296473D01*
X879173Y296585D01*
X879218Y296696D01*
X879266Y296805D01*
X879317Y296913D01*
X879372Y297019D01*
X879431Y297123D01*
X879493Y297225D01*
X879558Y297325D01*
X879627Y297423D01*
X879699Y297519D01*
X879774Y297612D01*
X879851Y297702D01*
X879932Y297790D01*
X880016Y297875D01*
X880103Y297957D01*
X880192Y298037D01*
X880284Y298113D01*
X880378Y298187D01*
X880475Y298257D01*
X880573Y298324D01*
X880674Y298388D01*
X880778Y298448D01*
X880883Y298505D01*
X880990Y298558D01*
X881098Y298608D01*
X881208Y298654D01*
X881320Y298696D01*
X881433Y298735D01*
X881547Y298770D01*
X881662Y298801D01*
X881779Y298829D01*
X881896Y298852D01*
X882013Y298872D01*
X882132Y298888D01*
X882251Y298900D01*
X882370Y298908D01*
X882489Y298912D01*
X882609Y298912D01*
X882728Y298908D01*
X882847Y298900D01*
X882966Y298888D01*
X883085Y298872D01*
X883202Y298852D01*
X883319Y298829D01*
X883436Y298801D01*
X883551Y298770D01*
X883665Y298735D01*
X883778Y298696D01*
X883890Y298654D01*
X884000Y298608D01*
X884108Y298558D01*
X884215Y298505D01*
X884320Y298448D01*
X884424Y298388D01*
X884525Y298324D01*
X884623Y298257D01*
X884720Y298187D01*
X884814Y298113D01*
X884906Y298037D01*
X884995Y297957D01*
X885082Y297875D01*
X885166Y297790D01*
X885247Y297702D01*
X885324Y297612D01*
X885399Y297519D01*
X885471Y297423D01*
X885540Y297325D01*
X885605Y297225D01*
X885667Y297123D01*
X885726Y297019D01*
X885781Y296913D01*
X885832Y296805D01*
X885880Y296696D01*
X885925Y296585D01*
X885965Y296473D01*
X886002Y296359D01*
X886035Y296244D01*
X886065Y296129D01*
X886090Y296012D01*
X886112Y295895D01*
X886129Y295776D01*
X886143Y295658D01*
X886153Y295539D01*
X886159Y295419D01*
X886161Y295300D01*
X886162Y295300D02*
X886162Y291688D01*
X887065Y305513D02*
X886745Y305517D01*
X886426Y305528D01*
X886106Y305547D01*
X885788Y305574D01*
X885470Y305608D01*
X885153Y305650D01*
X884837Y305700D01*
X884522Y305757D01*
X884209Y305821D01*
X883897Y305893D01*
X883587Y305972D01*
X883280Y306059D01*
X882974Y306153D01*
X882671Y306254D01*
X882370Y306363D01*
X882072Y306478D01*
X881776Y306601D01*
X881484Y306731D01*
X881195Y306868D01*
X881194Y306869D02*
X881086Y306908D01*
X880979Y306951D01*
X880874Y306997D01*
X880771Y307047D01*
X880669Y307101D01*
X880569Y307158D01*
X880471Y307219D01*
X880375Y307283D01*
X880282Y307350D01*
X880191Y307420D01*
X880102Y307494D01*
X880016Y307570D01*
X879933Y307650D01*
X879852Y307732D01*
X879774Y307817D01*
X879700Y307904D01*
X879628Y307995D01*
X879559Y308087D01*
X879494Y308182D01*
X879432Y308279D01*
X879373Y308378D01*
X879318Y308479D01*
X879267Y308582D01*
X879219Y308687D01*
X879174Y308793D01*
X879133Y308900D01*
X879096Y309009D01*
X879063Y309120D01*
X879034Y309231D01*
X879008Y309343D01*
X878986Y309456D01*
X878969Y309570D01*
X878955Y309684D01*
X878945Y309799D01*
X878939Y309914D01*
X878937Y310029D01*
X878939Y310144D01*
X878945Y310259D01*
X878955Y310374D01*
X878969Y310488D01*
X878986Y310602D01*
X879008Y310715D01*
X879034Y310827D01*
X879063Y310939D01*
X879096Y311049D01*
X879133Y311158D01*
X879174Y311266D01*
X879219Y311372D01*
X879267Y311477D01*
X879318Y311579D01*
X879374Y311681D01*
X879432Y311780D01*
X879494Y311877D01*
X879560Y311972D01*
X879628Y312064D01*
X879700Y312154D01*
X879774Y312242D01*
X879852Y312327D01*
X879933Y312409D01*
X880016Y312488D01*
X880102Y312565D01*
X880191Y312638D01*
X880282Y312709D01*
X880376Y312776D01*
X880471Y312840D01*
X880569Y312901D01*
X880669Y312958D01*
X880771Y313011D01*
X880875Y313062D01*
X880980Y313108D01*
X881087Y313151D01*
X881195Y313190D01*
X881195Y313189D02*
X881484Y313326D01*
X881776Y313456D01*
X882072Y313579D01*
X882370Y313694D01*
X882671Y313803D01*
X882974Y313904D01*
X883280Y313998D01*
X883587Y314085D01*
X883897Y314164D01*
X884209Y314236D01*
X884522Y314300D01*
X884837Y314357D01*
X885153Y314407D01*
X885470Y314449D01*
X885788Y314483D01*
X886106Y314510D01*
X886426Y314529D01*
X886745Y314540D01*
X887065Y314544D01*
X887065Y305513D02*
X887385Y305517D01*
X887704Y305528D01*
X888024Y305547D01*
X888342Y305574D01*
X888660Y305608D01*
X888977Y305650D01*
X889293Y305700D01*
X889608Y305757D01*
X889921Y305821D01*
X890233Y305893D01*
X890543Y305972D01*
X890850Y306059D01*
X891156Y306153D01*
X891459Y306254D01*
X891760Y306363D01*
X892058Y306478D01*
X892354Y306601D01*
X892646Y306731D01*
X892935Y306868D01*
X892936Y306868D02*
X893044Y306907D01*
X893151Y306950D01*
X893256Y306996D01*
X893360Y307047D01*
X893462Y307100D01*
X893562Y307157D01*
X893660Y307218D01*
X893755Y307282D01*
X893849Y307349D01*
X893940Y307420D01*
X894029Y307493D01*
X894115Y307570D01*
X894198Y307649D01*
X894279Y307731D01*
X894357Y307816D01*
X894431Y307904D01*
X894503Y307994D01*
X894572Y308087D01*
X894637Y308181D01*
X894699Y308278D01*
X894757Y308378D01*
X894813Y308479D01*
X894864Y308581D01*
X894912Y308686D01*
X894957Y308792D01*
X894998Y308900D01*
X895035Y309009D01*
X895068Y309119D01*
X895097Y309231D01*
X895123Y309343D01*
X895145Y309456D01*
X895162Y309570D01*
X895176Y309684D01*
X895186Y309799D01*
X895192Y309914D01*
X895194Y310029D01*
X892935Y313189D02*
X892646Y313326D01*
X892354Y313456D01*
X892058Y313579D01*
X891760Y313694D01*
X891459Y313803D01*
X891156Y313904D01*
X890850Y313998D01*
X890543Y314085D01*
X890233Y314164D01*
X889921Y314236D01*
X889608Y314300D01*
X889293Y314357D01*
X888977Y314407D01*
X888660Y314449D01*
X888342Y314483D01*
X888024Y314510D01*
X887704Y314529D01*
X887385Y314540D01*
X887065Y314544D01*
X892935Y313190D02*
X893043Y313151D01*
X893150Y313108D01*
X893255Y313062D01*
X893359Y313011D01*
X893461Y312958D01*
X893561Y312901D01*
X893659Y312840D01*
X893754Y312776D01*
X893848Y312709D01*
X893939Y312638D01*
X894028Y312565D01*
X894114Y312488D01*
X894197Y312409D01*
X894278Y312327D01*
X894356Y312242D01*
X894430Y312154D01*
X894502Y312064D01*
X894571Y311971D01*
X894636Y311877D01*
X894698Y311780D01*
X894756Y311680D01*
X894812Y311579D01*
X894863Y311476D01*
X894911Y311372D01*
X894956Y311266D01*
X894997Y311158D01*
X895034Y311049D01*
X895067Y310939D01*
X895096Y310827D01*
X895122Y310715D01*
X895144Y310602D01*
X895161Y310488D01*
X895175Y310374D01*
X895185Y310259D01*
X895191Y310144D01*
X895193Y310029D01*
X891581Y306416D02*
X882549Y313641D01*
D12*
X318516Y661416D02*
X318516Y684784D01*
X326305Y671802D01*
X334095Y684784D01*
X334095Y661416D01*
X342781Y667907D02*
X342781Y678293D01*
X342783Y678452D01*
X342789Y678611D01*
X342799Y678771D01*
X342812Y678929D01*
X342830Y679088D01*
X342851Y679245D01*
X342877Y679403D01*
X342906Y679559D01*
X342939Y679715D01*
X342976Y679870D01*
X343016Y680024D01*
X343061Y680177D01*
X343109Y680329D01*
X343160Y680480D01*
X343216Y680629D01*
X343275Y680777D01*
X343338Y680923D01*
X343404Y681068D01*
X343474Y681211D01*
X343547Y681353D01*
X343624Y681492D01*
X343704Y681630D01*
X343788Y681766D01*
X343875Y681899D01*
X343965Y682031D01*
X344058Y682160D01*
X344155Y682286D01*
X344254Y682411D01*
X344357Y682533D01*
X344462Y682652D01*
X344571Y682769D01*
X344682Y682883D01*
X344796Y682994D01*
X344913Y683103D01*
X345032Y683208D01*
X345154Y683311D01*
X345279Y683410D01*
X345405Y683507D01*
X345534Y683600D01*
X345666Y683690D01*
X345799Y683777D01*
X345935Y683861D01*
X346073Y683941D01*
X346212Y684018D01*
X346354Y684091D01*
X346497Y684161D01*
X346642Y684227D01*
X346788Y684290D01*
X346936Y684349D01*
X347085Y684405D01*
X347236Y684456D01*
X347388Y684504D01*
X347541Y684549D01*
X347695Y684589D01*
X347850Y684626D01*
X348006Y684659D01*
X348162Y684688D01*
X348320Y684714D01*
X348477Y684735D01*
X348636Y684753D01*
X348794Y684766D01*
X348954Y684776D01*
X349113Y684782D01*
X349272Y684784D01*
X349431Y684782D01*
X349590Y684776D01*
X349750Y684766D01*
X349908Y684753D01*
X350067Y684735D01*
X350224Y684714D01*
X350382Y684688D01*
X350538Y684659D01*
X350694Y684626D01*
X350849Y684589D01*
X351003Y684549D01*
X351156Y684504D01*
X351308Y684456D01*
X351459Y684405D01*
X351608Y684349D01*
X351756Y684290D01*
X351902Y684227D01*
X352047Y684161D01*
X352190Y684091D01*
X352332Y684018D01*
X352471Y683941D01*
X352609Y683861D01*
X352745Y683777D01*
X352878Y683690D01*
X353010Y683600D01*
X353139Y683507D01*
X353265Y683410D01*
X353390Y683311D01*
X353512Y683208D01*
X353631Y683103D01*
X353748Y682994D01*
X353862Y682883D01*
X353973Y682769D01*
X354082Y682652D01*
X354187Y682533D01*
X354290Y682411D01*
X354389Y682286D01*
X354486Y682160D01*
X354579Y682031D01*
X354669Y681899D01*
X354756Y681766D01*
X354840Y681630D01*
X354920Y681492D01*
X354997Y681353D01*
X355070Y681211D01*
X355140Y681068D01*
X355206Y680923D01*
X355269Y680777D01*
X355328Y680629D01*
X355384Y680480D01*
X355435Y680329D01*
X355483Y680177D01*
X355528Y680024D01*
X355568Y679870D01*
X355605Y679715D01*
X355638Y679559D01*
X355667Y679403D01*
X355693Y679245D01*
X355714Y679088D01*
X355732Y678929D01*
X355745Y678771D01*
X355755Y678611D01*
X355761Y678452D01*
X355763Y678293D01*
X355763Y667907D01*
X355761Y667748D01*
X355755Y667589D01*
X355745Y667429D01*
X355732Y667271D01*
X355714Y667112D01*
X355693Y666955D01*
X355667Y666797D01*
X355638Y666641D01*
X355605Y666485D01*
X355568Y666330D01*
X355528Y666176D01*
X355483Y666023D01*
X355435Y665871D01*
X355384Y665720D01*
X355328Y665571D01*
X355269Y665423D01*
X355206Y665277D01*
X355140Y665132D01*
X355070Y664989D01*
X354997Y664847D01*
X354920Y664708D01*
X354840Y664570D01*
X354756Y664434D01*
X354669Y664301D01*
X354579Y664169D01*
X354486Y664040D01*
X354389Y663914D01*
X354290Y663789D01*
X354187Y663667D01*
X354082Y663548D01*
X353973Y663431D01*
X353862Y663317D01*
X353748Y663206D01*
X353631Y663097D01*
X353512Y662992D01*
X353390Y662889D01*
X353265Y662790D01*
X353139Y662693D01*
X353010Y662600D01*
X352878Y662510D01*
X352745Y662423D01*
X352609Y662339D01*
X352471Y662259D01*
X352332Y662182D01*
X352190Y662109D01*
X352047Y662039D01*
X351902Y661973D01*
X351756Y661910D01*
X351608Y661851D01*
X351459Y661795D01*
X351308Y661744D01*
X351156Y661696D01*
X351003Y661651D01*
X350849Y661611D01*
X350694Y661574D01*
X350538Y661541D01*
X350382Y661512D01*
X350224Y661486D01*
X350067Y661465D01*
X349908Y661447D01*
X349750Y661434D01*
X349590Y661424D01*
X349431Y661418D01*
X349272Y661416D01*
X349113Y661418D01*
X348954Y661424D01*
X348794Y661434D01*
X348636Y661447D01*
X348477Y661465D01*
X348320Y661486D01*
X348162Y661512D01*
X348006Y661541D01*
X347850Y661574D01*
X347695Y661611D01*
X347541Y661651D01*
X347388Y661696D01*
X347236Y661744D01*
X347085Y661795D01*
X346936Y661851D01*
X346788Y661910D01*
X346642Y661973D01*
X346497Y662039D01*
X346354Y662109D01*
X346212Y662182D01*
X346073Y662259D01*
X345935Y662339D01*
X345799Y662423D01*
X345666Y662510D01*
X345534Y662600D01*
X345405Y662693D01*
X345279Y662790D01*
X345154Y662889D01*
X345032Y662992D01*
X344913Y663097D01*
X344796Y663206D01*
X344682Y663317D01*
X344571Y663431D01*
X344462Y663548D01*
X344357Y663667D01*
X344254Y663789D01*
X344155Y663914D01*
X344058Y664040D01*
X343965Y664169D01*
X343875Y664301D01*
X343788Y664434D01*
X343704Y664570D01*
X343624Y664708D01*
X343547Y664847D01*
X343474Y664989D01*
X343404Y665132D01*
X343338Y665277D01*
X343275Y665423D01*
X343216Y665571D01*
X343160Y665720D01*
X343109Y665871D01*
X343061Y666023D01*
X343016Y666176D01*
X342976Y666330D01*
X342939Y666485D01*
X342906Y666641D01*
X342877Y666797D01*
X342851Y666955D01*
X342830Y667112D01*
X342812Y667271D01*
X342799Y667429D01*
X342789Y667589D01*
X342783Y667748D01*
X342781Y667907D01*
X364419Y661416D02*
X364419Y684784D01*
X370910Y684784D01*
X371069Y684782D01*
X371228Y684776D01*
X371388Y684766D01*
X371546Y684753D01*
X371705Y684735D01*
X371862Y684714D01*
X372020Y684688D01*
X372176Y684659D01*
X372332Y684626D01*
X372487Y684589D01*
X372641Y684549D01*
X372794Y684504D01*
X372946Y684456D01*
X373097Y684405D01*
X373246Y684349D01*
X373394Y684290D01*
X373540Y684227D01*
X373685Y684161D01*
X373828Y684091D01*
X373970Y684018D01*
X374109Y683941D01*
X374247Y683861D01*
X374383Y683777D01*
X374516Y683690D01*
X374648Y683600D01*
X374777Y683507D01*
X374903Y683410D01*
X375028Y683311D01*
X375150Y683208D01*
X375269Y683103D01*
X375386Y682994D01*
X375500Y682883D01*
X375611Y682769D01*
X375720Y682652D01*
X375825Y682533D01*
X375928Y682411D01*
X376027Y682286D01*
X376124Y682160D01*
X376217Y682031D01*
X376307Y681899D01*
X376394Y681766D01*
X376478Y681630D01*
X376558Y681492D01*
X376635Y681353D01*
X376708Y681211D01*
X376778Y681068D01*
X376844Y680923D01*
X376907Y680777D01*
X376966Y680629D01*
X377022Y680480D01*
X377073Y680329D01*
X377121Y680177D01*
X377166Y680024D01*
X377206Y679870D01*
X377243Y679715D01*
X377276Y679559D01*
X377305Y679403D01*
X377331Y679245D01*
X377352Y679088D01*
X377370Y678929D01*
X377383Y678771D01*
X377393Y678611D01*
X377399Y678452D01*
X377401Y678293D01*
X377399Y678134D01*
X377393Y677975D01*
X377383Y677815D01*
X377370Y677657D01*
X377352Y677498D01*
X377331Y677341D01*
X377305Y677183D01*
X377276Y677027D01*
X377243Y676871D01*
X377206Y676716D01*
X377166Y676562D01*
X377121Y676409D01*
X377073Y676257D01*
X377022Y676106D01*
X376966Y675957D01*
X376907Y675809D01*
X376844Y675663D01*
X376778Y675518D01*
X376708Y675375D01*
X376635Y675233D01*
X376558Y675094D01*
X376478Y674956D01*
X376394Y674820D01*
X376307Y674687D01*
X376217Y674555D01*
X376124Y674426D01*
X376027Y674300D01*
X375928Y674175D01*
X375825Y674053D01*
X375720Y673934D01*
X375611Y673817D01*
X375500Y673703D01*
X375386Y673592D01*
X375269Y673483D01*
X375150Y673378D01*
X375028Y673275D01*
X374903Y673176D01*
X374777Y673079D01*
X374648Y672986D01*
X374516Y672896D01*
X374383Y672809D01*
X374247Y672725D01*
X374109Y672645D01*
X373970Y672568D01*
X373828Y672495D01*
X373685Y672425D01*
X373540Y672359D01*
X373394Y672296D01*
X373246Y672237D01*
X373097Y672181D01*
X372946Y672130D01*
X372794Y672082D01*
X372641Y672037D01*
X372487Y671997D01*
X372332Y671960D01*
X372176Y671927D01*
X372020Y671898D01*
X371862Y671872D01*
X371705Y671851D01*
X371546Y671833D01*
X371388Y671820D01*
X371228Y671810D01*
X371069Y671804D01*
X370910Y671802D01*
X364419Y671802D01*
X372209Y671802D02*
X377402Y661416D01*
X386078Y661416D02*
X386078Y684784D01*
X399060Y684784D02*
X386078Y670504D01*
X391271Y675696D02*
X399060Y661416D01*
X406207Y670504D02*
X421785Y670504D01*
X429776Y679591D02*
X436267Y684784D01*
X436267Y661416D01*
X429776Y661416D02*
X442758Y661416D01*
D13*
X431800Y527800D03*
D14*
X431800Y502400D03*
X431800Y70600D03*
X431800Y477000D03*
X431800Y451600D03*
X431800Y426200D03*
X431800Y400800D03*
X431800Y375400D03*
X431800Y350000D03*
X431800Y324600D03*
X431800Y299200D03*
X431800Y273800D03*
X431800Y248400D03*
X431800Y223000D03*
X431800Y197600D03*
X431800Y172200D03*
X431800Y146800D03*
X431800Y121400D03*
X431800Y96000D03*
X685800Y527800D03*
X685800Y502400D03*
X685800Y477000D03*
X685800Y451600D03*
X685800Y426200D03*
X685800Y400800D03*
X685800Y375400D03*
X685800Y350000D03*
X685800Y324600D03*
X685800Y299200D03*
X685800Y273800D03*
X685800Y248400D03*
X685800Y223000D03*
X685800Y197600D03*
X685800Y172200D03*
X685800Y146800D03*
X685800Y121400D03*
X685800Y96000D03*
X685800Y70600D03*
D15*
X350520Y584200D02*
X335280Y584200D01*
X335280Y558800D02*
X350520Y558800D01*
X350520Y533400D02*
X335280Y533400D01*
X335280Y508000D02*
X350520Y508000D01*
D16*
X345440Y385760D02*
X330360Y385760D01*
X330360Y360360D02*
X345440Y360360D01*
X345440Y334960D02*
X330360Y334960D01*
X330360Y309560D02*
X345440Y309560D01*
X345440Y284160D02*
X330360Y284160D01*
X330360Y258760D02*
X345440Y258760D01*
X345440Y411160D02*
X330360Y411160D01*
X330360Y436560D02*
X345440Y436560D01*
D15*
X728980Y381000D02*
X744220Y381000D01*
X744220Y355600D02*
X728980Y355600D01*
X728980Y330200D02*
X744220Y330200D01*
X744220Y304800D02*
X728980Y304800D01*
X728980Y279400D02*
X744220Y279400D01*
X744220Y254000D02*
X728980Y254000D01*
D17*
X622300Y-38100D03*
X698500Y-38100D03*
D18*
X635000Y660400D03*
X609600Y660400D03*
D19*
X673100Y660400D03*
X698500Y660400D03*
D20*
X723900Y584200D03*
X723900Y660400D03*
D19*
X508000Y660400D03*
X584200Y660400D03*
D21*
X380600Y0D03*
X330600Y0D03*
D15*
X335280Y-88900D02*
X350520Y-88900D01*
X350520Y-63500D02*
X335280Y-63500D01*
X411480Y-25400D02*
X426720Y-25400D01*
X426720Y-50800D02*
X411480Y-50800D01*
X411480Y-76200D02*
X426720Y-76200D01*
X474980Y-25400D02*
X490220Y-25400D01*
X490220Y-50800D02*
X474980Y-50800D01*
X474980Y-76200D02*
X490220Y-76200D01*
X538480Y-25400D02*
X553720Y-25400D01*
X553720Y-50800D02*
X538480Y-50800D01*
X538480Y-76200D02*
X553720Y-76200D01*
D22*
X381000Y-88900D02*
X342900Y-88900D01*
X381000Y-88900D02*
X381000Y-101600D01*
X482600Y-101600D01*
X482600Y-76200D01*
X482600Y-101600D02*
X546100Y-101600D01*
X546100Y-76200D01*
X584200Y-76200D01*
X622300Y-38100D01*
X388940Y284160D02*
X337900Y284160D01*
X388940Y284160D02*
X393700Y279400D01*
X381000Y533400D02*
X342900Y533400D01*
X381000Y533400D02*
X393700Y520700D01*
X393700Y279400D01*
X337900Y284160D02*
X309560Y284160D01*
X304800Y279400D01*
X304800Y0D01*
X330600Y0D01*
X304800Y-63500D02*
X330200Y-88900D01*
X342900Y-88900D01*
X304800Y-63500D02*
X304800Y0D01*
X381000Y-50800D02*
X381000Y-88900D01*
X381000Y-50800D02*
X419100Y-50800D01*
X393700Y215900D02*
X393700Y279400D01*
X393700Y215900D02*
X412000Y197600D01*
X431800Y197600D01*
X342900Y-38100D02*
X342900Y-63500D01*
X342900Y-38100D02*
X355600Y-25400D01*
X419100Y-25400D01*
X419100Y-76200D02*
X444500Y-76200D01*
X457200Y-63500D01*
X457200Y-50800D01*
X482600Y-50800D01*
X546100Y-50800D01*
X450100Y223000D02*
X431800Y223000D01*
X450100Y223000D02*
X482600Y190500D01*
X482600Y177800D01*
X533400Y127000D01*
X635000Y127000D01*
X647700Y114300D01*
X647700Y38100D01*
X698500Y-12700D01*
X698500Y-38100D01*
X564400Y70600D02*
X431800Y70600D01*
X660400Y-25400D02*
X660400Y-76200D01*
X749300Y-76200D01*
X749300Y190500D01*
X564400Y70600D02*
X660400Y-25400D01*
X771400Y212600D02*
X771400Y355600D01*
X736600Y355600D01*
X771400Y212600D02*
X749300Y190500D01*
X342900Y508000D02*
X317500Y508000D01*
X317500Y609600D01*
X393700Y609600D01*
X406400Y596900D01*
X406400Y533400D01*
X412000Y527800D01*
X431800Y527800D01*
X380600Y121000D02*
X380600Y0D01*
X380600Y121000D02*
X431800Y172200D01*
X698500Y660400D02*
X723900Y660400D01*
X609600Y660400D02*
X584200Y660400D01*
X685800Y527800D02*
X705600Y527800D01*
X723900Y546100D02*
X723900Y584200D01*
X723900Y546100D02*
X705600Y527800D01*
X558800Y660400D02*
X584200Y685800D01*
X558800Y660400D02*
X508000Y660400D01*
X738124Y671576D02*
X738124Y636524D01*
X723900Y622300D01*
X723900Y584200D01*
X723900Y685800D02*
X584200Y685800D01*
X723900Y685800D02*
X738124Y671576D01*
X451600Y273800D02*
X431800Y273800D01*
X451600Y273800D02*
X469900Y292100D01*
X469900Y381000D01*
X558800Y469900D01*
X558800Y571500D01*
X609600Y622300D01*
X635000Y622300D01*
X635000Y660400D01*
X451600Y248400D02*
X431800Y248400D01*
X495300Y292100D02*
X495300Y355600D01*
X584200Y444500D02*
X584200Y546100D01*
X622300Y584200D01*
X647700Y584200D01*
X673100Y609600D01*
X673100Y660400D01*
X495300Y292100D02*
X451600Y248400D01*
X495300Y355600D02*
X584200Y444500D01*
X685800Y350000D02*
X691400Y350000D01*
X711200Y330200D01*
X736600Y330200D01*
X708400Y302000D02*
X685800Y324600D01*
X708400Y302000D02*
X711200Y299200D01*
X731000Y279400D01*
X736600Y279400D01*
X711200Y273800D02*
X685800Y299200D01*
X711200Y273800D02*
X711200Y254000D01*
X736600Y254000D01*
X731000Y375400D02*
X685800Y375400D01*
X731000Y375400D02*
X736600Y381000D01*
M02*
