G04 EAGLE Gerber RS-274X export*
G75*
%MOMM*%
%FSLAX34Y34*%
%LPD*%
%INSilkscreen Top*%
%IPPOS*%
%AMOC8*
5,1,8,0,0,1.08239X$1,22.5*%
G01*
%ADD10C,0.127000*%
%ADD11C,0.200000*%
%ADD12C,0.101600*%
%ADD13C,0.152400*%
%ADD14C,0.406400*%
%ADD15C,0.304800*%
%ADD16C,0.254000*%
%ADD17R,0.508000X0.381000*%
%ADD18R,0.381000X0.508000*%


D10*
X419300Y57700D02*
X419300Y601700D01*
X698300Y601700D01*
X698300Y57700D01*
X419300Y57700D01*
D11*
X411800Y527800D02*
X411802Y527863D01*
X411808Y527925D01*
X411818Y527987D01*
X411831Y528049D01*
X411849Y528109D01*
X411870Y528168D01*
X411895Y528226D01*
X411924Y528282D01*
X411956Y528336D01*
X411991Y528388D01*
X412029Y528437D01*
X412071Y528485D01*
X412115Y528529D01*
X412163Y528571D01*
X412212Y528609D01*
X412264Y528644D01*
X412318Y528676D01*
X412374Y528705D01*
X412432Y528730D01*
X412491Y528751D01*
X412551Y528769D01*
X412613Y528782D01*
X412675Y528792D01*
X412737Y528798D01*
X412800Y528800D01*
X412863Y528798D01*
X412925Y528792D01*
X412987Y528782D01*
X413049Y528769D01*
X413109Y528751D01*
X413168Y528730D01*
X413226Y528705D01*
X413282Y528676D01*
X413336Y528644D01*
X413388Y528609D01*
X413437Y528571D01*
X413485Y528529D01*
X413529Y528485D01*
X413571Y528437D01*
X413609Y528388D01*
X413644Y528336D01*
X413676Y528282D01*
X413705Y528226D01*
X413730Y528168D01*
X413751Y528109D01*
X413769Y528049D01*
X413782Y527987D01*
X413792Y527925D01*
X413798Y527863D01*
X413800Y527800D01*
X413798Y527737D01*
X413792Y527675D01*
X413782Y527613D01*
X413769Y527551D01*
X413751Y527491D01*
X413730Y527432D01*
X413705Y527374D01*
X413676Y527318D01*
X413644Y527264D01*
X413609Y527212D01*
X413571Y527163D01*
X413529Y527115D01*
X413485Y527071D01*
X413437Y527029D01*
X413388Y526991D01*
X413336Y526956D01*
X413282Y526924D01*
X413226Y526895D01*
X413168Y526870D01*
X413109Y526849D01*
X413049Y526831D01*
X412987Y526818D01*
X412925Y526808D01*
X412863Y526802D01*
X412800Y526800D01*
X412737Y526802D01*
X412675Y526808D01*
X412613Y526818D01*
X412551Y526831D01*
X412491Y526849D01*
X412432Y526870D01*
X412374Y526895D01*
X412318Y526924D01*
X412264Y526956D01*
X412212Y526991D01*
X412163Y527029D01*
X412115Y527071D01*
X412071Y527115D01*
X412029Y527163D01*
X411991Y527212D01*
X411956Y527264D01*
X411924Y527318D01*
X411895Y527374D01*
X411870Y527432D01*
X411849Y527491D01*
X411831Y527551D01*
X411818Y527613D01*
X411808Y527675D01*
X411802Y527737D01*
X411800Y527800D01*
D12*
X419254Y608816D02*
X419254Y620505D01*
X423150Y614011D01*
X427047Y620505D01*
X427047Y608816D01*
X431832Y608816D02*
X435728Y620505D01*
X439624Y608816D01*
X438650Y611738D02*
X432806Y611738D01*
X444876Y608816D02*
X444876Y620505D01*
X443577Y608816D02*
X446174Y608816D01*
X446174Y620505D02*
X443577Y620505D01*
X451157Y620505D02*
X451157Y608816D01*
X457651Y608816D02*
X451157Y620505D01*
X457651Y620505D02*
X457651Y608816D01*
X463523Y615310D02*
X466770Y615310D01*
X466882Y615308D01*
X466994Y615302D01*
X467106Y615293D01*
X467217Y615279D01*
X467328Y615262D01*
X467438Y615241D01*
X467547Y615216D01*
X467655Y615187D01*
X467763Y615155D01*
X467869Y615118D01*
X467974Y615079D01*
X468077Y615035D01*
X468179Y614988D01*
X468279Y614938D01*
X468377Y614884D01*
X468474Y614827D01*
X468568Y614767D01*
X468660Y614703D01*
X468750Y614636D01*
X468838Y614566D01*
X468923Y614493D01*
X469006Y614418D01*
X469086Y614339D01*
X469163Y614258D01*
X469237Y614174D01*
X469309Y614087D01*
X469377Y613999D01*
X469442Y613908D01*
X469504Y613814D01*
X469563Y613719D01*
X469619Y613621D01*
X469671Y613522D01*
X469719Y613421D01*
X469764Y613319D01*
X469806Y613214D01*
X469844Y613109D01*
X469878Y613002D01*
X469909Y612894D01*
X469936Y612786D01*
X469959Y612676D01*
X469978Y612565D01*
X469993Y612454D01*
X470005Y612343D01*
X470013Y612231D01*
X470017Y612119D01*
X470017Y612007D01*
X470013Y611895D01*
X470005Y611783D01*
X469993Y611672D01*
X469978Y611561D01*
X469959Y611450D01*
X469936Y611340D01*
X469909Y611232D01*
X469878Y611124D01*
X469844Y611017D01*
X469806Y610912D01*
X469764Y610807D01*
X469719Y610705D01*
X469671Y610604D01*
X469619Y610505D01*
X469563Y610407D01*
X469504Y610312D01*
X469442Y610218D01*
X469377Y610127D01*
X469309Y610039D01*
X469237Y609952D01*
X469163Y609868D01*
X469086Y609787D01*
X469006Y609708D01*
X468923Y609633D01*
X468838Y609560D01*
X468750Y609490D01*
X468660Y609423D01*
X468568Y609359D01*
X468474Y609299D01*
X468377Y609242D01*
X468279Y609188D01*
X468179Y609138D01*
X468077Y609091D01*
X467974Y609047D01*
X467869Y609008D01*
X467763Y608971D01*
X467655Y608939D01*
X467547Y608910D01*
X467438Y608885D01*
X467328Y608864D01*
X467217Y608847D01*
X467106Y608833D01*
X466994Y608824D01*
X466882Y608818D01*
X466770Y608816D01*
X463523Y608816D01*
X463523Y620505D01*
X466770Y620505D01*
X466871Y620503D01*
X466971Y620497D01*
X467072Y620487D01*
X467171Y620474D01*
X467271Y620456D01*
X467369Y620435D01*
X467467Y620410D01*
X467563Y620381D01*
X467659Y620348D01*
X467753Y620312D01*
X467845Y620272D01*
X467936Y620229D01*
X468025Y620182D01*
X468112Y620131D01*
X468198Y620078D01*
X468281Y620021D01*
X468362Y619960D01*
X468440Y619897D01*
X468516Y619831D01*
X468589Y619762D01*
X468660Y619690D01*
X468727Y619615D01*
X468792Y619538D01*
X468854Y619458D01*
X468913Y619376D01*
X468968Y619292D01*
X469020Y619206D01*
X469069Y619118D01*
X469114Y619028D01*
X469156Y618936D01*
X469194Y618843D01*
X469228Y618748D01*
X469259Y618652D01*
X469286Y618555D01*
X469309Y618457D01*
X469329Y618358D01*
X469344Y618259D01*
X469356Y618159D01*
X469364Y618058D01*
X469368Y617957D01*
X469368Y617857D01*
X469364Y617756D01*
X469356Y617655D01*
X469344Y617555D01*
X469329Y617456D01*
X469309Y617357D01*
X469286Y617259D01*
X469259Y617162D01*
X469228Y617066D01*
X469194Y616971D01*
X469156Y616878D01*
X469114Y616786D01*
X469069Y616696D01*
X469020Y616608D01*
X468968Y616522D01*
X468913Y616438D01*
X468854Y616356D01*
X468792Y616276D01*
X468727Y616199D01*
X468660Y616124D01*
X468589Y616052D01*
X468516Y615983D01*
X468440Y615917D01*
X468362Y615854D01*
X468281Y615793D01*
X468198Y615736D01*
X468112Y615683D01*
X468025Y615632D01*
X467936Y615585D01*
X467845Y615542D01*
X467753Y615502D01*
X467659Y615466D01*
X467563Y615433D01*
X467467Y615404D01*
X467369Y615379D01*
X467271Y615358D01*
X467171Y615340D01*
X467072Y615327D01*
X466971Y615317D01*
X466871Y615311D01*
X466770Y615309D01*
X474407Y617258D02*
X474407Y612063D01*
X474407Y617258D02*
X474409Y617370D01*
X474415Y617482D01*
X474424Y617594D01*
X474438Y617705D01*
X474455Y617816D01*
X474476Y617926D01*
X474501Y618035D01*
X474530Y618143D01*
X474562Y618251D01*
X474599Y618357D01*
X474638Y618462D01*
X474682Y618565D01*
X474729Y618667D01*
X474779Y618767D01*
X474833Y618865D01*
X474890Y618962D01*
X474950Y619056D01*
X475014Y619148D01*
X475081Y619238D01*
X475151Y619326D01*
X475224Y619411D01*
X475299Y619494D01*
X475378Y619574D01*
X475459Y619651D01*
X475543Y619725D01*
X475630Y619797D01*
X475718Y619865D01*
X475809Y619930D01*
X475903Y619992D01*
X475998Y620051D01*
X476096Y620107D01*
X476195Y620159D01*
X476296Y620207D01*
X476398Y620252D01*
X476503Y620294D01*
X476608Y620332D01*
X476715Y620366D01*
X476823Y620397D01*
X476931Y620424D01*
X477041Y620447D01*
X477152Y620466D01*
X477263Y620481D01*
X477374Y620493D01*
X477486Y620501D01*
X477598Y620505D01*
X477710Y620505D01*
X477822Y620501D01*
X477934Y620493D01*
X478045Y620481D01*
X478156Y620466D01*
X478267Y620447D01*
X478377Y620424D01*
X478485Y620397D01*
X478593Y620366D01*
X478700Y620332D01*
X478805Y620294D01*
X478910Y620252D01*
X479012Y620207D01*
X479113Y620159D01*
X479212Y620107D01*
X479310Y620051D01*
X479405Y619992D01*
X479499Y619930D01*
X479590Y619865D01*
X479678Y619797D01*
X479765Y619725D01*
X479849Y619651D01*
X479930Y619574D01*
X480009Y619494D01*
X480084Y619411D01*
X480157Y619326D01*
X480227Y619238D01*
X480294Y619148D01*
X480358Y619056D01*
X480418Y618962D01*
X480475Y618865D01*
X480529Y618767D01*
X480579Y618667D01*
X480626Y618565D01*
X480670Y618462D01*
X480709Y618357D01*
X480746Y618251D01*
X480778Y618143D01*
X480807Y618035D01*
X480832Y617926D01*
X480853Y617816D01*
X480870Y617705D01*
X480884Y617594D01*
X480893Y617482D01*
X480899Y617370D01*
X480901Y617258D01*
X480901Y612063D01*
X480899Y611951D01*
X480893Y611839D01*
X480884Y611727D01*
X480870Y611616D01*
X480853Y611505D01*
X480832Y611395D01*
X480807Y611286D01*
X480778Y611178D01*
X480746Y611070D01*
X480709Y610964D01*
X480670Y610859D01*
X480626Y610756D01*
X480579Y610654D01*
X480529Y610554D01*
X480475Y610456D01*
X480418Y610359D01*
X480358Y610265D01*
X480294Y610173D01*
X480227Y610083D01*
X480157Y609995D01*
X480084Y609910D01*
X480009Y609827D01*
X479930Y609747D01*
X479849Y609670D01*
X479765Y609596D01*
X479678Y609524D01*
X479590Y609456D01*
X479499Y609391D01*
X479405Y609329D01*
X479310Y609270D01*
X479212Y609214D01*
X479113Y609162D01*
X479012Y609114D01*
X478910Y609069D01*
X478805Y609027D01*
X478700Y608989D01*
X478593Y608955D01*
X478485Y608924D01*
X478377Y608897D01*
X478267Y608874D01*
X478156Y608855D01*
X478045Y608840D01*
X477934Y608828D01*
X477822Y608820D01*
X477710Y608816D01*
X477598Y608816D01*
X477486Y608820D01*
X477374Y608828D01*
X477263Y608840D01*
X477152Y608855D01*
X477041Y608874D01*
X476931Y608897D01*
X476823Y608924D01*
X476715Y608955D01*
X476608Y608989D01*
X476503Y609027D01*
X476398Y609069D01*
X476296Y609114D01*
X476195Y609162D01*
X476096Y609214D01*
X475998Y609270D01*
X475903Y609329D01*
X475809Y609391D01*
X475718Y609456D01*
X475630Y609524D01*
X475543Y609596D01*
X475459Y609670D01*
X475378Y609747D01*
X475299Y609827D01*
X475224Y609910D01*
X475151Y609995D01*
X475081Y610083D01*
X475014Y610173D01*
X474950Y610265D01*
X474890Y610359D01*
X474833Y610456D01*
X474779Y610554D01*
X474729Y610654D01*
X474682Y610756D01*
X474638Y610859D01*
X474599Y610964D01*
X474562Y611070D01*
X474530Y611178D01*
X474501Y611286D01*
X474476Y611395D01*
X474455Y611505D01*
X474438Y611616D01*
X474424Y611727D01*
X474415Y611839D01*
X474409Y611951D01*
X474407Y612063D01*
X485192Y608816D02*
X489089Y620505D01*
X492985Y608816D01*
X492011Y611738D02*
X486166Y611738D01*
X497731Y608816D02*
X497731Y620505D01*
X500978Y620505D01*
X501090Y620503D01*
X501202Y620497D01*
X501314Y620488D01*
X501425Y620474D01*
X501536Y620457D01*
X501646Y620436D01*
X501755Y620411D01*
X501863Y620382D01*
X501971Y620350D01*
X502077Y620313D01*
X502182Y620274D01*
X502285Y620230D01*
X502387Y620183D01*
X502487Y620133D01*
X502585Y620079D01*
X502682Y620022D01*
X502776Y619962D01*
X502868Y619898D01*
X502958Y619831D01*
X503046Y619761D01*
X503131Y619688D01*
X503214Y619613D01*
X503294Y619534D01*
X503371Y619453D01*
X503445Y619369D01*
X503517Y619282D01*
X503585Y619194D01*
X503650Y619103D01*
X503712Y619009D01*
X503771Y618914D01*
X503827Y618816D01*
X503879Y618717D01*
X503927Y618616D01*
X503972Y618514D01*
X504014Y618409D01*
X504052Y618304D01*
X504086Y618197D01*
X504117Y618089D01*
X504144Y617981D01*
X504167Y617871D01*
X504186Y617760D01*
X504201Y617649D01*
X504213Y617538D01*
X504221Y617426D01*
X504225Y617314D01*
X504225Y617202D01*
X504221Y617090D01*
X504213Y616978D01*
X504201Y616867D01*
X504186Y616756D01*
X504167Y616645D01*
X504144Y616535D01*
X504117Y616427D01*
X504086Y616319D01*
X504052Y616212D01*
X504014Y616107D01*
X503972Y616002D01*
X503927Y615900D01*
X503879Y615799D01*
X503827Y615700D01*
X503771Y615602D01*
X503712Y615507D01*
X503650Y615413D01*
X503585Y615322D01*
X503517Y615234D01*
X503445Y615147D01*
X503371Y615063D01*
X503294Y614982D01*
X503214Y614903D01*
X503131Y614828D01*
X503046Y614755D01*
X502958Y614685D01*
X502868Y614618D01*
X502776Y614554D01*
X502682Y614494D01*
X502585Y614437D01*
X502487Y614383D01*
X502387Y614333D01*
X502285Y614286D01*
X502182Y614242D01*
X502077Y614203D01*
X501971Y614166D01*
X501863Y614134D01*
X501755Y614105D01*
X501646Y614080D01*
X501536Y614059D01*
X501425Y614042D01*
X501314Y614028D01*
X501202Y614019D01*
X501090Y614013D01*
X500978Y614011D01*
X497731Y614011D01*
X501627Y614011D02*
X504225Y608816D01*
X509473Y608816D02*
X509473Y620505D01*
X512720Y620505D01*
X512831Y620503D01*
X512942Y620497D01*
X513052Y620488D01*
X513162Y620475D01*
X513272Y620458D01*
X513381Y620437D01*
X513489Y620413D01*
X513596Y620385D01*
X513702Y620353D01*
X513807Y620318D01*
X513911Y620279D01*
X514014Y620236D01*
X514115Y620190D01*
X514214Y620141D01*
X514311Y620088D01*
X514407Y620032D01*
X514501Y619973D01*
X514592Y619911D01*
X514682Y619845D01*
X514769Y619777D01*
X514854Y619705D01*
X514936Y619631D01*
X515016Y619554D01*
X515093Y619474D01*
X515167Y619392D01*
X515239Y619307D01*
X515307Y619220D01*
X515373Y619130D01*
X515435Y619039D01*
X515494Y618945D01*
X515550Y618849D01*
X515603Y618752D01*
X515652Y618653D01*
X515698Y618552D01*
X515741Y618449D01*
X515780Y618345D01*
X515815Y618240D01*
X515847Y618134D01*
X515875Y618027D01*
X515899Y617919D01*
X515920Y617810D01*
X515937Y617700D01*
X515950Y617590D01*
X515959Y617480D01*
X515965Y617369D01*
X515967Y617258D01*
X515967Y612063D01*
X515965Y611950D01*
X515959Y611837D01*
X515949Y611724D01*
X515935Y611611D01*
X515918Y611499D01*
X515896Y611388D01*
X515871Y611277D01*
X515841Y611168D01*
X515808Y611060D01*
X515771Y610952D01*
X515731Y610847D01*
X515686Y610742D01*
X515638Y610640D01*
X515587Y610539D01*
X515532Y610440D01*
X515474Y610342D01*
X515412Y610247D01*
X515347Y610154D01*
X515279Y610064D01*
X515207Y609976D01*
X515133Y609890D01*
X515056Y609807D01*
X514976Y609727D01*
X514893Y609650D01*
X514807Y609576D01*
X514719Y609504D01*
X514629Y609436D01*
X514536Y609371D01*
X514441Y609309D01*
X514344Y609251D01*
X514244Y609196D01*
X514143Y609145D01*
X514041Y609097D01*
X513936Y609052D01*
X513831Y609012D01*
X513723Y608975D01*
X513615Y608942D01*
X513506Y608912D01*
X513395Y608887D01*
X513284Y608865D01*
X513172Y608848D01*
X513059Y608834D01*
X512947Y608824D01*
X512833Y608818D01*
X512720Y608816D01*
X509473Y608816D01*
D13*
X355600Y590550D02*
X355600Y577850D01*
X349250Y571500D01*
X336550Y571500D02*
X330200Y577850D01*
X349250Y571500D02*
X355600Y565150D01*
X355600Y552450D01*
X349250Y546100D01*
X336550Y546100D02*
X330200Y552450D01*
X330200Y565150D01*
X336550Y571500D01*
X336550Y596900D02*
X349250Y596900D01*
X355600Y590550D01*
X336550Y596900D02*
X330200Y590550D01*
X330200Y577850D01*
X349250Y546100D02*
X355600Y539750D01*
X355600Y527050D01*
X349250Y520700D01*
X336550Y520700D02*
X330200Y527050D01*
X330200Y539750D01*
X336550Y546100D01*
X355600Y514350D02*
X355600Y501650D01*
X349250Y495300D01*
X336550Y495300D01*
X330200Y501650D01*
X349250Y520700D02*
X355600Y514350D01*
X336550Y520700D02*
X330200Y514350D01*
X330200Y501650D01*
D10*
X339725Y601345D02*
X337185Y604520D01*
X348615Y604520D01*
X348615Y601345D02*
X348615Y607695D01*
X337185Y488315D02*
X346075Y485775D01*
X346075Y492125D01*
X343535Y490220D02*
X348615Y490220D01*
X365125Y492951D02*
X365125Y496126D01*
X365127Y496237D01*
X365133Y496347D01*
X365142Y496458D01*
X365156Y496568D01*
X365173Y496677D01*
X365194Y496786D01*
X365219Y496894D01*
X365248Y497001D01*
X365280Y497107D01*
X365316Y497212D01*
X365356Y497315D01*
X365399Y497417D01*
X365446Y497518D01*
X365497Y497617D01*
X365550Y497714D01*
X365607Y497808D01*
X365668Y497901D01*
X365731Y497992D01*
X365798Y498081D01*
X365868Y498167D01*
X365941Y498250D01*
X366016Y498332D01*
X366094Y498410D01*
X366176Y498485D01*
X366259Y498558D01*
X366345Y498628D01*
X366434Y498695D01*
X366525Y498758D01*
X366618Y498819D01*
X366713Y498876D01*
X366809Y498929D01*
X366908Y498980D01*
X367009Y499027D01*
X367111Y499070D01*
X367214Y499110D01*
X367319Y499146D01*
X367425Y499178D01*
X367532Y499207D01*
X367640Y499232D01*
X367749Y499253D01*
X367858Y499270D01*
X367968Y499284D01*
X368079Y499293D01*
X368189Y499299D01*
X368300Y499301D01*
X368411Y499299D01*
X368521Y499293D01*
X368632Y499284D01*
X368742Y499270D01*
X368851Y499253D01*
X368960Y499232D01*
X369068Y499207D01*
X369175Y499178D01*
X369281Y499146D01*
X369386Y499110D01*
X369489Y499070D01*
X369591Y499027D01*
X369692Y498980D01*
X369791Y498929D01*
X369888Y498876D01*
X369982Y498819D01*
X370075Y498758D01*
X370166Y498695D01*
X370255Y498628D01*
X370341Y498558D01*
X370424Y498485D01*
X370506Y498410D01*
X370584Y498332D01*
X370659Y498250D01*
X370732Y498167D01*
X370802Y498081D01*
X370869Y497992D01*
X370932Y497901D01*
X370993Y497808D01*
X371050Y497714D01*
X371103Y497617D01*
X371154Y497518D01*
X371201Y497417D01*
X371244Y497315D01*
X371284Y497212D01*
X371320Y497107D01*
X371352Y497001D01*
X371381Y496894D01*
X371406Y496786D01*
X371427Y496677D01*
X371444Y496568D01*
X371458Y496458D01*
X371467Y496347D01*
X371473Y496237D01*
X371475Y496126D01*
X371475Y492951D01*
X360045Y492951D01*
X360045Y496126D01*
X360047Y496226D01*
X360053Y496325D01*
X360063Y496425D01*
X360076Y496523D01*
X360094Y496622D01*
X360115Y496719D01*
X360140Y496815D01*
X360169Y496911D01*
X360202Y497005D01*
X360238Y497098D01*
X360278Y497189D01*
X360322Y497279D01*
X360369Y497367D01*
X360419Y497453D01*
X360473Y497537D01*
X360530Y497619D01*
X360590Y497698D01*
X360654Y497776D01*
X360720Y497850D01*
X360789Y497922D01*
X360861Y497991D01*
X360935Y498057D01*
X361013Y498121D01*
X361092Y498181D01*
X361174Y498238D01*
X361258Y498292D01*
X361344Y498342D01*
X361432Y498389D01*
X361522Y498433D01*
X361613Y498473D01*
X361706Y498509D01*
X361800Y498542D01*
X361896Y498571D01*
X361992Y498596D01*
X362089Y498617D01*
X362188Y498635D01*
X362286Y498648D01*
X362386Y498658D01*
X362485Y498664D01*
X362585Y498666D01*
X362685Y498664D01*
X362784Y498658D01*
X362884Y498648D01*
X362982Y498635D01*
X363081Y498617D01*
X363178Y498596D01*
X363274Y498571D01*
X363370Y498542D01*
X363464Y498509D01*
X363557Y498473D01*
X363648Y498433D01*
X363738Y498389D01*
X363826Y498342D01*
X363912Y498292D01*
X363996Y498238D01*
X364078Y498181D01*
X364157Y498121D01*
X364235Y498057D01*
X364309Y497991D01*
X364381Y497922D01*
X364450Y497850D01*
X364516Y497776D01*
X364580Y497698D01*
X364640Y497619D01*
X364697Y497537D01*
X364751Y497453D01*
X364801Y497367D01*
X364848Y497279D01*
X364892Y497189D01*
X364932Y497098D01*
X364968Y497005D01*
X365001Y496911D01*
X365030Y496815D01*
X365055Y496719D01*
X365076Y496622D01*
X365094Y496523D01*
X365107Y496425D01*
X365117Y496325D01*
X365123Y496226D01*
X365125Y496126D01*
X360045Y504317D02*
X371475Y504317D01*
X366395Y508127D02*
X360045Y504317D01*
X366395Y508127D02*
X360045Y511937D01*
X371475Y511937D01*
X371475Y518097D02*
X360045Y518097D01*
X360045Y521272D01*
X360047Y521383D01*
X360053Y521493D01*
X360062Y521604D01*
X360076Y521714D01*
X360093Y521823D01*
X360114Y521932D01*
X360139Y522040D01*
X360168Y522147D01*
X360200Y522253D01*
X360236Y522358D01*
X360276Y522461D01*
X360319Y522563D01*
X360366Y522664D01*
X360417Y522763D01*
X360470Y522860D01*
X360527Y522954D01*
X360588Y523047D01*
X360651Y523138D01*
X360718Y523227D01*
X360788Y523313D01*
X360861Y523396D01*
X360936Y523478D01*
X361014Y523556D01*
X361096Y523631D01*
X361179Y523704D01*
X361265Y523774D01*
X361354Y523841D01*
X361445Y523904D01*
X361538Y523965D01*
X361633Y524022D01*
X361729Y524075D01*
X361828Y524126D01*
X361929Y524173D01*
X362031Y524216D01*
X362134Y524256D01*
X362239Y524292D01*
X362345Y524324D01*
X362452Y524353D01*
X362560Y524378D01*
X362669Y524399D01*
X362778Y524416D01*
X362888Y524430D01*
X362999Y524439D01*
X363109Y524445D01*
X363220Y524447D01*
X363331Y524445D01*
X363441Y524439D01*
X363552Y524430D01*
X363662Y524416D01*
X363771Y524399D01*
X363880Y524378D01*
X363988Y524353D01*
X364095Y524324D01*
X364201Y524292D01*
X364306Y524256D01*
X364409Y524216D01*
X364511Y524173D01*
X364612Y524126D01*
X364711Y524075D01*
X364808Y524022D01*
X364902Y523965D01*
X364995Y523904D01*
X365086Y523841D01*
X365175Y523774D01*
X365261Y523704D01*
X365344Y523631D01*
X365426Y523556D01*
X365504Y523478D01*
X365579Y523396D01*
X365652Y523313D01*
X365722Y523227D01*
X365789Y523138D01*
X365852Y523047D01*
X365913Y522954D01*
X365970Y522860D01*
X366023Y522763D01*
X366074Y522664D01*
X366121Y522563D01*
X366164Y522461D01*
X366204Y522358D01*
X366240Y522253D01*
X366272Y522147D01*
X366301Y522040D01*
X366326Y521932D01*
X366347Y521823D01*
X366364Y521714D01*
X366378Y521604D01*
X366387Y521493D01*
X366393Y521383D01*
X366395Y521272D01*
X366395Y518097D01*
X362585Y528955D02*
X360045Y532130D01*
X371475Y532130D01*
X371475Y528955D02*
X371475Y535305D01*
X368300Y540385D02*
X368189Y540387D01*
X368079Y540393D01*
X367968Y540402D01*
X367858Y540416D01*
X367749Y540433D01*
X367640Y540454D01*
X367532Y540479D01*
X367425Y540508D01*
X367319Y540540D01*
X367214Y540576D01*
X367111Y540616D01*
X367009Y540659D01*
X366908Y540706D01*
X366809Y540757D01*
X366713Y540810D01*
X366618Y540867D01*
X366525Y540928D01*
X366434Y540991D01*
X366345Y541058D01*
X366259Y541128D01*
X366176Y541201D01*
X366094Y541276D01*
X366016Y541354D01*
X365941Y541436D01*
X365868Y541519D01*
X365798Y541605D01*
X365731Y541694D01*
X365668Y541785D01*
X365607Y541878D01*
X365550Y541973D01*
X365497Y542069D01*
X365446Y542168D01*
X365399Y542269D01*
X365356Y542371D01*
X365316Y542474D01*
X365280Y542579D01*
X365248Y542685D01*
X365219Y542792D01*
X365194Y542900D01*
X365173Y543009D01*
X365156Y543118D01*
X365142Y543228D01*
X365133Y543339D01*
X365127Y543449D01*
X365125Y543560D01*
X365127Y543671D01*
X365133Y543781D01*
X365142Y543892D01*
X365156Y544002D01*
X365173Y544111D01*
X365194Y544220D01*
X365219Y544328D01*
X365248Y544435D01*
X365280Y544541D01*
X365316Y544646D01*
X365356Y544749D01*
X365399Y544851D01*
X365446Y544952D01*
X365497Y545051D01*
X365550Y545148D01*
X365607Y545242D01*
X365668Y545335D01*
X365731Y545426D01*
X365798Y545515D01*
X365868Y545601D01*
X365941Y545684D01*
X366016Y545766D01*
X366094Y545844D01*
X366176Y545919D01*
X366259Y545992D01*
X366345Y546062D01*
X366434Y546129D01*
X366525Y546192D01*
X366618Y546253D01*
X366713Y546310D01*
X366809Y546363D01*
X366908Y546414D01*
X367009Y546461D01*
X367111Y546504D01*
X367214Y546544D01*
X367319Y546580D01*
X367425Y546612D01*
X367532Y546641D01*
X367640Y546666D01*
X367749Y546687D01*
X367858Y546704D01*
X367968Y546718D01*
X368079Y546727D01*
X368189Y546733D01*
X368300Y546735D01*
X368411Y546733D01*
X368521Y546727D01*
X368632Y546718D01*
X368742Y546704D01*
X368851Y546687D01*
X368960Y546666D01*
X369068Y546641D01*
X369175Y546612D01*
X369281Y546580D01*
X369386Y546544D01*
X369489Y546504D01*
X369591Y546461D01*
X369692Y546414D01*
X369791Y546363D01*
X369888Y546310D01*
X369982Y546253D01*
X370075Y546192D01*
X370166Y546129D01*
X370255Y546062D01*
X370341Y545992D01*
X370424Y545919D01*
X370506Y545844D01*
X370584Y545766D01*
X370659Y545684D01*
X370732Y545601D01*
X370802Y545515D01*
X370869Y545426D01*
X370932Y545335D01*
X370993Y545242D01*
X371050Y545147D01*
X371103Y545051D01*
X371154Y544952D01*
X371201Y544851D01*
X371244Y544749D01*
X371284Y544646D01*
X371320Y544541D01*
X371352Y544435D01*
X371381Y544328D01*
X371406Y544220D01*
X371427Y544111D01*
X371444Y544002D01*
X371458Y543892D01*
X371467Y543781D01*
X371473Y543671D01*
X371475Y543560D01*
X371473Y543449D01*
X371467Y543339D01*
X371458Y543228D01*
X371444Y543118D01*
X371427Y543009D01*
X371406Y542900D01*
X371381Y542792D01*
X371352Y542685D01*
X371320Y542579D01*
X371284Y542474D01*
X371244Y542371D01*
X371201Y542269D01*
X371154Y542168D01*
X371103Y542069D01*
X371050Y541973D01*
X370993Y541878D01*
X370932Y541785D01*
X370869Y541694D01*
X370802Y541605D01*
X370732Y541519D01*
X370659Y541436D01*
X370584Y541354D01*
X370506Y541276D01*
X370424Y541201D01*
X370341Y541128D01*
X370255Y541058D01*
X370166Y540991D01*
X370075Y540928D01*
X369982Y540867D01*
X369888Y540810D01*
X369791Y540757D01*
X369692Y540706D01*
X369591Y540659D01*
X369489Y540616D01*
X369386Y540576D01*
X369281Y540540D01*
X369175Y540508D01*
X369068Y540479D01*
X368960Y540454D01*
X368851Y540433D01*
X368742Y540416D01*
X368632Y540402D01*
X368521Y540393D01*
X368411Y540387D01*
X368300Y540385D01*
X362585Y541020D02*
X362485Y541022D01*
X362386Y541028D01*
X362286Y541038D01*
X362188Y541051D01*
X362089Y541069D01*
X361992Y541090D01*
X361896Y541115D01*
X361800Y541144D01*
X361706Y541177D01*
X361613Y541213D01*
X361522Y541253D01*
X361432Y541297D01*
X361344Y541344D01*
X361258Y541394D01*
X361174Y541448D01*
X361092Y541505D01*
X361013Y541565D01*
X360935Y541629D01*
X360861Y541695D01*
X360789Y541764D01*
X360720Y541836D01*
X360654Y541910D01*
X360590Y541988D01*
X360530Y542067D01*
X360473Y542149D01*
X360419Y542233D01*
X360369Y542319D01*
X360322Y542407D01*
X360278Y542497D01*
X360238Y542588D01*
X360202Y542681D01*
X360169Y542775D01*
X360140Y542871D01*
X360115Y542967D01*
X360094Y543064D01*
X360076Y543163D01*
X360063Y543261D01*
X360053Y543361D01*
X360047Y543460D01*
X360045Y543560D01*
X360047Y543660D01*
X360053Y543759D01*
X360063Y543859D01*
X360076Y543957D01*
X360094Y544056D01*
X360115Y544153D01*
X360140Y544249D01*
X360169Y544345D01*
X360202Y544439D01*
X360238Y544532D01*
X360278Y544623D01*
X360322Y544713D01*
X360369Y544801D01*
X360419Y544887D01*
X360473Y544971D01*
X360530Y545053D01*
X360590Y545132D01*
X360654Y545210D01*
X360720Y545284D01*
X360789Y545356D01*
X360861Y545425D01*
X360935Y545491D01*
X361013Y545555D01*
X361092Y545615D01*
X361174Y545672D01*
X361258Y545726D01*
X361344Y545776D01*
X361432Y545823D01*
X361522Y545867D01*
X361613Y545907D01*
X361706Y545943D01*
X361800Y545976D01*
X361896Y546005D01*
X361992Y546030D01*
X362089Y546051D01*
X362188Y546069D01*
X362286Y546082D01*
X362386Y546092D01*
X362485Y546098D01*
X362585Y546100D01*
X362685Y546098D01*
X362784Y546092D01*
X362884Y546082D01*
X362982Y546069D01*
X363081Y546051D01*
X363178Y546030D01*
X363274Y546005D01*
X363370Y545976D01*
X363464Y545943D01*
X363557Y545907D01*
X363648Y545867D01*
X363738Y545823D01*
X363826Y545776D01*
X363912Y545726D01*
X363996Y545672D01*
X364078Y545615D01*
X364157Y545555D01*
X364235Y545491D01*
X364309Y545425D01*
X364381Y545356D01*
X364450Y545284D01*
X364516Y545210D01*
X364580Y545132D01*
X364640Y545053D01*
X364697Y544971D01*
X364751Y544887D01*
X364801Y544801D01*
X364848Y544713D01*
X364892Y544623D01*
X364932Y544532D01*
X364968Y544439D01*
X365001Y544345D01*
X365030Y544249D01*
X365055Y544153D01*
X365076Y544056D01*
X365094Y543957D01*
X365107Y543859D01*
X365117Y543759D01*
X365123Y543660D01*
X365125Y543560D01*
X365123Y543460D01*
X365117Y543361D01*
X365107Y543261D01*
X365094Y543163D01*
X365076Y543064D01*
X365055Y542967D01*
X365030Y542871D01*
X365001Y542775D01*
X364968Y542681D01*
X364932Y542588D01*
X364892Y542497D01*
X364848Y542407D01*
X364801Y542319D01*
X364751Y542233D01*
X364697Y542149D01*
X364640Y542067D01*
X364580Y541988D01*
X364516Y541910D01*
X364450Y541836D01*
X364381Y541764D01*
X364309Y541695D01*
X364235Y541629D01*
X364157Y541565D01*
X364078Y541505D01*
X363996Y541448D01*
X363912Y541394D01*
X363826Y541344D01*
X363738Y541297D01*
X363648Y541253D01*
X363557Y541213D01*
X363464Y541177D01*
X363370Y541144D01*
X363274Y541115D01*
X363178Y541090D01*
X363081Y541069D01*
X362982Y541051D01*
X362884Y541038D01*
X362784Y541028D01*
X362685Y541022D01*
X362585Y541020D01*
X365760Y551815D02*
X365535Y551818D01*
X365310Y551826D01*
X365086Y551839D01*
X364862Y551858D01*
X364638Y551882D01*
X364415Y551911D01*
X364193Y551946D01*
X363972Y551986D01*
X363752Y552032D01*
X363533Y552082D01*
X363315Y552138D01*
X363098Y552199D01*
X362883Y552265D01*
X362670Y552336D01*
X362459Y552413D01*
X362249Y552494D01*
X362041Y552580D01*
X361836Y552671D01*
X361633Y552767D01*
X361545Y552799D01*
X361458Y552835D01*
X361372Y552874D01*
X361288Y552917D01*
X361206Y552963D01*
X361126Y553012D01*
X361048Y553064D01*
X360972Y553120D01*
X360898Y553178D01*
X360827Y553240D01*
X360758Y553304D01*
X360692Y553371D01*
X360629Y553440D01*
X360568Y553512D01*
X360510Y553586D01*
X360456Y553663D01*
X360404Y553741D01*
X360356Y553822D01*
X360311Y553904D01*
X360269Y553989D01*
X360231Y554075D01*
X360196Y554162D01*
X360164Y554250D01*
X360137Y554340D01*
X360112Y554431D01*
X360092Y554523D01*
X360075Y554615D01*
X360062Y554709D01*
X360053Y554802D01*
X360047Y554896D01*
X360045Y554990D01*
X360047Y555084D01*
X360053Y555178D01*
X360062Y555271D01*
X360075Y555365D01*
X360092Y555457D01*
X360112Y555549D01*
X360137Y555640D01*
X360164Y555730D01*
X360196Y555818D01*
X360231Y555905D01*
X360269Y555991D01*
X360311Y556076D01*
X360356Y556158D01*
X360404Y556239D01*
X360456Y556317D01*
X360510Y556394D01*
X360568Y556468D01*
X360629Y556540D01*
X360692Y556609D01*
X360758Y556676D01*
X360827Y556740D01*
X360898Y556802D01*
X360972Y556860D01*
X361048Y556916D01*
X361126Y556968D01*
X361206Y557017D01*
X361288Y557063D01*
X361372Y557106D01*
X361458Y557145D01*
X361545Y557181D01*
X361633Y557213D01*
X361836Y557309D01*
X362041Y557400D01*
X362249Y557486D01*
X362459Y557567D01*
X362670Y557644D01*
X362883Y557715D01*
X363098Y557781D01*
X363315Y557842D01*
X363533Y557898D01*
X363752Y557948D01*
X363972Y557994D01*
X364193Y558034D01*
X364415Y558069D01*
X364638Y558098D01*
X364862Y558122D01*
X365086Y558141D01*
X365310Y558154D01*
X365535Y558162D01*
X365760Y558165D01*
X365760Y551815D02*
X365985Y551818D01*
X366210Y551826D01*
X366434Y551839D01*
X366658Y551858D01*
X366882Y551882D01*
X367105Y551911D01*
X367327Y551946D01*
X367548Y551986D01*
X367768Y552032D01*
X367987Y552082D01*
X368205Y552138D01*
X368422Y552199D01*
X368637Y552265D01*
X368850Y552336D01*
X369061Y552413D01*
X369271Y552494D01*
X369479Y552580D01*
X369684Y552671D01*
X369887Y552767D01*
X369888Y552767D02*
X369976Y552799D01*
X370063Y552835D01*
X370149Y552874D01*
X370233Y552917D01*
X370315Y552963D01*
X370395Y553012D01*
X370473Y553064D01*
X370549Y553120D01*
X370623Y553178D01*
X370694Y553240D01*
X370763Y553304D01*
X370829Y553371D01*
X370892Y553440D01*
X370953Y553512D01*
X371011Y553586D01*
X371065Y553663D01*
X371117Y553741D01*
X371165Y553822D01*
X371210Y553904D01*
X371252Y553989D01*
X371290Y554075D01*
X371325Y554162D01*
X371357Y554250D01*
X371384Y554340D01*
X371409Y554431D01*
X371429Y554523D01*
X371446Y554615D01*
X371459Y554709D01*
X371468Y554802D01*
X371474Y554896D01*
X371476Y554990D01*
X369887Y557213D02*
X369684Y557309D01*
X369479Y557400D01*
X369271Y557486D01*
X369061Y557567D01*
X368850Y557644D01*
X368637Y557715D01*
X368422Y557781D01*
X368205Y557842D01*
X367987Y557898D01*
X367768Y557948D01*
X367548Y557994D01*
X367327Y558034D01*
X367105Y558069D01*
X366882Y558098D01*
X366658Y558122D01*
X366434Y558141D01*
X366210Y558154D01*
X365985Y558162D01*
X365760Y558165D01*
X369888Y557213D02*
X369976Y557181D01*
X370063Y557145D01*
X370149Y557106D01*
X370233Y557063D01*
X370315Y557017D01*
X370395Y556968D01*
X370473Y556916D01*
X370549Y556860D01*
X370623Y556802D01*
X370694Y556740D01*
X370763Y556676D01*
X370829Y556609D01*
X370892Y556540D01*
X370953Y556468D01*
X371011Y556394D01*
X371065Y556317D01*
X371117Y556239D01*
X371165Y556158D01*
X371210Y556076D01*
X371252Y555991D01*
X371290Y555905D01*
X371325Y555818D01*
X371357Y555730D01*
X371384Y555640D01*
X371409Y555549D01*
X371429Y555457D01*
X371446Y555365D01*
X371459Y555271D01*
X371468Y555178D01*
X371474Y555084D01*
X371476Y554990D01*
X368935Y552450D02*
X362585Y557530D01*
D14*
X355600Y457200D02*
X194100Y457200D01*
X194100Y237200D01*
X355600Y237200D01*
X355600Y457200D01*
D10*
X269320Y373380D02*
X269320Y332740D01*
X269320Y373380D02*
X228680Y373380D01*
X228680Y332740D01*
X269320Y332740D01*
X202456Y269240D02*
X202461Y269634D01*
X202475Y270028D01*
X202500Y270422D01*
X202533Y270815D01*
X202577Y271206D01*
X202630Y271597D01*
X202692Y271986D01*
X202765Y272374D01*
X202846Y272760D01*
X202937Y273143D01*
X203038Y273524D01*
X203148Y273903D01*
X203267Y274279D01*
X203395Y274652D01*
X203532Y275021D01*
X203679Y275387D01*
X203834Y275750D01*
X203998Y276108D01*
X204171Y276463D01*
X204353Y276813D01*
X204543Y277158D01*
X204741Y277499D01*
X204948Y277834D01*
X205163Y278165D01*
X205386Y278490D01*
X205617Y278809D01*
X205856Y279123D01*
X206102Y279431D01*
X206356Y279733D01*
X206617Y280028D01*
X206886Y280317D01*
X207161Y280599D01*
X207443Y280874D01*
X207732Y281143D01*
X208027Y281404D01*
X208329Y281658D01*
X208637Y281904D01*
X208951Y282143D01*
X209270Y282374D01*
X209595Y282597D01*
X209926Y282812D01*
X210261Y283019D01*
X210602Y283217D01*
X210947Y283407D01*
X211297Y283589D01*
X211652Y283762D01*
X212010Y283926D01*
X212373Y284081D01*
X212739Y284228D01*
X213108Y284365D01*
X213481Y284493D01*
X213857Y284612D01*
X214236Y284722D01*
X214617Y284823D01*
X215000Y284914D01*
X215386Y284995D01*
X215774Y285068D01*
X216163Y285130D01*
X216554Y285183D01*
X216945Y285227D01*
X217338Y285260D01*
X217732Y285285D01*
X218126Y285299D01*
X218520Y285304D01*
X218914Y285299D01*
X219308Y285285D01*
X219702Y285260D01*
X220095Y285227D01*
X220486Y285183D01*
X220877Y285130D01*
X221266Y285068D01*
X221654Y284995D01*
X222040Y284914D01*
X222423Y284823D01*
X222804Y284722D01*
X223183Y284612D01*
X223559Y284493D01*
X223932Y284365D01*
X224301Y284228D01*
X224667Y284081D01*
X225030Y283926D01*
X225388Y283762D01*
X225743Y283589D01*
X226093Y283407D01*
X226438Y283217D01*
X226779Y283019D01*
X227114Y282812D01*
X227445Y282597D01*
X227770Y282374D01*
X228089Y282143D01*
X228403Y281904D01*
X228711Y281658D01*
X229013Y281404D01*
X229308Y281143D01*
X229597Y280874D01*
X229879Y280599D01*
X230154Y280317D01*
X230423Y280028D01*
X230684Y279733D01*
X230938Y279431D01*
X231184Y279123D01*
X231423Y278809D01*
X231654Y278490D01*
X231877Y278165D01*
X232092Y277834D01*
X232299Y277499D01*
X232497Y277158D01*
X232687Y276813D01*
X232869Y276463D01*
X233042Y276108D01*
X233206Y275750D01*
X233361Y275387D01*
X233508Y275021D01*
X233645Y274652D01*
X233773Y274279D01*
X233892Y273903D01*
X234002Y273524D01*
X234103Y273143D01*
X234194Y272760D01*
X234275Y272374D01*
X234348Y271986D01*
X234410Y271597D01*
X234463Y271206D01*
X234507Y270815D01*
X234540Y270422D01*
X234565Y270028D01*
X234579Y269634D01*
X234584Y269240D01*
X234579Y268846D01*
X234565Y268452D01*
X234540Y268058D01*
X234507Y267665D01*
X234463Y267274D01*
X234410Y266883D01*
X234348Y266494D01*
X234275Y266106D01*
X234194Y265720D01*
X234103Y265337D01*
X234002Y264956D01*
X233892Y264577D01*
X233773Y264201D01*
X233645Y263828D01*
X233508Y263459D01*
X233361Y263093D01*
X233206Y262730D01*
X233042Y262372D01*
X232869Y262017D01*
X232687Y261667D01*
X232497Y261322D01*
X232299Y260981D01*
X232092Y260646D01*
X231877Y260315D01*
X231654Y259990D01*
X231423Y259671D01*
X231184Y259357D01*
X230938Y259049D01*
X230684Y258747D01*
X230423Y258452D01*
X230154Y258163D01*
X229879Y257881D01*
X229597Y257606D01*
X229308Y257337D01*
X229013Y257076D01*
X228711Y256822D01*
X228403Y256576D01*
X228089Y256337D01*
X227770Y256106D01*
X227445Y255883D01*
X227114Y255668D01*
X226779Y255461D01*
X226438Y255263D01*
X226093Y255073D01*
X225743Y254891D01*
X225388Y254718D01*
X225030Y254554D01*
X224667Y254399D01*
X224301Y254252D01*
X223932Y254115D01*
X223559Y253987D01*
X223183Y253868D01*
X222804Y253758D01*
X222423Y253657D01*
X222040Y253566D01*
X221654Y253485D01*
X221266Y253412D01*
X220877Y253350D01*
X220486Y253297D01*
X220095Y253253D01*
X219702Y253220D01*
X219308Y253195D01*
X218914Y253181D01*
X218520Y253176D01*
X218126Y253181D01*
X217732Y253195D01*
X217338Y253220D01*
X216945Y253253D01*
X216554Y253297D01*
X216163Y253350D01*
X215774Y253412D01*
X215386Y253485D01*
X215000Y253566D01*
X214617Y253657D01*
X214236Y253758D01*
X213857Y253868D01*
X213481Y253987D01*
X213108Y254115D01*
X212739Y254252D01*
X212373Y254399D01*
X212010Y254554D01*
X211652Y254718D01*
X211297Y254891D01*
X210947Y255073D01*
X210602Y255263D01*
X210261Y255461D01*
X209926Y255668D01*
X209595Y255883D01*
X209270Y256106D01*
X208951Y256337D01*
X208637Y256576D01*
X208329Y256822D01*
X208027Y257076D01*
X207732Y257337D01*
X207443Y257606D01*
X207161Y257881D01*
X206886Y258163D01*
X206617Y258452D01*
X206356Y258747D01*
X206102Y259049D01*
X205856Y259357D01*
X205617Y259671D01*
X205386Y259990D01*
X205163Y260315D01*
X204948Y260646D01*
X204741Y260981D01*
X204543Y261322D01*
X204353Y261667D01*
X204171Y262017D01*
X203998Y262372D01*
X203834Y262730D01*
X203679Y263093D01*
X203532Y263459D01*
X203395Y263828D01*
X203267Y264201D01*
X203148Y264577D01*
X203038Y264956D01*
X202937Y265337D01*
X202846Y265720D01*
X202765Y266106D01*
X202692Y266494D01*
X202630Y266883D01*
X202577Y267274D01*
X202533Y267665D01*
X202500Y268058D01*
X202475Y268452D01*
X202461Y268846D01*
X202456Y269240D01*
X202456Y436880D02*
X202461Y437274D01*
X202475Y437668D01*
X202500Y438062D01*
X202533Y438455D01*
X202577Y438846D01*
X202630Y439237D01*
X202692Y439626D01*
X202765Y440014D01*
X202846Y440400D01*
X202937Y440783D01*
X203038Y441164D01*
X203148Y441543D01*
X203267Y441919D01*
X203395Y442292D01*
X203532Y442661D01*
X203679Y443027D01*
X203834Y443390D01*
X203998Y443748D01*
X204171Y444103D01*
X204353Y444453D01*
X204543Y444798D01*
X204741Y445139D01*
X204948Y445474D01*
X205163Y445805D01*
X205386Y446130D01*
X205617Y446449D01*
X205856Y446763D01*
X206102Y447071D01*
X206356Y447373D01*
X206617Y447668D01*
X206886Y447957D01*
X207161Y448239D01*
X207443Y448514D01*
X207732Y448783D01*
X208027Y449044D01*
X208329Y449298D01*
X208637Y449544D01*
X208951Y449783D01*
X209270Y450014D01*
X209595Y450237D01*
X209926Y450452D01*
X210261Y450659D01*
X210602Y450857D01*
X210947Y451047D01*
X211297Y451229D01*
X211652Y451402D01*
X212010Y451566D01*
X212373Y451721D01*
X212739Y451868D01*
X213108Y452005D01*
X213481Y452133D01*
X213857Y452252D01*
X214236Y452362D01*
X214617Y452463D01*
X215000Y452554D01*
X215386Y452635D01*
X215774Y452708D01*
X216163Y452770D01*
X216554Y452823D01*
X216945Y452867D01*
X217338Y452900D01*
X217732Y452925D01*
X218126Y452939D01*
X218520Y452944D01*
X218914Y452939D01*
X219308Y452925D01*
X219702Y452900D01*
X220095Y452867D01*
X220486Y452823D01*
X220877Y452770D01*
X221266Y452708D01*
X221654Y452635D01*
X222040Y452554D01*
X222423Y452463D01*
X222804Y452362D01*
X223183Y452252D01*
X223559Y452133D01*
X223932Y452005D01*
X224301Y451868D01*
X224667Y451721D01*
X225030Y451566D01*
X225388Y451402D01*
X225743Y451229D01*
X226093Y451047D01*
X226438Y450857D01*
X226779Y450659D01*
X227114Y450452D01*
X227445Y450237D01*
X227770Y450014D01*
X228089Y449783D01*
X228403Y449544D01*
X228711Y449298D01*
X229013Y449044D01*
X229308Y448783D01*
X229597Y448514D01*
X229879Y448239D01*
X230154Y447957D01*
X230423Y447668D01*
X230684Y447373D01*
X230938Y447071D01*
X231184Y446763D01*
X231423Y446449D01*
X231654Y446130D01*
X231877Y445805D01*
X232092Y445474D01*
X232299Y445139D01*
X232497Y444798D01*
X232687Y444453D01*
X232869Y444103D01*
X233042Y443748D01*
X233206Y443390D01*
X233361Y443027D01*
X233508Y442661D01*
X233645Y442292D01*
X233773Y441919D01*
X233892Y441543D01*
X234002Y441164D01*
X234103Y440783D01*
X234194Y440400D01*
X234275Y440014D01*
X234348Y439626D01*
X234410Y439237D01*
X234463Y438846D01*
X234507Y438455D01*
X234540Y438062D01*
X234565Y437668D01*
X234579Y437274D01*
X234584Y436880D01*
X234579Y436486D01*
X234565Y436092D01*
X234540Y435698D01*
X234507Y435305D01*
X234463Y434914D01*
X234410Y434523D01*
X234348Y434134D01*
X234275Y433746D01*
X234194Y433360D01*
X234103Y432977D01*
X234002Y432596D01*
X233892Y432217D01*
X233773Y431841D01*
X233645Y431468D01*
X233508Y431099D01*
X233361Y430733D01*
X233206Y430370D01*
X233042Y430012D01*
X232869Y429657D01*
X232687Y429307D01*
X232497Y428962D01*
X232299Y428621D01*
X232092Y428286D01*
X231877Y427955D01*
X231654Y427630D01*
X231423Y427311D01*
X231184Y426997D01*
X230938Y426689D01*
X230684Y426387D01*
X230423Y426092D01*
X230154Y425803D01*
X229879Y425521D01*
X229597Y425246D01*
X229308Y424977D01*
X229013Y424716D01*
X228711Y424462D01*
X228403Y424216D01*
X228089Y423977D01*
X227770Y423746D01*
X227445Y423523D01*
X227114Y423308D01*
X226779Y423101D01*
X226438Y422903D01*
X226093Y422713D01*
X225743Y422531D01*
X225388Y422358D01*
X225030Y422194D01*
X224667Y422039D01*
X224301Y421892D01*
X223932Y421755D01*
X223559Y421627D01*
X223183Y421508D01*
X222804Y421398D01*
X222423Y421297D01*
X222040Y421206D01*
X221654Y421125D01*
X221266Y421052D01*
X220877Y420990D01*
X220486Y420937D01*
X220095Y420893D01*
X219702Y420860D01*
X219308Y420835D01*
X218914Y420821D01*
X218520Y420816D01*
X218126Y420821D01*
X217732Y420835D01*
X217338Y420860D01*
X216945Y420893D01*
X216554Y420937D01*
X216163Y420990D01*
X215774Y421052D01*
X215386Y421125D01*
X215000Y421206D01*
X214617Y421297D01*
X214236Y421398D01*
X213857Y421508D01*
X213481Y421627D01*
X213108Y421755D01*
X212739Y421892D01*
X212373Y422039D01*
X212010Y422194D01*
X211652Y422358D01*
X211297Y422531D01*
X210947Y422713D01*
X210602Y422903D01*
X210261Y423101D01*
X209926Y423308D01*
X209595Y423523D01*
X209270Y423746D01*
X208951Y423977D01*
X208637Y424216D01*
X208329Y424462D01*
X208027Y424716D01*
X207732Y424977D01*
X207443Y425246D01*
X207161Y425521D01*
X206886Y425803D01*
X206617Y426092D01*
X206356Y426387D01*
X206102Y426689D01*
X205856Y426997D01*
X205617Y427311D01*
X205386Y427630D01*
X205163Y427955D01*
X204948Y428286D01*
X204741Y428621D01*
X204543Y428962D01*
X204353Y429307D01*
X204171Y429657D01*
X203998Y430012D01*
X203834Y430370D01*
X203679Y430733D01*
X203532Y431099D01*
X203395Y431468D01*
X203267Y431841D01*
X203148Y432217D01*
X203038Y432596D01*
X202937Y432977D01*
X202846Y433360D01*
X202765Y433746D01*
X202692Y434134D01*
X202630Y434523D01*
X202577Y434914D01*
X202533Y435305D01*
X202500Y435698D01*
X202475Y436092D01*
X202461Y436486D01*
X202456Y436880D01*
D15*
X250270Y355600D02*
X250270Y336550D01*
X246460Y341630D01*
X250270Y336550D02*
X254080Y341630D01*
X250270Y355600D02*
X232490Y355600D01*
X237570Y351790D01*
X232490Y355600D02*
X237570Y359410D01*
X250270Y355600D02*
X262970Y368300D01*
X261700Y361950D01*
X262970Y368300D02*
X256620Y367030D01*
X248474Y355600D02*
X248476Y355684D01*
X248482Y355768D01*
X248492Y355852D01*
X248505Y355935D01*
X248523Y356017D01*
X248545Y356099D01*
X248570Y356179D01*
X248599Y356258D01*
X248632Y356336D01*
X248668Y356412D01*
X248708Y356486D01*
X248751Y356558D01*
X248797Y356628D01*
X248847Y356696D01*
X248900Y356762D01*
X248956Y356825D01*
X249015Y356885D01*
X249077Y356942D01*
X249141Y356997D01*
X249208Y357048D01*
X249277Y357096D01*
X249348Y357141D01*
X249421Y357183D01*
X249496Y357221D01*
X249573Y357255D01*
X249651Y357286D01*
X249731Y357313D01*
X249812Y357337D01*
X249894Y357356D01*
X249977Y357372D01*
X250060Y357384D01*
X250144Y357392D01*
X250228Y357396D01*
X250312Y357396D01*
X250396Y357392D01*
X250480Y357384D01*
X250563Y357372D01*
X250646Y357356D01*
X250728Y357337D01*
X250809Y357313D01*
X250889Y357286D01*
X250967Y357255D01*
X251044Y357221D01*
X251119Y357183D01*
X251192Y357141D01*
X251263Y357096D01*
X251332Y357048D01*
X251399Y356997D01*
X251463Y356942D01*
X251525Y356885D01*
X251584Y356825D01*
X251640Y356762D01*
X251693Y356696D01*
X251743Y356628D01*
X251789Y356558D01*
X251832Y356486D01*
X251872Y356412D01*
X251908Y356336D01*
X251941Y356258D01*
X251970Y356179D01*
X251995Y356099D01*
X252017Y356017D01*
X252035Y355935D01*
X252048Y355852D01*
X252058Y355768D01*
X252064Y355684D01*
X252066Y355600D01*
X252064Y355516D01*
X252058Y355432D01*
X252048Y355348D01*
X252035Y355265D01*
X252017Y355183D01*
X251995Y355101D01*
X251970Y355021D01*
X251941Y354942D01*
X251908Y354864D01*
X251872Y354788D01*
X251832Y354714D01*
X251789Y354642D01*
X251743Y354572D01*
X251693Y354504D01*
X251640Y354438D01*
X251584Y354375D01*
X251525Y354315D01*
X251463Y354258D01*
X251399Y354203D01*
X251332Y354152D01*
X251263Y354104D01*
X251192Y354059D01*
X251119Y354017D01*
X251044Y353979D01*
X250967Y353945D01*
X250889Y353914D01*
X250809Y353887D01*
X250728Y353863D01*
X250646Y353844D01*
X250563Y353828D01*
X250480Y353816D01*
X250396Y353808D01*
X250312Y353804D01*
X250228Y353804D01*
X250144Y353808D01*
X250060Y353816D01*
X249977Y353828D01*
X249894Y353844D01*
X249812Y353863D01*
X249731Y353887D01*
X249651Y353914D01*
X249573Y353945D01*
X249496Y353979D01*
X249421Y354017D01*
X249348Y354059D01*
X249277Y354104D01*
X249208Y354152D01*
X249141Y354203D01*
X249077Y354258D01*
X249015Y354315D01*
X248956Y354375D01*
X248900Y354438D01*
X248847Y354504D01*
X248797Y354572D01*
X248751Y354642D01*
X248708Y354714D01*
X248668Y354788D01*
X248632Y354864D01*
X248599Y354942D01*
X248570Y355021D01*
X248545Y355101D01*
X248523Y355183D01*
X248505Y355265D01*
X248492Y355348D01*
X248482Y355432D01*
X248476Y355516D01*
X248474Y355600D01*
D10*
X277575Y234061D02*
X277575Y222631D01*
X281385Y227711D02*
X277575Y234061D01*
X281385Y227711D02*
X285195Y234061D01*
X285195Y222631D01*
X291355Y222631D02*
X291355Y234061D01*
X294530Y234061D01*
X294641Y234059D01*
X294751Y234053D01*
X294862Y234044D01*
X294972Y234030D01*
X295081Y234013D01*
X295190Y233992D01*
X295298Y233967D01*
X295405Y233938D01*
X295511Y233906D01*
X295616Y233870D01*
X295719Y233830D01*
X295821Y233787D01*
X295922Y233740D01*
X296021Y233689D01*
X296118Y233636D01*
X296212Y233579D01*
X296305Y233518D01*
X296396Y233455D01*
X296485Y233388D01*
X296571Y233318D01*
X296654Y233245D01*
X296736Y233170D01*
X296814Y233092D01*
X296889Y233010D01*
X296962Y232927D01*
X297032Y232841D01*
X297099Y232752D01*
X297162Y232661D01*
X297223Y232568D01*
X297280Y232473D01*
X297333Y232377D01*
X297384Y232278D01*
X297431Y232177D01*
X297474Y232075D01*
X297514Y231972D01*
X297550Y231867D01*
X297582Y231761D01*
X297611Y231654D01*
X297636Y231546D01*
X297657Y231437D01*
X297674Y231328D01*
X297688Y231218D01*
X297697Y231107D01*
X297703Y230997D01*
X297705Y230886D01*
X297703Y230775D01*
X297697Y230665D01*
X297688Y230554D01*
X297674Y230444D01*
X297657Y230335D01*
X297636Y230226D01*
X297611Y230118D01*
X297582Y230011D01*
X297550Y229905D01*
X297514Y229800D01*
X297474Y229697D01*
X297431Y229595D01*
X297384Y229494D01*
X297333Y229395D01*
X297280Y229298D01*
X297223Y229204D01*
X297162Y229111D01*
X297099Y229020D01*
X297032Y228931D01*
X296962Y228845D01*
X296889Y228762D01*
X296814Y228680D01*
X296736Y228602D01*
X296654Y228527D01*
X296571Y228454D01*
X296485Y228384D01*
X296396Y228317D01*
X296305Y228254D01*
X296212Y228193D01*
X296118Y228136D01*
X296021Y228083D01*
X295922Y228032D01*
X295821Y227985D01*
X295719Y227942D01*
X295616Y227902D01*
X295511Y227866D01*
X295405Y227834D01*
X295298Y227805D01*
X295190Y227780D01*
X295081Y227759D01*
X294972Y227742D01*
X294862Y227728D01*
X294751Y227719D01*
X294641Y227713D01*
X294530Y227711D01*
X291355Y227711D01*
X302594Y225806D02*
X302594Y234061D01*
X302594Y225806D02*
X302596Y225695D01*
X302602Y225585D01*
X302611Y225474D01*
X302625Y225364D01*
X302642Y225255D01*
X302663Y225146D01*
X302688Y225038D01*
X302717Y224931D01*
X302749Y224825D01*
X302785Y224720D01*
X302825Y224617D01*
X302868Y224515D01*
X302915Y224414D01*
X302966Y224315D01*
X303019Y224219D01*
X303076Y224124D01*
X303137Y224031D01*
X303200Y223940D01*
X303267Y223851D01*
X303337Y223765D01*
X303410Y223682D01*
X303485Y223600D01*
X303563Y223522D01*
X303645Y223447D01*
X303728Y223374D01*
X303814Y223304D01*
X303903Y223237D01*
X303994Y223174D01*
X304087Y223113D01*
X304182Y223056D01*
X304278Y223003D01*
X304377Y222952D01*
X304478Y222905D01*
X304580Y222862D01*
X304683Y222822D01*
X304788Y222786D01*
X304894Y222754D01*
X305001Y222725D01*
X305109Y222700D01*
X305218Y222679D01*
X305327Y222662D01*
X305437Y222648D01*
X305548Y222639D01*
X305658Y222633D01*
X305769Y222631D01*
X305880Y222633D01*
X305990Y222639D01*
X306101Y222648D01*
X306211Y222662D01*
X306320Y222679D01*
X306429Y222700D01*
X306537Y222725D01*
X306644Y222754D01*
X306750Y222786D01*
X306855Y222822D01*
X306958Y222862D01*
X307060Y222905D01*
X307161Y222952D01*
X307260Y223003D01*
X307356Y223056D01*
X307451Y223113D01*
X307544Y223174D01*
X307635Y223237D01*
X307724Y223304D01*
X307810Y223374D01*
X307893Y223447D01*
X307975Y223522D01*
X308053Y223600D01*
X308128Y223682D01*
X308201Y223765D01*
X308271Y223851D01*
X308338Y223940D01*
X308401Y224031D01*
X308462Y224124D01*
X308519Y224218D01*
X308572Y224315D01*
X308623Y224414D01*
X308670Y224515D01*
X308713Y224617D01*
X308753Y224720D01*
X308789Y224825D01*
X308821Y224931D01*
X308850Y225038D01*
X308875Y225146D01*
X308896Y225255D01*
X308913Y225364D01*
X308927Y225474D01*
X308936Y225585D01*
X308942Y225695D01*
X308944Y225806D01*
X308944Y234061D01*
X314405Y228981D02*
X318215Y228981D01*
X318315Y228979D01*
X318414Y228973D01*
X318514Y228963D01*
X318612Y228950D01*
X318711Y228932D01*
X318808Y228911D01*
X318904Y228886D01*
X319000Y228857D01*
X319094Y228824D01*
X319187Y228788D01*
X319278Y228748D01*
X319368Y228704D01*
X319456Y228657D01*
X319542Y228607D01*
X319626Y228553D01*
X319708Y228496D01*
X319787Y228436D01*
X319865Y228372D01*
X319939Y228306D01*
X320011Y228237D01*
X320080Y228165D01*
X320146Y228091D01*
X320210Y228013D01*
X320270Y227934D01*
X320327Y227852D01*
X320381Y227768D01*
X320431Y227682D01*
X320478Y227594D01*
X320522Y227504D01*
X320562Y227413D01*
X320598Y227320D01*
X320631Y227226D01*
X320660Y227130D01*
X320685Y227034D01*
X320706Y226937D01*
X320724Y226838D01*
X320737Y226740D01*
X320747Y226640D01*
X320753Y226541D01*
X320755Y226441D01*
X320755Y225806D01*
X320753Y225695D01*
X320747Y225585D01*
X320738Y225474D01*
X320724Y225364D01*
X320707Y225255D01*
X320686Y225146D01*
X320661Y225038D01*
X320632Y224931D01*
X320600Y224825D01*
X320564Y224720D01*
X320524Y224617D01*
X320481Y224515D01*
X320434Y224414D01*
X320383Y224315D01*
X320330Y224218D01*
X320273Y224124D01*
X320212Y224031D01*
X320149Y223940D01*
X320082Y223851D01*
X320012Y223765D01*
X319939Y223682D01*
X319864Y223600D01*
X319786Y223522D01*
X319704Y223447D01*
X319621Y223374D01*
X319535Y223304D01*
X319446Y223237D01*
X319355Y223174D01*
X319262Y223113D01*
X319167Y223056D01*
X319071Y223003D01*
X318972Y222952D01*
X318871Y222905D01*
X318769Y222862D01*
X318666Y222822D01*
X318561Y222786D01*
X318455Y222754D01*
X318348Y222725D01*
X318240Y222700D01*
X318131Y222679D01*
X318022Y222662D01*
X317912Y222648D01*
X317801Y222639D01*
X317691Y222633D01*
X317580Y222631D01*
X317469Y222633D01*
X317359Y222639D01*
X317248Y222648D01*
X317138Y222662D01*
X317029Y222679D01*
X316920Y222700D01*
X316812Y222725D01*
X316705Y222754D01*
X316599Y222786D01*
X316494Y222822D01*
X316391Y222862D01*
X316289Y222905D01*
X316188Y222952D01*
X316089Y223003D01*
X315993Y223056D01*
X315898Y223113D01*
X315805Y223174D01*
X315714Y223237D01*
X315625Y223304D01*
X315539Y223374D01*
X315456Y223447D01*
X315374Y223522D01*
X315296Y223600D01*
X315221Y223682D01*
X315148Y223765D01*
X315078Y223851D01*
X315011Y223940D01*
X314948Y224031D01*
X314887Y224124D01*
X314830Y224219D01*
X314777Y224315D01*
X314726Y224414D01*
X314679Y224515D01*
X314636Y224617D01*
X314596Y224720D01*
X314560Y224825D01*
X314528Y224931D01*
X314499Y225038D01*
X314474Y225146D01*
X314453Y225255D01*
X314436Y225364D01*
X314422Y225474D01*
X314413Y225585D01*
X314407Y225695D01*
X314405Y225806D01*
X314405Y228981D01*
X314407Y229121D01*
X314413Y229261D01*
X314422Y229401D01*
X314436Y229540D01*
X314453Y229679D01*
X314474Y229817D01*
X314499Y229955D01*
X314528Y230092D01*
X314560Y230228D01*
X314597Y230363D01*
X314637Y230497D01*
X314680Y230630D01*
X314728Y230762D01*
X314778Y230893D01*
X314833Y231022D01*
X314891Y231149D01*
X314952Y231275D01*
X315017Y231399D01*
X315086Y231521D01*
X315157Y231641D01*
X315232Y231759D01*
X315310Y231876D01*
X315392Y231990D01*
X315476Y232101D01*
X315564Y232210D01*
X315654Y232317D01*
X315748Y232422D01*
X315844Y232523D01*
X315943Y232622D01*
X316044Y232718D01*
X316149Y232812D01*
X316256Y232902D01*
X316365Y232990D01*
X316476Y233074D01*
X316590Y233156D01*
X316707Y233234D01*
X316825Y233309D01*
X316945Y233380D01*
X317067Y233449D01*
X317191Y233514D01*
X317317Y233575D01*
X317444Y233633D01*
X317573Y233688D01*
X317704Y233738D01*
X317836Y233786D01*
X317969Y233829D01*
X318103Y233869D01*
X318238Y233906D01*
X318374Y233938D01*
X318511Y233967D01*
X318649Y233992D01*
X318787Y234013D01*
X318926Y234030D01*
X319065Y234044D01*
X319205Y234053D01*
X319345Y234059D01*
X319485Y234061D01*
X326787Y232473D02*
X326691Y232270D01*
X326600Y232065D01*
X326514Y231857D01*
X326433Y231647D01*
X326356Y231436D01*
X326285Y231223D01*
X326219Y231008D01*
X326158Y230791D01*
X326102Y230573D01*
X326052Y230354D01*
X326006Y230134D01*
X325966Y229913D01*
X325931Y229691D01*
X325902Y229468D01*
X325878Y229244D01*
X325859Y229020D01*
X325846Y228796D01*
X325838Y228571D01*
X325835Y228346D01*
X326787Y232474D02*
X326819Y232562D01*
X326855Y232649D01*
X326894Y232735D01*
X326937Y232819D01*
X326983Y232901D01*
X327032Y232981D01*
X327084Y233059D01*
X327140Y233135D01*
X327198Y233209D01*
X327260Y233280D01*
X327324Y233349D01*
X327391Y233415D01*
X327460Y233478D01*
X327532Y233539D01*
X327606Y233597D01*
X327683Y233651D01*
X327761Y233703D01*
X327842Y233751D01*
X327924Y233796D01*
X328009Y233838D01*
X328095Y233876D01*
X328182Y233911D01*
X328270Y233943D01*
X328360Y233970D01*
X328451Y233995D01*
X328543Y234015D01*
X328635Y234032D01*
X328729Y234045D01*
X328822Y234054D01*
X328916Y234060D01*
X329010Y234062D01*
X329104Y234060D01*
X329198Y234054D01*
X329291Y234045D01*
X329385Y234032D01*
X329477Y234015D01*
X329569Y233995D01*
X329660Y233970D01*
X329750Y233943D01*
X329838Y233911D01*
X329925Y233876D01*
X330011Y233838D01*
X330096Y233796D01*
X330178Y233751D01*
X330259Y233703D01*
X330337Y233651D01*
X330414Y233597D01*
X330488Y233539D01*
X330560Y233478D01*
X330629Y233415D01*
X330696Y233349D01*
X330760Y233280D01*
X330822Y233209D01*
X330880Y233135D01*
X330936Y233059D01*
X330988Y232981D01*
X331037Y232901D01*
X331083Y232819D01*
X331126Y232735D01*
X331165Y232649D01*
X331201Y232562D01*
X331233Y232474D01*
X331233Y232473D02*
X331329Y232270D01*
X331420Y232065D01*
X331506Y231857D01*
X331587Y231647D01*
X331664Y231436D01*
X331735Y231223D01*
X331801Y231008D01*
X331862Y230791D01*
X331918Y230573D01*
X331968Y230354D01*
X332014Y230134D01*
X332054Y229913D01*
X332089Y229691D01*
X332118Y229468D01*
X332142Y229244D01*
X332161Y229020D01*
X332174Y228796D01*
X332182Y228571D01*
X332185Y228346D01*
X325835Y228346D02*
X325838Y228121D01*
X325846Y227896D01*
X325859Y227672D01*
X325878Y227448D01*
X325902Y227224D01*
X325931Y227001D01*
X325966Y226779D01*
X326006Y226558D01*
X326052Y226338D01*
X326102Y226119D01*
X326158Y225901D01*
X326219Y225684D01*
X326285Y225469D01*
X326356Y225256D01*
X326433Y225045D01*
X326514Y224835D01*
X326600Y224627D01*
X326691Y224422D01*
X326787Y224219D01*
X326819Y224131D01*
X326855Y224044D01*
X326894Y223958D01*
X326937Y223874D01*
X326983Y223792D01*
X327032Y223712D01*
X327084Y223634D01*
X327140Y223558D01*
X327198Y223484D01*
X327260Y223413D01*
X327324Y223344D01*
X327391Y223278D01*
X327460Y223215D01*
X327532Y223154D01*
X327606Y223096D01*
X327683Y223042D01*
X327761Y222990D01*
X327842Y222942D01*
X327924Y222897D01*
X328009Y222855D01*
X328095Y222817D01*
X328182Y222782D01*
X328270Y222750D01*
X328360Y222723D01*
X328451Y222698D01*
X328543Y222678D01*
X328635Y222661D01*
X328729Y222648D01*
X328822Y222639D01*
X328916Y222633D01*
X329010Y222631D01*
X331233Y224219D02*
X331329Y224422D01*
X331420Y224627D01*
X331506Y224835D01*
X331587Y225045D01*
X331664Y225256D01*
X331735Y225469D01*
X331801Y225684D01*
X331862Y225901D01*
X331918Y226119D01*
X331968Y226338D01*
X332014Y226558D01*
X332054Y226779D01*
X332089Y227001D01*
X332118Y227224D01*
X332142Y227448D01*
X332161Y227672D01*
X332174Y227896D01*
X332182Y228121D01*
X332185Y228346D01*
X331233Y224219D02*
X331201Y224131D01*
X331165Y224044D01*
X331126Y223958D01*
X331083Y223874D01*
X331037Y223792D01*
X330988Y223712D01*
X330936Y223634D01*
X330880Y223558D01*
X330822Y223484D01*
X330760Y223413D01*
X330696Y223344D01*
X330629Y223278D01*
X330560Y223215D01*
X330488Y223154D01*
X330414Y223096D01*
X330337Y223042D01*
X330259Y222990D01*
X330178Y222942D01*
X330096Y222897D01*
X330011Y222855D01*
X329925Y222817D01*
X329838Y222782D01*
X329750Y222750D01*
X329660Y222723D01*
X329569Y222698D01*
X329477Y222678D01*
X329385Y222661D01*
X329291Y222648D01*
X329198Y222639D01*
X329104Y222633D01*
X329010Y222631D01*
X326470Y225171D02*
X331550Y231521D01*
X337265Y222631D02*
X341075Y222631D01*
X341175Y222633D01*
X341274Y222639D01*
X341374Y222649D01*
X341472Y222662D01*
X341571Y222680D01*
X341668Y222701D01*
X341764Y222726D01*
X341860Y222755D01*
X341954Y222788D01*
X342047Y222824D01*
X342138Y222864D01*
X342228Y222908D01*
X342316Y222955D01*
X342402Y223005D01*
X342486Y223059D01*
X342568Y223116D01*
X342647Y223176D01*
X342725Y223240D01*
X342799Y223306D01*
X342871Y223375D01*
X342940Y223447D01*
X343006Y223521D01*
X343070Y223599D01*
X343130Y223678D01*
X343187Y223760D01*
X343241Y223844D01*
X343291Y223930D01*
X343338Y224018D01*
X343382Y224108D01*
X343422Y224199D01*
X343458Y224292D01*
X343491Y224386D01*
X343520Y224482D01*
X343545Y224578D01*
X343566Y224675D01*
X343584Y224774D01*
X343597Y224872D01*
X343607Y224972D01*
X343613Y225071D01*
X343615Y225171D01*
X343615Y226441D01*
X343613Y226541D01*
X343607Y226640D01*
X343597Y226740D01*
X343584Y226838D01*
X343566Y226937D01*
X343545Y227034D01*
X343520Y227130D01*
X343491Y227226D01*
X343458Y227320D01*
X343422Y227413D01*
X343382Y227504D01*
X343338Y227594D01*
X343291Y227682D01*
X343241Y227768D01*
X343187Y227852D01*
X343130Y227934D01*
X343070Y228013D01*
X343006Y228091D01*
X342940Y228165D01*
X342871Y228237D01*
X342799Y228306D01*
X342725Y228372D01*
X342647Y228436D01*
X342568Y228496D01*
X342486Y228553D01*
X342402Y228607D01*
X342316Y228657D01*
X342228Y228704D01*
X342138Y228748D01*
X342047Y228788D01*
X341954Y228824D01*
X341860Y228857D01*
X341764Y228886D01*
X341668Y228911D01*
X341571Y228932D01*
X341472Y228950D01*
X341374Y228963D01*
X341274Y228973D01*
X341175Y228979D01*
X341075Y228981D01*
X337265Y228981D01*
X337265Y234061D01*
X343615Y234061D01*
X349647Y232473D02*
X349551Y232270D01*
X349460Y232065D01*
X349374Y231857D01*
X349293Y231647D01*
X349216Y231436D01*
X349145Y231223D01*
X349079Y231008D01*
X349018Y230791D01*
X348962Y230573D01*
X348912Y230354D01*
X348866Y230134D01*
X348826Y229913D01*
X348791Y229691D01*
X348762Y229468D01*
X348738Y229244D01*
X348719Y229020D01*
X348706Y228796D01*
X348698Y228571D01*
X348695Y228346D01*
X349647Y232474D02*
X349679Y232562D01*
X349715Y232649D01*
X349754Y232735D01*
X349797Y232819D01*
X349843Y232901D01*
X349892Y232981D01*
X349944Y233059D01*
X350000Y233135D01*
X350058Y233209D01*
X350120Y233280D01*
X350184Y233349D01*
X350251Y233415D01*
X350320Y233478D01*
X350392Y233539D01*
X350466Y233597D01*
X350543Y233651D01*
X350621Y233703D01*
X350702Y233751D01*
X350784Y233796D01*
X350869Y233838D01*
X350955Y233876D01*
X351042Y233911D01*
X351130Y233943D01*
X351220Y233970D01*
X351311Y233995D01*
X351403Y234015D01*
X351495Y234032D01*
X351589Y234045D01*
X351682Y234054D01*
X351776Y234060D01*
X351870Y234062D01*
X351964Y234060D01*
X352058Y234054D01*
X352151Y234045D01*
X352245Y234032D01*
X352337Y234015D01*
X352429Y233995D01*
X352520Y233970D01*
X352610Y233943D01*
X352698Y233911D01*
X352785Y233876D01*
X352871Y233838D01*
X352956Y233796D01*
X353038Y233751D01*
X353119Y233703D01*
X353197Y233651D01*
X353274Y233597D01*
X353348Y233539D01*
X353420Y233478D01*
X353489Y233415D01*
X353556Y233349D01*
X353620Y233280D01*
X353682Y233209D01*
X353740Y233135D01*
X353796Y233059D01*
X353848Y232981D01*
X353897Y232901D01*
X353943Y232819D01*
X353986Y232735D01*
X354025Y232649D01*
X354061Y232562D01*
X354093Y232474D01*
X354093Y232473D02*
X354189Y232270D01*
X354280Y232065D01*
X354366Y231857D01*
X354447Y231647D01*
X354524Y231436D01*
X354595Y231223D01*
X354661Y231008D01*
X354722Y230791D01*
X354778Y230573D01*
X354828Y230354D01*
X354874Y230134D01*
X354914Y229913D01*
X354949Y229691D01*
X354978Y229468D01*
X355002Y229244D01*
X355021Y229020D01*
X355034Y228796D01*
X355042Y228571D01*
X355045Y228346D01*
X348695Y228346D02*
X348698Y228121D01*
X348706Y227896D01*
X348719Y227672D01*
X348738Y227448D01*
X348762Y227224D01*
X348791Y227001D01*
X348826Y226779D01*
X348866Y226558D01*
X348912Y226338D01*
X348962Y226119D01*
X349018Y225901D01*
X349079Y225684D01*
X349145Y225469D01*
X349216Y225256D01*
X349293Y225045D01*
X349374Y224835D01*
X349460Y224627D01*
X349551Y224422D01*
X349647Y224219D01*
X349679Y224131D01*
X349715Y224044D01*
X349754Y223958D01*
X349797Y223874D01*
X349843Y223792D01*
X349892Y223712D01*
X349944Y223634D01*
X350000Y223558D01*
X350058Y223484D01*
X350120Y223413D01*
X350184Y223344D01*
X350251Y223278D01*
X350320Y223215D01*
X350392Y223154D01*
X350466Y223096D01*
X350543Y223042D01*
X350621Y222990D01*
X350702Y222942D01*
X350784Y222897D01*
X350869Y222855D01*
X350955Y222817D01*
X351042Y222782D01*
X351130Y222750D01*
X351220Y222723D01*
X351311Y222698D01*
X351403Y222678D01*
X351495Y222661D01*
X351589Y222648D01*
X351682Y222639D01*
X351776Y222633D01*
X351870Y222631D01*
X354093Y224219D02*
X354189Y224422D01*
X354280Y224627D01*
X354366Y224835D01*
X354447Y225045D01*
X354524Y225256D01*
X354595Y225469D01*
X354661Y225684D01*
X354722Y225901D01*
X354778Y226119D01*
X354828Y226338D01*
X354874Y226558D01*
X354914Y226779D01*
X354949Y227001D01*
X354978Y227224D01*
X355002Y227448D01*
X355021Y227672D01*
X355034Y227896D01*
X355042Y228121D01*
X355045Y228346D01*
X354093Y224219D02*
X354061Y224131D01*
X354025Y224044D01*
X353986Y223958D01*
X353943Y223874D01*
X353897Y223792D01*
X353848Y223712D01*
X353796Y223634D01*
X353740Y223558D01*
X353682Y223484D01*
X353620Y223413D01*
X353556Y223344D01*
X353489Y223278D01*
X353420Y223215D01*
X353348Y223154D01*
X353274Y223096D01*
X353197Y223042D01*
X353119Y222990D01*
X353038Y222942D01*
X352956Y222897D01*
X352871Y222855D01*
X352785Y222817D01*
X352698Y222782D01*
X352610Y222750D01*
X352520Y222723D01*
X352429Y222698D01*
X352337Y222678D01*
X352245Y222661D01*
X352151Y222648D01*
X352058Y222639D01*
X351964Y222633D01*
X351870Y222631D01*
X349330Y225171D02*
X354410Y231521D01*
D13*
X749300Y374650D02*
X749300Y387350D01*
X749300Y374650D02*
X742950Y368300D01*
X730250Y368300D02*
X723900Y374650D01*
X742950Y368300D02*
X749300Y361950D01*
X749300Y349250D01*
X742950Y342900D01*
X730250Y342900D02*
X723900Y349250D01*
X723900Y361950D01*
X730250Y368300D01*
X730250Y393700D02*
X742950Y393700D01*
X749300Y387350D01*
X730250Y393700D02*
X723900Y387350D01*
X723900Y374650D01*
X742950Y342900D02*
X749300Y336550D01*
X749300Y323850D01*
X742950Y317500D01*
X730250Y317500D02*
X723900Y323850D01*
X723900Y336550D01*
X730250Y342900D01*
X749300Y311150D02*
X749300Y298450D01*
X742950Y292100D01*
X730250Y292100D02*
X723900Y298450D01*
X742950Y292100D02*
X749300Y285750D01*
X749300Y273050D01*
X742950Y266700D01*
X730250Y266700D02*
X723900Y273050D01*
X723900Y285750D01*
X730250Y292100D01*
X749300Y311150D02*
X742950Y317500D01*
X730250Y317500D02*
X723900Y311150D01*
X723900Y298450D01*
X742950Y266700D02*
X749300Y260350D01*
X749300Y247650D01*
X742950Y241300D01*
X730250Y241300D02*
X723900Y247650D01*
X723900Y260350D01*
X730250Y266700D01*
X730250Y241300D02*
X742950Y241300D01*
D10*
X710565Y380365D02*
X708025Y383540D01*
X719455Y383540D01*
X719455Y380365D02*
X719455Y386715D01*
X758825Y257175D02*
X758825Y253365D01*
X758825Y257175D02*
X758827Y257275D01*
X758833Y257374D01*
X758843Y257474D01*
X758856Y257572D01*
X758874Y257671D01*
X758895Y257768D01*
X758920Y257864D01*
X758949Y257960D01*
X758982Y258054D01*
X759018Y258147D01*
X759058Y258238D01*
X759102Y258328D01*
X759149Y258416D01*
X759199Y258502D01*
X759253Y258586D01*
X759310Y258668D01*
X759370Y258747D01*
X759434Y258825D01*
X759500Y258899D01*
X759569Y258971D01*
X759641Y259040D01*
X759715Y259106D01*
X759793Y259170D01*
X759872Y259230D01*
X759954Y259287D01*
X760038Y259341D01*
X760124Y259391D01*
X760212Y259438D01*
X760302Y259482D01*
X760393Y259522D01*
X760486Y259558D01*
X760580Y259591D01*
X760676Y259620D01*
X760772Y259645D01*
X760869Y259666D01*
X760968Y259684D01*
X761066Y259697D01*
X761166Y259707D01*
X761265Y259713D01*
X761365Y259715D01*
X762000Y259715D01*
X762111Y259713D01*
X762221Y259707D01*
X762332Y259698D01*
X762442Y259684D01*
X762551Y259667D01*
X762660Y259646D01*
X762768Y259621D01*
X762875Y259592D01*
X762981Y259560D01*
X763086Y259524D01*
X763189Y259484D01*
X763291Y259441D01*
X763392Y259394D01*
X763491Y259343D01*
X763588Y259290D01*
X763682Y259233D01*
X763775Y259172D01*
X763866Y259109D01*
X763955Y259042D01*
X764041Y258972D01*
X764124Y258899D01*
X764206Y258824D01*
X764284Y258746D01*
X764359Y258664D01*
X764432Y258581D01*
X764502Y258495D01*
X764569Y258406D01*
X764632Y258315D01*
X764693Y258222D01*
X764750Y258127D01*
X764803Y258031D01*
X764854Y257932D01*
X764901Y257831D01*
X764944Y257729D01*
X764984Y257626D01*
X765020Y257521D01*
X765052Y257415D01*
X765081Y257308D01*
X765106Y257200D01*
X765127Y257091D01*
X765144Y256982D01*
X765158Y256872D01*
X765167Y256761D01*
X765173Y256651D01*
X765175Y256540D01*
X765173Y256429D01*
X765167Y256319D01*
X765158Y256208D01*
X765144Y256098D01*
X765127Y255989D01*
X765106Y255880D01*
X765081Y255772D01*
X765052Y255665D01*
X765020Y255559D01*
X764984Y255454D01*
X764944Y255351D01*
X764901Y255249D01*
X764854Y255148D01*
X764803Y255049D01*
X764750Y254952D01*
X764693Y254858D01*
X764632Y254765D01*
X764569Y254674D01*
X764502Y254585D01*
X764432Y254499D01*
X764359Y254416D01*
X764284Y254334D01*
X764206Y254256D01*
X764124Y254181D01*
X764041Y254108D01*
X763955Y254038D01*
X763866Y253971D01*
X763775Y253908D01*
X763682Y253847D01*
X763588Y253790D01*
X763491Y253737D01*
X763392Y253686D01*
X763291Y253639D01*
X763189Y253596D01*
X763086Y253556D01*
X762981Y253520D01*
X762875Y253488D01*
X762768Y253459D01*
X762660Y253434D01*
X762551Y253413D01*
X762442Y253396D01*
X762332Y253382D01*
X762221Y253373D01*
X762111Y253367D01*
X762000Y253365D01*
X758825Y253365D01*
X758685Y253367D01*
X758545Y253373D01*
X758405Y253382D01*
X758266Y253396D01*
X758127Y253413D01*
X757989Y253434D01*
X757851Y253459D01*
X757714Y253488D01*
X757578Y253520D01*
X757443Y253557D01*
X757309Y253597D01*
X757176Y253640D01*
X757044Y253688D01*
X756913Y253738D01*
X756784Y253793D01*
X756657Y253851D01*
X756531Y253912D01*
X756407Y253977D01*
X756285Y254046D01*
X756165Y254117D01*
X756047Y254192D01*
X755930Y254270D01*
X755816Y254352D01*
X755705Y254436D01*
X755596Y254524D01*
X755489Y254614D01*
X755384Y254708D01*
X755283Y254804D01*
X755184Y254903D01*
X755088Y255004D01*
X754994Y255109D01*
X754904Y255216D01*
X754816Y255325D01*
X754732Y255436D01*
X754650Y255550D01*
X754572Y255667D01*
X754497Y255785D01*
X754426Y255905D01*
X754357Y256027D01*
X754292Y256151D01*
X754231Y256277D01*
X754173Y256404D01*
X754118Y256533D01*
X754068Y256664D01*
X754020Y256796D01*
X753977Y256929D01*
X753937Y257063D01*
X753900Y257198D01*
X753868Y257334D01*
X753839Y257471D01*
X753814Y257609D01*
X753793Y257747D01*
X753776Y257886D01*
X753762Y258025D01*
X753753Y258165D01*
X753747Y258305D01*
X753745Y258445D01*
X765175Y355981D02*
X765173Y356081D01*
X765167Y356180D01*
X765157Y356280D01*
X765144Y356378D01*
X765126Y356477D01*
X765105Y356574D01*
X765080Y356670D01*
X765051Y356766D01*
X765018Y356860D01*
X764982Y356953D01*
X764942Y357044D01*
X764898Y357134D01*
X764851Y357222D01*
X764801Y357308D01*
X764747Y357392D01*
X764690Y357474D01*
X764630Y357553D01*
X764566Y357631D01*
X764500Y357705D01*
X764431Y357777D01*
X764359Y357846D01*
X764285Y357912D01*
X764207Y357976D01*
X764128Y358036D01*
X764046Y358093D01*
X763962Y358147D01*
X763876Y358197D01*
X763788Y358244D01*
X763698Y358288D01*
X763607Y358328D01*
X763514Y358364D01*
X763420Y358397D01*
X763324Y358426D01*
X763228Y358451D01*
X763131Y358472D01*
X763032Y358490D01*
X762934Y358503D01*
X762834Y358513D01*
X762735Y358519D01*
X762635Y358521D01*
X765175Y355981D02*
X765173Y355840D01*
X765168Y355699D01*
X765158Y355558D01*
X765145Y355417D01*
X765129Y355277D01*
X765108Y355137D01*
X765084Y354998D01*
X765056Y354859D01*
X765025Y354722D01*
X764990Y354585D01*
X764952Y354449D01*
X764910Y354314D01*
X764864Y354181D01*
X764815Y354048D01*
X764762Y353917D01*
X764706Y353788D01*
X764647Y353659D01*
X764584Y353533D01*
X764518Y353408D01*
X764449Y353285D01*
X764376Y353164D01*
X764300Y353045D01*
X764221Y352927D01*
X764140Y352812D01*
X764055Y352700D01*
X763967Y352589D01*
X763876Y352481D01*
X763783Y352375D01*
X763686Y352272D01*
X763587Y352171D01*
X756285Y352489D02*
X756185Y352491D01*
X756086Y352497D01*
X755986Y352507D01*
X755888Y352520D01*
X755789Y352538D01*
X755692Y352559D01*
X755596Y352584D01*
X755500Y352613D01*
X755406Y352646D01*
X755313Y352682D01*
X755222Y352722D01*
X755132Y352766D01*
X755044Y352813D01*
X754958Y352863D01*
X754874Y352917D01*
X754792Y352974D01*
X754713Y353034D01*
X754635Y353098D01*
X754561Y353164D01*
X754489Y353233D01*
X754420Y353305D01*
X754354Y353379D01*
X754290Y353457D01*
X754230Y353536D01*
X754173Y353618D01*
X754119Y353702D01*
X754069Y353788D01*
X754022Y353876D01*
X753978Y353966D01*
X753938Y354057D01*
X753902Y354150D01*
X753869Y354244D01*
X753840Y354340D01*
X753815Y354436D01*
X753794Y354533D01*
X753776Y354632D01*
X753763Y354730D01*
X753753Y354830D01*
X753747Y354929D01*
X753745Y355029D01*
X753747Y355162D01*
X753752Y355295D01*
X753762Y355428D01*
X753775Y355561D01*
X753792Y355693D01*
X753812Y355825D01*
X753836Y355956D01*
X753864Y356086D01*
X753895Y356216D01*
X753930Y356344D01*
X753969Y356472D01*
X754011Y356598D01*
X754057Y356723D01*
X754106Y356847D01*
X754158Y356970D01*
X754214Y357091D01*
X754274Y357210D01*
X754336Y357328D01*
X754402Y357443D01*
X754471Y357557D01*
X754544Y357669D01*
X754619Y357779D01*
X754698Y357887D01*
X758508Y353758D02*
X758456Y353674D01*
X758401Y353591D01*
X758342Y353511D01*
X758281Y353433D01*
X758217Y353358D01*
X758149Y353285D01*
X758079Y353214D01*
X758007Y353147D01*
X757932Y353082D01*
X757854Y353020D01*
X757774Y352961D01*
X757692Y352905D01*
X757608Y352853D01*
X757522Y352804D01*
X757434Y352758D01*
X757344Y352715D01*
X757253Y352676D01*
X757160Y352641D01*
X757066Y352609D01*
X756971Y352581D01*
X756875Y352556D01*
X756778Y352536D01*
X756680Y352518D01*
X756582Y352505D01*
X756483Y352496D01*
X756384Y352490D01*
X756285Y352488D01*
X760412Y357251D02*
X760464Y357335D01*
X760519Y357418D01*
X760578Y357498D01*
X760639Y357576D01*
X760703Y357651D01*
X760771Y357724D01*
X760841Y357795D01*
X760913Y357862D01*
X760988Y357927D01*
X761066Y357989D01*
X761146Y358048D01*
X761228Y358104D01*
X761312Y358156D01*
X761398Y358205D01*
X761486Y358251D01*
X761576Y358294D01*
X761667Y358333D01*
X761760Y358368D01*
X761854Y358400D01*
X761949Y358428D01*
X762045Y358453D01*
X762142Y358473D01*
X762240Y358491D01*
X762338Y358504D01*
X762437Y358513D01*
X762536Y358519D01*
X762635Y358521D01*
X760413Y357251D02*
X758508Y353759D01*
X753745Y363601D02*
X765175Y363601D01*
X753745Y363601D02*
X753745Y366776D01*
X753747Y366887D01*
X753753Y366997D01*
X753762Y367108D01*
X753776Y367218D01*
X753793Y367327D01*
X753814Y367436D01*
X753839Y367544D01*
X753868Y367651D01*
X753900Y367757D01*
X753936Y367862D01*
X753976Y367965D01*
X754019Y368067D01*
X754066Y368168D01*
X754117Y368267D01*
X754170Y368364D01*
X754227Y368458D01*
X754288Y368551D01*
X754351Y368642D01*
X754418Y368731D01*
X754488Y368817D01*
X754561Y368900D01*
X754636Y368982D01*
X754714Y369060D01*
X754796Y369135D01*
X754879Y369208D01*
X754965Y369278D01*
X755054Y369345D01*
X755145Y369408D01*
X755238Y369469D01*
X755333Y369526D01*
X755429Y369579D01*
X755528Y369630D01*
X755629Y369677D01*
X755731Y369720D01*
X755834Y369760D01*
X755939Y369796D01*
X756045Y369828D01*
X756152Y369857D01*
X756260Y369882D01*
X756369Y369903D01*
X756478Y369920D01*
X756588Y369934D01*
X756699Y369943D01*
X756809Y369949D01*
X756920Y369951D01*
X762000Y369951D01*
X762111Y369949D01*
X762221Y369943D01*
X762332Y369934D01*
X762442Y369920D01*
X762551Y369903D01*
X762660Y369882D01*
X762768Y369857D01*
X762875Y369828D01*
X762981Y369796D01*
X763086Y369760D01*
X763189Y369720D01*
X763291Y369677D01*
X763392Y369630D01*
X763491Y369579D01*
X763588Y369526D01*
X763682Y369469D01*
X763775Y369408D01*
X763866Y369345D01*
X763955Y369278D01*
X764041Y369208D01*
X764124Y369135D01*
X764206Y369060D01*
X764284Y368982D01*
X764359Y368900D01*
X764432Y368817D01*
X764502Y368731D01*
X764569Y368642D01*
X764632Y368551D01*
X764693Y368458D01*
X764750Y368364D01*
X764803Y368267D01*
X764854Y368168D01*
X764901Y368067D01*
X764944Y367965D01*
X764984Y367862D01*
X765020Y367757D01*
X765052Y367651D01*
X765081Y367544D01*
X765106Y367436D01*
X765127Y367327D01*
X765144Y367218D01*
X765158Y367108D01*
X765167Y366997D01*
X765173Y366887D01*
X765175Y366776D01*
X765175Y363601D01*
X765175Y377915D02*
X765175Y380455D01*
X765175Y377915D02*
X765173Y377815D01*
X765167Y377716D01*
X765157Y377616D01*
X765144Y377518D01*
X765126Y377419D01*
X765105Y377322D01*
X765080Y377226D01*
X765051Y377130D01*
X765018Y377036D01*
X764982Y376943D01*
X764942Y376852D01*
X764898Y376762D01*
X764851Y376674D01*
X764801Y376588D01*
X764747Y376504D01*
X764690Y376422D01*
X764630Y376343D01*
X764566Y376265D01*
X764500Y376191D01*
X764431Y376119D01*
X764359Y376050D01*
X764285Y375984D01*
X764207Y375920D01*
X764128Y375860D01*
X764046Y375803D01*
X763962Y375749D01*
X763876Y375699D01*
X763788Y375652D01*
X763698Y375608D01*
X763607Y375568D01*
X763514Y375532D01*
X763420Y375499D01*
X763324Y375470D01*
X763228Y375445D01*
X763131Y375424D01*
X763032Y375406D01*
X762934Y375393D01*
X762834Y375383D01*
X762735Y375377D01*
X762635Y375375D01*
X756285Y375375D01*
X756185Y375377D01*
X756086Y375383D01*
X755986Y375393D01*
X755888Y375406D01*
X755789Y375424D01*
X755692Y375445D01*
X755596Y375470D01*
X755500Y375499D01*
X755406Y375532D01*
X755313Y375568D01*
X755222Y375608D01*
X755132Y375652D01*
X755044Y375699D01*
X754958Y375749D01*
X754874Y375803D01*
X754792Y375860D01*
X754713Y375920D01*
X754635Y375984D01*
X754561Y376050D01*
X754489Y376119D01*
X754420Y376191D01*
X754354Y376265D01*
X754290Y376343D01*
X754230Y376422D01*
X754173Y376504D01*
X754119Y376588D01*
X754069Y376674D01*
X754022Y376762D01*
X753978Y376852D01*
X753938Y376943D01*
X753902Y377036D01*
X753869Y377130D01*
X753840Y377226D01*
X753815Y377322D01*
X753794Y377419D01*
X753776Y377518D01*
X753763Y377616D01*
X753753Y377716D01*
X753747Y377815D01*
X753745Y377915D01*
X753745Y380455D01*
X753745Y385445D02*
X765175Y385445D01*
X760095Y389255D02*
X753745Y385445D01*
X760095Y389255D02*
X753745Y393065D01*
X765175Y393065D01*
D16*
X704850Y-7620D02*
X692150Y-7620D01*
X698500Y-1270D02*
X698500Y-13970D01*
D13*
X590550Y-38100D02*
X590571Y-36386D01*
X590634Y-34673D01*
X590739Y-32962D01*
X590886Y-31254D01*
X591075Y-29550D01*
X591306Y-27851D01*
X591578Y-26158D01*
X591892Y-24473D01*
X592247Y-22796D01*
X592643Y-21128D01*
X593080Y-19470D01*
X593558Y-17824D01*
X594075Y-16189D01*
X594633Y-14568D01*
X595230Y-12961D01*
X595867Y-11370D01*
X596542Y-9794D01*
X597256Y-8235D01*
X598008Y-6695D01*
X598798Y-5173D01*
X599624Y-3671D01*
X600488Y-2190D01*
X601387Y-730D01*
X602322Y707D01*
X603292Y2120D01*
X604296Y3510D01*
X605334Y4874D01*
X606405Y6212D01*
X607509Y7524D01*
X608645Y8808D01*
X609811Y10064D01*
X611009Y11291D01*
X612236Y12489D01*
X613492Y13655D01*
X614776Y14791D01*
X616088Y15895D01*
X617426Y16966D01*
X618790Y18004D01*
X620180Y19008D01*
X621593Y19978D01*
X623030Y20913D01*
X624490Y21812D01*
X625971Y22676D01*
X627473Y23502D01*
X628995Y24292D01*
X630535Y25044D01*
X632094Y25758D01*
X633670Y26433D01*
X635261Y27070D01*
X636868Y27667D01*
X638489Y28225D01*
X640124Y28742D01*
X641770Y29220D01*
X643428Y29657D01*
X645096Y30053D01*
X646773Y30408D01*
X648458Y30722D01*
X650151Y30994D01*
X651850Y31225D01*
X653554Y31414D01*
X655262Y31561D01*
X656973Y31666D01*
X658686Y31729D01*
X660400Y31750D01*
X662114Y31729D01*
X663827Y31666D01*
X665538Y31561D01*
X667246Y31414D01*
X668950Y31225D01*
X670649Y30994D01*
X672342Y30722D01*
X674027Y30408D01*
X675704Y30053D01*
X677372Y29657D01*
X679030Y29220D01*
X680676Y28742D01*
X682311Y28225D01*
X683932Y27667D01*
X685539Y27070D01*
X687130Y26433D01*
X688706Y25758D01*
X690265Y25044D01*
X691805Y24292D01*
X693327Y23502D01*
X694829Y22676D01*
X696310Y21812D01*
X697770Y20913D01*
X699207Y19978D01*
X700620Y19008D01*
X702010Y18004D01*
X703374Y16966D01*
X704712Y15895D01*
X706024Y14791D01*
X707308Y13655D01*
X708564Y12489D01*
X709791Y11291D01*
X710989Y10064D01*
X712155Y8808D01*
X713291Y7524D01*
X714395Y6212D01*
X715466Y4874D01*
X716504Y3510D01*
X717508Y2120D01*
X718478Y707D01*
X719413Y-730D01*
X720312Y-2190D01*
X721176Y-3671D01*
X722002Y-5173D01*
X722792Y-6695D01*
X723544Y-8235D01*
X724258Y-9794D01*
X724933Y-11370D01*
X725570Y-12961D01*
X726167Y-14568D01*
X726725Y-16189D01*
X727242Y-17824D01*
X727720Y-19470D01*
X728157Y-21128D01*
X728553Y-22796D01*
X728908Y-24473D01*
X729222Y-26158D01*
X729494Y-27851D01*
X729725Y-29550D01*
X729914Y-31254D01*
X730061Y-32962D01*
X730166Y-34673D01*
X730229Y-36386D01*
X730250Y-38100D01*
X730229Y-39814D01*
X730166Y-41527D01*
X730061Y-43238D01*
X729914Y-44946D01*
X729725Y-46650D01*
X729494Y-48349D01*
X729222Y-50042D01*
X728908Y-51727D01*
X728553Y-53404D01*
X728157Y-55072D01*
X727720Y-56730D01*
X727242Y-58376D01*
X726725Y-60011D01*
X726167Y-61632D01*
X725570Y-63239D01*
X724933Y-64830D01*
X724258Y-66406D01*
X723544Y-67965D01*
X722792Y-69505D01*
X722002Y-71027D01*
X721176Y-72529D01*
X720312Y-74010D01*
X719413Y-75470D01*
X718478Y-76907D01*
X717508Y-78320D01*
X716504Y-79710D01*
X715466Y-81074D01*
X714395Y-82412D01*
X713291Y-83724D01*
X712155Y-85008D01*
X710989Y-86264D01*
X709791Y-87491D01*
X708564Y-88689D01*
X707308Y-89855D01*
X706024Y-90991D01*
X704712Y-92095D01*
X703374Y-93166D01*
X702010Y-94204D01*
X700620Y-95208D01*
X699207Y-96178D01*
X697770Y-97113D01*
X696310Y-98012D01*
X694829Y-98876D01*
X693327Y-99702D01*
X691805Y-100492D01*
X690265Y-101244D01*
X688706Y-101958D01*
X687130Y-102633D01*
X685539Y-103270D01*
X683932Y-103867D01*
X682311Y-104425D01*
X680676Y-104942D01*
X679030Y-105420D01*
X677372Y-105857D01*
X675704Y-106253D01*
X674027Y-106608D01*
X672342Y-106922D01*
X670649Y-107194D01*
X668950Y-107425D01*
X667246Y-107614D01*
X665538Y-107761D01*
X663827Y-107866D01*
X662114Y-107929D01*
X660400Y-107950D01*
X658686Y-107929D01*
X656973Y-107866D01*
X655262Y-107761D01*
X653554Y-107614D01*
X651850Y-107425D01*
X650151Y-107194D01*
X648458Y-106922D01*
X646773Y-106608D01*
X645096Y-106253D01*
X643428Y-105857D01*
X641770Y-105420D01*
X640124Y-104942D01*
X638489Y-104425D01*
X636868Y-103867D01*
X635261Y-103270D01*
X633670Y-102633D01*
X632094Y-101958D01*
X630535Y-101244D01*
X628995Y-100492D01*
X627473Y-99702D01*
X625971Y-98876D01*
X624490Y-98012D01*
X623030Y-97113D01*
X621593Y-96178D01*
X620180Y-95208D01*
X618790Y-94204D01*
X617426Y-93166D01*
X616088Y-92095D01*
X614776Y-90991D01*
X613492Y-89855D01*
X612236Y-88689D01*
X611009Y-87491D01*
X609811Y-86264D01*
X608645Y-85008D01*
X607509Y-83724D01*
X606405Y-82412D01*
X605334Y-81074D01*
X604296Y-79710D01*
X603292Y-78320D01*
X602322Y-76907D01*
X601387Y-75470D01*
X600488Y-74010D01*
X599624Y-72529D01*
X598798Y-71027D01*
X598008Y-69505D01*
X597256Y-67965D01*
X596542Y-66406D01*
X595867Y-64830D01*
X595230Y-63239D01*
X594633Y-61632D01*
X594075Y-60011D01*
X593558Y-58376D01*
X593080Y-56730D01*
X592643Y-55072D01*
X592247Y-53404D01*
X591892Y-51727D01*
X591578Y-50042D01*
X591306Y-48349D01*
X591075Y-46650D01*
X590886Y-44946D01*
X590739Y-43238D01*
X590634Y-41527D01*
X590571Y-39814D01*
X590550Y-38100D01*
X647700Y-38100D02*
X647704Y-37788D01*
X647715Y-37477D01*
X647734Y-37166D01*
X647761Y-36855D01*
X647796Y-36545D01*
X647837Y-36237D01*
X647887Y-35929D01*
X647944Y-35622D01*
X648009Y-35317D01*
X648081Y-35014D01*
X648160Y-34713D01*
X648247Y-34413D01*
X648341Y-34116D01*
X648442Y-33821D01*
X648551Y-33529D01*
X648667Y-33240D01*
X648790Y-32953D01*
X648919Y-32670D01*
X649056Y-32390D01*
X649200Y-32113D01*
X649350Y-31840D01*
X649507Y-31571D01*
X649670Y-31306D01*
X649840Y-31044D01*
X650017Y-30787D01*
X650199Y-30535D01*
X650388Y-30287D01*
X650583Y-30043D01*
X650783Y-29805D01*
X650990Y-29571D01*
X651202Y-29343D01*
X651420Y-29120D01*
X651643Y-28902D01*
X651871Y-28690D01*
X652105Y-28483D01*
X652343Y-28283D01*
X652587Y-28088D01*
X652835Y-27899D01*
X653087Y-27717D01*
X653344Y-27540D01*
X653606Y-27370D01*
X653871Y-27207D01*
X654140Y-27050D01*
X654413Y-26900D01*
X654690Y-26756D01*
X654970Y-26619D01*
X655253Y-26490D01*
X655540Y-26367D01*
X655829Y-26251D01*
X656121Y-26142D01*
X656416Y-26041D01*
X656713Y-25947D01*
X657013Y-25860D01*
X657314Y-25781D01*
X657617Y-25709D01*
X657922Y-25644D01*
X658229Y-25587D01*
X658537Y-25537D01*
X658845Y-25496D01*
X659155Y-25461D01*
X659466Y-25434D01*
X659777Y-25415D01*
X660088Y-25404D01*
X660400Y-25400D01*
X660712Y-25404D01*
X661023Y-25415D01*
X661334Y-25434D01*
X661645Y-25461D01*
X661955Y-25496D01*
X662263Y-25537D01*
X662571Y-25587D01*
X662878Y-25644D01*
X663183Y-25709D01*
X663486Y-25781D01*
X663787Y-25860D01*
X664087Y-25947D01*
X664384Y-26041D01*
X664679Y-26142D01*
X664971Y-26251D01*
X665260Y-26367D01*
X665547Y-26490D01*
X665830Y-26619D01*
X666110Y-26756D01*
X666387Y-26900D01*
X666660Y-27050D01*
X666929Y-27207D01*
X667194Y-27370D01*
X667456Y-27540D01*
X667713Y-27717D01*
X667965Y-27899D01*
X668213Y-28088D01*
X668457Y-28283D01*
X668695Y-28483D01*
X668929Y-28690D01*
X669157Y-28902D01*
X669380Y-29120D01*
X669598Y-29343D01*
X669810Y-29571D01*
X670017Y-29805D01*
X670217Y-30043D01*
X670412Y-30287D01*
X670601Y-30535D01*
X670783Y-30787D01*
X670960Y-31044D01*
X671130Y-31306D01*
X671293Y-31571D01*
X671450Y-31840D01*
X671600Y-32113D01*
X671744Y-32390D01*
X671881Y-32670D01*
X672010Y-32953D01*
X672133Y-33240D01*
X672249Y-33529D01*
X672358Y-33821D01*
X672459Y-34116D01*
X672553Y-34413D01*
X672640Y-34713D01*
X672719Y-35014D01*
X672791Y-35317D01*
X672856Y-35622D01*
X672913Y-35929D01*
X672963Y-36237D01*
X673004Y-36545D01*
X673039Y-36855D01*
X673066Y-37166D01*
X673085Y-37477D01*
X673096Y-37788D01*
X673100Y-38100D01*
X673096Y-38412D01*
X673085Y-38723D01*
X673066Y-39034D01*
X673039Y-39345D01*
X673004Y-39655D01*
X672963Y-39963D01*
X672913Y-40271D01*
X672856Y-40578D01*
X672791Y-40883D01*
X672719Y-41186D01*
X672640Y-41487D01*
X672553Y-41787D01*
X672459Y-42084D01*
X672358Y-42379D01*
X672249Y-42671D01*
X672133Y-42960D01*
X672010Y-43247D01*
X671881Y-43530D01*
X671744Y-43810D01*
X671600Y-44087D01*
X671450Y-44360D01*
X671293Y-44629D01*
X671130Y-44894D01*
X670960Y-45156D01*
X670783Y-45413D01*
X670601Y-45665D01*
X670412Y-45913D01*
X670217Y-46157D01*
X670017Y-46395D01*
X669810Y-46629D01*
X669598Y-46857D01*
X669380Y-47080D01*
X669157Y-47298D01*
X668929Y-47510D01*
X668695Y-47717D01*
X668457Y-47917D01*
X668213Y-48112D01*
X667965Y-48301D01*
X667713Y-48483D01*
X667456Y-48660D01*
X667194Y-48830D01*
X666929Y-48993D01*
X666660Y-49150D01*
X666387Y-49300D01*
X666110Y-49444D01*
X665830Y-49581D01*
X665547Y-49710D01*
X665260Y-49833D01*
X664971Y-49949D01*
X664679Y-50058D01*
X664384Y-50159D01*
X664087Y-50253D01*
X663787Y-50340D01*
X663486Y-50419D01*
X663183Y-50491D01*
X662878Y-50556D01*
X662571Y-50613D01*
X662263Y-50663D01*
X661955Y-50704D01*
X661645Y-50739D01*
X661334Y-50766D01*
X661023Y-50785D01*
X660712Y-50796D01*
X660400Y-50800D01*
X660088Y-50796D01*
X659777Y-50785D01*
X659466Y-50766D01*
X659155Y-50739D01*
X658845Y-50704D01*
X658537Y-50663D01*
X658229Y-50613D01*
X657922Y-50556D01*
X657617Y-50491D01*
X657314Y-50419D01*
X657013Y-50340D01*
X656713Y-50253D01*
X656416Y-50159D01*
X656121Y-50058D01*
X655829Y-49949D01*
X655540Y-49833D01*
X655253Y-49710D01*
X654970Y-49581D01*
X654690Y-49444D01*
X654413Y-49300D01*
X654140Y-49150D01*
X653871Y-48993D01*
X653606Y-48830D01*
X653344Y-48660D01*
X653087Y-48483D01*
X652835Y-48301D01*
X652587Y-48112D01*
X652343Y-47917D01*
X652105Y-47717D01*
X651871Y-47510D01*
X651643Y-47298D01*
X651420Y-47080D01*
X651202Y-46857D01*
X650990Y-46629D01*
X650783Y-46395D01*
X650583Y-46157D01*
X650388Y-45913D01*
X650199Y-45665D01*
X650017Y-45413D01*
X649840Y-45156D01*
X649670Y-44894D01*
X649507Y-44629D01*
X649350Y-44360D01*
X649200Y-44087D01*
X649056Y-43810D01*
X648919Y-43530D01*
X648790Y-43247D01*
X648667Y-42960D01*
X648551Y-42671D01*
X648442Y-42379D01*
X648341Y-42084D01*
X648247Y-41787D01*
X648160Y-41487D01*
X648081Y-41186D01*
X648009Y-40883D01*
X647944Y-40578D01*
X647887Y-40271D01*
X647837Y-39963D01*
X647796Y-39655D01*
X647761Y-39345D01*
X647734Y-39034D01*
X647715Y-38723D01*
X647704Y-38412D01*
X647700Y-38100D01*
X685800Y-7620D02*
X685804Y-7308D01*
X685815Y-6997D01*
X685834Y-6686D01*
X685861Y-6375D01*
X685896Y-6065D01*
X685937Y-5757D01*
X685987Y-5449D01*
X686044Y-5142D01*
X686109Y-4837D01*
X686181Y-4534D01*
X686260Y-4233D01*
X686347Y-3933D01*
X686441Y-3636D01*
X686542Y-3341D01*
X686651Y-3049D01*
X686767Y-2760D01*
X686890Y-2473D01*
X687019Y-2190D01*
X687156Y-1910D01*
X687300Y-1633D01*
X687450Y-1360D01*
X687607Y-1091D01*
X687770Y-826D01*
X687940Y-564D01*
X688117Y-307D01*
X688299Y-55D01*
X688488Y193D01*
X688683Y437D01*
X688883Y675D01*
X689090Y909D01*
X689302Y1137D01*
X689520Y1360D01*
X689743Y1578D01*
X689971Y1790D01*
X690205Y1997D01*
X690443Y2197D01*
X690687Y2392D01*
X690935Y2581D01*
X691187Y2763D01*
X691444Y2940D01*
X691706Y3110D01*
X691971Y3273D01*
X692240Y3430D01*
X692513Y3580D01*
X692790Y3724D01*
X693070Y3861D01*
X693353Y3990D01*
X693640Y4113D01*
X693929Y4229D01*
X694221Y4338D01*
X694516Y4439D01*
X694813Y4533D01*
X695113Y4620D01*
X695414Y4699D01*
X695717Y4771D01*
X696022Y4836D01*
X696329Y4893D01*
X696637Y4943D01*
X696945Y4984D01*
X697255Y5019D01*
X697566Y5046D01*
X697877Y5065D01*
X698188Y5076D01*
X698500Y5080D01*
X698812Y5076D01*
X699123Y5065D01*
X699434Y5046D01*
X699745Y5019D01*
X700055Y4984D01*
X700363Y4943D01*
X700671Y4893D01*
X700978Y4836D01*
X701283Y4771D01*
X701586Y4699D01*
X701887Y4620D01*
X702187Y4533D01*
X702484Y4439D01*
X702779Y4338D01*
X703071Y4229D01*
X703360Y4113D01*
X703647Y3990D01*
X703930Y3861D01*
X704210Y3724D01*
X704487Y3580D01*
X704760Y3430D01*
X705029Y3273D01*
X705294Y3110D01*
X705556Y2940D01*
X705813Y2763D01*
X706065Y2581D01*
X706313Y2392D01*
X706557Y2197D01*
X706795Y1997D01*
X707029Y1790D01*
X707257Y1578D01*
X707480Y1360D01*
X707698Y1137D01*
X707910Y909D01*
X708117Y675D01*
X708317Y437D01*
X708512Y193D01*
X708701Y-55D01*
X708883Y-307D01*
X709060Y-564D01*
X709230Y-826D01*
X709393Y-1091D01*
X709550Y-1360D01*
X709700Y-1633D01*
X709844Y-1910D01*
X709981Y-2190D01*
X710110Y-2473D01*
X710233Y-2760D01*
X710349Y-3049D01*
X710458Y-3341D01*
X710559Y-3636D01*
X710653Y-3933D01*
X710740Y-4233D01*
X710819Y-4534D01*
X710891Y-4837D01*
X710956Y-5142D01*
X711013Y-5449D01*
X711063Y-5757D01*
X711104Y-6065D01*
X711139Y-6375D01*
X711166Y-6686D01*
X711185Y-6997D01*
X711196Y-7308D01*
X711200Y-7620D01*
X711196Y-7932D01*
X711185Y-8243D01*
X711166Y-8554D01*
X711139Y-8865D01*
X711104Y-9175D01*
X711063Y-9483D01*
X711013Y-9791D01*
X710956Y-10098D01*
X710891Y-10403D01*
X710819Y-10706D01*
X710740Y-11007D01*
X710653Y-11307D01*
X710559Y-11604D01*
X710458Y-11899D01*
X710349Y-12191D01*
X710233Y-12480D01*
X710110Y-12767D01*
X709981Y-13050D01*
X709844Y-13330D01*
X709700Y-13607D01*
X709550Y-13880D01*
X709393Y-14149D01*
X709230Y-14414D01*
X709060Y-14676D01*
X708883Y-14933D01*
X708701Y-15185D01*
X708512Y-15433D01*
X708317Y-15677D01*
X708117Y-15915D01*
X707910Y-16149D01*
X707698Y-16377D01*
X707480Y-16600D01*
X707257Y-16818D01*
X707029Y-17030D01*
X706795Y-17237D01*
X706557Y-17437D01*
X706313Y-17632D01*
X706065Y-17821D01*
X705813Y-18003D01*
X705556Y-18180D01*
X705294Y-18350D01*
X705029Y-18513D01*
X704760Y-18670D01*
X704487Y-18820D01*
X704210Y-18964D01*
X703930Y-19101D01*
X703647Y-19230D01*
X703360Y-19353D01*
X703071Y-19469D01*
X702779Y-19578D01*
X702484Y-19679D01*
X702187Y-19773D01*
X701887Y-19860D01*
X701586Y-19939D01*
X701283Y-20011D01*
X700978Y-20076D01*
X700671Y-20133D01*
X700363Y-20183D01*
X700055Y-20224D01*
X699745Y-20259D01*
X699434Y-20286D01*
X699123Y-20305D01*
X698812Y-20316D01*
X698500Y-20320D01*
X698188Y-20316D01*
X697877Y-20305D01*
X697566Y-20286D01*
X697255Y-20259D01*
X696945Y-20224D01*
X696637Y-20183D01*
X696329Y-20133D01*
X696022Y-20076D01*
X695717Y-20011D01*
X695414Y-19939D01*
X695113Y-19860D01*
X694813Y-19773D01*
X694516Y-19679D01*
X694221Y-19578D01*
X693929Y-19469D01*
X693640Y-19353D01*
X693353Y-19230D01*
X693070Y-19101D01*
X692790Y-18964D01*
X692513Y-18820D01*
X692240Y-18670D01*
X691971Y-18513D01*
X691706Y-18350D01*
X691444Y-18180D01*
X691187Y-18003D01*
X690935Y-17821D01*
X690687Y-17632D01*
X690443Y-17437D01*
X690205Y-17237D01*
X689971Y-17030D01*
X689743Y-16818D01*
X689520Y-16600D01*
X689302Y-16377D01*
X689090Y-16149D01*
X688883Y-15915D01*
X688683Y-15677D01*
X688488Y-15433D01*
X688299Y-15185D01*
X688117Y-14933D01*
X687940Y-14676D01*
X687770Y-14414D01*
X687607Y-14149D01*
X687450Y-13880D01*
X687300Y-13607D01*
X687156Y-13330D01*
X687019Y-13050D01*
X686890Y-12767D01*
X686767Y-12480D01*
X686651Y-12191D01*
X686542Y-11899D01*
X686441Y-11604D01*
X686347Y-11307D01*
X686260Y-11007D01*
X686181Y-10706D01*
X686109Y-10403D01*
X686044Y-10098D01*
X685987Y-9791D01*
X685937Y-9483D01*
X685896Y-9175D01*
X685861Y-8865D01*
X685834Y-8554D01*
X685815Y-8243D01*
X685804Y-7932D01*
X685800Y-7620D01*
D10*
X686435Y38735D02*
X689610Y38735D01*
X689721Y38733D01*
X689831Y38727D01*
X689942Y38718D01*
X690052Y38704D01*
X690161Y38687D01*
X690270Y38666D01*
X690378Y38641D01*
X690485Y38612D01*
X690591Y38580D01*
X690696Y38544D01*
X690799Y38504D01*
X690901Y38461D01*
X691002Y38414D01*
X691101Y38363D01*
X691198Y38310D01*
X691292Y38253D01*
X691385Y38192D01*
X691476Y38129D01*
X691565Y38062D01*
X691651Y37992D01*
X691734Y37919D01*
X691816Y37844D01*
X691894Y37766D01*
X691969Y37684D01*
X692042Y37601D01*
X692112Y37515D01*
X692179Y37426D01*
X692242Y37335D01*
X692303Y37242D01*
X692360Y37147D01*
X692413Y37051D01*
X692464Y36952D01*
X692511Y36851D01*
X692554Y36749D01*
X692594Y36646D01*
X692630Y36541D01*
X692662Y36435D01*
X692691Y36328D01*
X692716Y36220D01*
X692737Y36111D01*
X692754Y36002D01*
X692768Y35892D01*
X692777Y35781D01*
X692783Y35671D01*
X692785Y35560D01*
X692783Y35449D01*
X692777Y35339D01*
X692768Y35228D01*
X692754Y35118D01*
X692737Y35009D01*
X692716Y34900D01*
X692691Y34792D01*
X692662Y34685D01*
X692630Y34579D01*
X692594Y34474D01*
X692554Y34371D01*
X692511Y34269D01*
X692464Y34168D01*
X692413Y34069D01*
X692360Y33972D01*
X692303Y33878D01*
X692242Y33785D01*
X692179Y33694D01*
X692112Y33605D01*
X692042Y33519D01*
X691969Y33436D01*
X691894Y33354D01*
X691816Y33276D01*
X691734Y33201D01*
X691651Y33128D01*
X691565Y33058D01*
X691476Y32991D01*
X691385Y32928D01*
X691292Y32867D01*
X691198Y32810D01*
X691101Y32757D01*
X691002Y32706D01*
X690901Y32659D01*
X690799Y32616D01*
X690696Y32576D01*
X690591Y32540D01*
X690485Y32508D01*
X690378Y32479D01*
X690270Y32454D01*
X690161Y32433D01*
X690052Y32416D01*
X689942Y32402D01*
X689831Y32393D01*
X689721Y32387D01*
X689610Y32385D01*
X686435Y32385D01*
X686435Y43815D01*
X689610Y43815D01*
X689710Y43813D01*
X689809Y43807D01*
X689909Y43797D01*
X690007Y43784D01*
X690106Y43766D01*
X690203Y43745D01*
X690299Y43720D01*
X690395Y43691D01*
X690489Y43658D01*
X690582Y43622D01*
X690673Y43582D01*
X690763Y43538D01*
X690851Y43491D01*
X690937Y43441D01*
X691021Y43387D01*
X691103Y43330D01*
X691182Y43270D01*
X691260Y43206D01*
X691334Y43140D01*
X691406Y43071D01*
X691475Y42999D01*
X691541Y42925D01*
X691605Y42847D01*
X691665Y42768D01*
X691722Y42686D01*
X691776Y42602D01*
X691826Y42516D01*
X691873Y42428D01*
X691917Y42338D01*
X691957Y42247D01*
X691993Y42154D01*
X692026Y42060D01*
X692055Y41964D01*
X692080Y41868D01*
X692101Y41771D01*
X692119Y41672D01*
X692132Y41574D01*
X692142Y41474D01*
X692148Y41375D01*
X692150Y41275D01*
X692148Y41175D01*
X692142Y41076D01*
X692132Y40976D01*
X692119Y40878D01*
X692101Y40779D01*
X692080Y40682D01*
X692055Y40586D01*
X692026Y40490D01*
X691993Y40396D01*
X691957Y40303D01*
X691917Y40212D01*
X691873Y40122D01*
X691826Y40034D01*
X691776Y39948D01*
X691722Y39864D01*
X691665Y39782D01*
X691605Y39703D01*
X691541Y39625D01*
X691475Y39551D01*
X691406Y39479D01*
X691334Y39410D01*
X691260Y39344D01*
X691182Y39280D01*
X691103Y39220D01*
X691021Y39163D01*
X690937Y39109D01*
X690851Y39059D01*
X690763Y39012D01*
X690673Y38968D01*
X690582Y38928D01*
X690489Y38892D01*
X690395Y38859D01*
X690299Y38830D01*
X690203Y38805D01*
X690106Y38784D01*
X690007Y38766D01*
X689909Y38753D01*
X689809Y38743D01*
X689710Y38737D01*
X689610Y38735D01*
X697675Y35560D02*
X697675Y43815D01*
X697675Y35560D02*
X697677Y35449D01*
X697683Y35339D01*
X697692Y35228D01*
X697706Y35118D01*
X697723Y35009D01*
X697744Y34900D01*
X697769Y34792D01*
X697798Y34685D01*
X697830Y34579D01*
X697866Y34474D01*
X697906Y34371D01*
X697949Y34269D01*
X697996Y34168D01*
X698047Y34069D01*
X698100Y33973D01*
X698157Y33878D01*
X698218Y33785D01*
X698281Y33694D01*
X698348Y33605D01*
X698418Y33519D01*
X698491Y33436D01*
X698566Y33354D01*
X698644Y33276D01*
X698726Y33201D01*
X698809Y33128D01*
X698895Y33058D01*
X698984Y32991D01*
X699075Y32928D01*
X699168Y32867D01*
X699263Y32810D01*
X699359Y32757D01*
X699458Y32706D01*
X699559Y32659D01*
X699661Y32616D01*
X699764Y32576D01*
X699869Y32540D01*
X699975Y32508D01*
X700082Y32479D01*
X700190Y32454D01*
X700299Y32433D01*
X700408Y32416D01*
X700518Y32402D01*
X700629Y32393D01*
X700739Y32387D01*
X700850Y32385D01*
X700961Y32387D01*
X701071Y32393D01*
X701182Y32402D01*
X701292Y32416D01*
X701401Y32433D01*
X701510Y32454D01*
X701618Y32479D01*
X701725Y32508D01*
X701831Y32540D01*
X701936Y32576D01*
X702039Y32616D01*
X702141Y32659D01*
X702242Y32706D01*
X702341Y32757D01*
X702438Y32810D01*
X702532Y32867D01*
X702625Y32928D01*
X702716Y32991D01*
X702805Y33058D01*
X702891Y33128D01*
X702974Y33201D01*
X703056Y33276D01*
X703134Y33354D01*
X703209Y33436D01*
X703282Y33519D01*
X703352Y33605D01*
X703419Y33694D01*
X703482Y33785D01*
X703543Y33878D01*
X703600Y33972D01*
X703653Y34069D01*
X703704Y34168D01*
X703751Y34269D01*
X703794Y34371D01*
X703834Y34474D01*
X703870Y34579D01*
X703902Y34685D01*
X703931Y34792D01*
X703956Y34900D01*
X703977Y35009D01*
X703994Y35118D01*
X704008Y35228D01*
X704017Y35339D01*
X704023Y35449D01*
X704025Y35560D01*
X704025Y43815D01*
X709105Y43815D02*
X715455Y43815D01*
X709105Y32385D01*
X715455Y32385D01*
X719773Y43815D02*
X726123Y43815D01*
X719773Y32385D01*
X726123Y32385D01*
X731228Y32385D02*
X736308Y32385D01*
X731228Y32385D02*
X731228Y43815D01*
X736308Y43815D01*
X735038Y38735D02*
X731228Y38735D01*
X741191Y43815D02*
X741191Y32385D01*
X741191Y43815D02*
X744366Y43815D01*
X744477Y43813D01*
X744587Y43807D01*
X744698Y43798D01*
X744808Y43784D01*
X744917Y43767D01*
X745026Y43746D01*
X745134Y43721D01*
X745241Y43692D01*
X745347Y43660D01*
X745452Y43624D01*
X745555Y43584D01*
X745657Y43541D01*
X745758Y43494D01*
X745857Y43443D01*
X745954Y43390D01*
X746048Y43333D01*
X746141Y43272D01*
X746232Y43209D01*
X746321Y43142D01*
X746407Y43072D01*
X746490Y42999D01*
X746572Y42924D01*
X746650Y42846D01*
X746725Y42764D01*
X746798Y42681D01*
X746868Y42595D01*
X746935Y42506D01*
X746998Y42415D01*
X747059Y42322D01*
X747116Y42227D01*
X747169Y42131D01*
X747220Y42032D01*
X747267Y41931D01*
X747310Y41829D01*
X747350Y41726D01*
X747386Y41621D01*
X747418Y41515D01*
X747447Y41408D01*
X747472Y41300D01*
X747493Y41191D01*
X747510Y41082D01*
X747524Y40972D01*
X747533Y40861D01*
X747539Y40751D01*
X747541Y40640D01*
X747539Y40529D01*
X747533Y40419D01*
X747524Y40308D01*
X747510Y40198D01*
X747493Y40089D01*
X747472Y39980D01*
X747447Y39872D01*
X747418Y39765D01*
X747386Y39659D01*
X747350Y39554D01*
X747310Y39451D01*
X747267Y39349D01*
X747220Y39248D01*
X747169Y39149D01*
X747116Y39052D01*
X747059Y38958D01*
X746998Y38865D01*
X746935Y38774D01*
X746868Y38685D01*
X746798Y38599D01*
X746725Y38516D01*
X746650Y38434D01*
X746572Y38356D01*
X746490Y38281D01*
X746407Y38208D01*
X746321Y38138D01*
X746232Y38071D01*
X746141Y38008D01*
X746048Y37947D01*
X745954Y37890D01*
X745857Y37837D01*
X745758Y37786D01*
X745657Y37739D01*
X745555Y37696D01*
X745452Y37656D01*
X745347Y37620D01*
X745241Y37588D01*
X745134Y37559D01*
X745026Y37534D01*
X744917Y37513D01*
X744808Y37496D01*
X744698Y37482D01*
X744587Y37473D01*
X744477Y37467D01*
X744366Y37465D01*
X741191Y37465D01*
X745001Y37465D02*
X747541Y32385D01*
D13*
X622300Y645160D02*
X621928Y645165D01*
X621557Y645178D01*
X621186Y645201D01*
X620816Y645232D01*
X620447Y645273D01*
X620079Y645323D01*
X619712Y645381D01*
X619347Y645449D01*
X618983Y645525D01*
X618622Y645610D01*
X618263Y645705D01*
X617906Y645807D01*
X617551Y645919D01*
X617200Y646039D01*
X616851Y646167D01*
X616506Y646304D01*
X616164Y646450D01*
X615826Y646603D01*
X615492Y646765D01*
X615162Y646935D01*
X614836Y647113D01*
X614514Y647299D01*
X614197Y647493D01*
X613885Y647694D01*
X613578Y647903D01*
X613276Y648119D01*
X612979Y648343D01*
X612688Y648573D01*
X612403Y648811D01*
X612123Y649056D01*
X611850Y649307D01*
X611583Y649565D01*
X611322Y649829D01*
X611067Y650100D01*
X610820Y650377D01*
X610579Y650660D01*
X610345Y650948D01*
X610118Y651242D01*
X609899Y651542D01*
X622300Y645160D02*
X622672Y645165D01*
X623043Y645178D01*
X623415Y645201D01*
X623785Y645233D01*
X624155Y645273D01*
X624523Y645323D01*
X624891Y645382D01*
X625256Y645449D01*
X625620Y645526D01*
X625982Y645612D01*
X626342Y645706D01*
X626699Y645809D01*
X627054Y645920D01*
X627406Y646041D01*
X627755Y646170D01*
X628100Y646307D01*
X628442Y646453D01*
X628781Y646607D01*
X629116Y646769D01*
X629446Y646939D01*
X629772Y647118D01*
X630094Y647304D01*
X630412Y647498D01*
X630724Y647700D01*
X631031Y647909D01*
X631333Y648126D01*
X631630Y648350D01*
X631922Y648581D01*
X632207Y648819D01*
X632487Y649065D01*
X632760Y649317D01*
X633028Y649575D01*
X633288Y649840D01*
X633543Y650111D01*
X633791Y650389D01*
X634031Y650672D01*
X634265Y650961D01*
X634492Y651256D01*
X622300Y675640D02*
X621935Y675636D01*
X621570Y675623D01*
X621206Y675601D01*
X620843Y675570D01*
X620480Y675531D01*
X620118Y675483D01*
X619758Y675426D01*
X619399Y675361D01*
X619041Y675288D01*
X618686Y675205D01*
X618333Y675115D01*
X617981Y675015D01*
X617633Y674908D01*
X617287Y674792D01*
X616944Y674668D01*
X616604Y674535D01*
X616267Y674395D01*
X615934Y674247D01*
X615604Y674090D01*
X615278Y673926D01*
X614956Y673754D01*
X614639Y673574D01*
X614326Y673387D01*
X614017Y673193D01*
X613713Y672991D01*
X613414Y672781D01*
X613120Y672565D01*
X612832Y672342D01*
X612549Y672112D01*
X612271Y671875D01*
X611999Y671632D01*
X611733Y671382D01*
X611473Y671126D01*
X611220Y670863D01*
X610972Y670595D01*
X610732Y670321D01*
X610497Y670041D01*
X610270Y669756D01*
X622300Y675640D02*
X622665Y675636D01*
X623030Y675623D01*
X623394Y675601D01*
X623757Y675570D01*
X624120Y675531D01*
X624482Y675483D01*
X624842Y675426D01*
X625201Y675361D01*
X625559Y675288D01*
X625914Y675205D01*
X626267Y675115D01*
X626619Y675015D01*
X626967Y674908D01*
X627313Y674792D01*
X627656Y674668D01*
X627996Y674535D01*
X628333Y674395D01*
X628666Y674247D01*
X628996Y674090D01*
X629322Y673926D01*
X629644Y673754D01*
X629961Y673574D01*
X630274Y673387D01*
X630583Y673193D01*
X630887Y672991D01*
X631186Y672781D01*
X631480Y672565D01*
X631768Y672342D01*
X632051Y672112D01*
X632329Y671875D01*
X632601Y671632D01*
X632867Y671382D01*
X633127Y671126D01*
X633380Y670863D01*
X633628Y670595D01*
X633868Y670321D01*
X634103Y670041D01*
X634330Y669756D01*
D16*
X622300Y640080D02*
X621806Y640086D01*
X621312Y640104D01*
X620818Y640134D01*
X620325Y640176D01*
X619834Y640230D01*
X619344Y640296D01*
X618856Y640374D01*
X618369Y640464D01*
X617885Y640565D01*
X617404Y640679D01*
X616926Y640804D01*
X616450Y640940D01*
X615979Y641088D01*
X615511Y641248D01*
X615047Y641419D01*
X614587Y641601D01*
X614132Y641794D01*
X613681Y641998D01*
X613236Y642213D01*
X612796Y642439D01*
X612362Y642676D01*
X611934Y642923D01*
X611512Y643180D01*
X611096Y643448D01*
X610687Y643726D01*
X610285Y644013D01*
X609889Y644310D01*
X609502Y644617D01*
X609121Y644933D01*
X608749Y645258D01*
X608384Y645593D01*
X608028Y645936D01*
X607681Y646287D01*
X607341Y646647D01*
X607011Y647015D01*
X606690Y647391D01*
X622300Y640080D02*
X622788Y640086D01*
X623275Y640103D01*
X623762Y640133D01*
X624249Y640174D01*
X624734Y640226D01*
X625218Y640291D01*
X625700Y640367D01*
X626180Y640454D01*
X626658Y640553D01*
X627133Y640663D01*
X627606Y640785D01*
X628075Y640918D01*
X628542Y641063D01*
X629004Y641218D01*
X629463Y641385D01*
X629918Y641562D01*
X630368Y641751D01*
X630813Y641950D01*
X631254Y642160D01*
X631690Y642380D01*
X632120Y642611D01*
X632544Y642852D01*
X632962Y643103D01*
X633375Y643364D01*
X633781Y643635D01*
X634180Y643915D01*
X634573Y644205D01*
X634958Y644505D01*
X635336Y644814D01*
X635707Y645131D01*
X636069Y645458D01*
X636424Y645793D01*
X636771Y646136D01*
X637109Y646488D01*
X637439Y646847D01*
X637760Y647215D01*
X638073Y647590D01*
X638376Y647973D01*
X638670Y648362D01*
X638954Y648759D01*
X639229Y649162D01*
X639494Y649572D01*
X639749Y649988D01*
X639994Y650410D01*
X640229Y650838D01*
X622300Y680720D02*
X621810Y680714D01*
X621320Y680696D01*
X620831Y680667D01*
X620342Y680625D01*
X619855Y680572D01*
X619369Y680508D01*
X618885Y680431D01*
X618403Y680343D01*
X617923Y680243D01*
X617445Y680132D01*
X616971Y680009D01*
X616499Y679874D01*
X616031Y679729D01*
X615567Y679572D01*
X615106Y679404D01*
X614650Y679225D01*
X614198Y679035D01*
X613751Y678834D01*
X613309Y678622D01*
X612872Y678400D01*
X612440Y678168D01*
X612014Y677925D01*
X611595Y677671D01*
X611181Y677408D01*
X610774Y677135D01*
X610374Y676852D01*
X609980Y676559D01*
X609594Y676258D01*
X609215Y675946D01*
X608844Y675626D01*
X608481Y675297D01*
X608125Y674960D01*
X607778Y674613D01*
X607440Y674259D01*
X607110Y673896D01*
X606788Y673526D01*
X622300Y680720D02*
X622797Y680714D01*
X623294Y680696D01*
X623790Y680665D01*
X624285Y680623D01*
X624779Y680568D01*
X625272Y680502D01*
X625762Y680423D01*
X626251Y680332D01*
X626737Y680230D01*
X627221Y680115D01*
X627701Y679989D01*
X628179Y679851D01*
X628653Y679702D01*
X629123Y679541D01*
X629589Y679368D01*
X630051Y679184D01*
X630508Y678989D01*
X630960Y678783D01*
X631407Y678566D01*
X631848Y678337D01*
X632284Y678099D01*
X632714Y677849D01*
X633137Y677589D01*
X633555Y677319D01*
X633965Y677039D01*
X634368Y676749D01*
X634765Y676449D01*
X635153Y676139D01*
X635534Y675820D01*
X635907Y675492D01*
X636272Y675155D01*
X636629Y674809D01*
X636977Y674454D01*
X637316Y674091D01*
X637647Y673720D01*
X637968Y673340D01*
X638280Y672953D01*
X638582Y672559D01*
X638874Y672157D01*
X639157Y671748D01*
X639429Y671333D01*
X639692Y670910D01*
X639943Y670482D01*
D10*
X628015Y625475D02*
X626110Y625475D01*
X628015Y625475D02*
X628015Y619125D01*
X624205Y619125D01*
X624105Y619127D01*
X624006Y619133D01*
X623906Y619143D01*
X623808Y619156D01*
X623709Y619174D01*
X623612Y619195D01*
X623516Y619220D01*
X623420Y619249D01*
X623326Y619282D01*
X623233Y619318D01*
X623142Y619358D01*
X623052Y619402D01*
X622964Y619449D01*
X622878Y619499D01*
X622794Y619553D01*
X622712Y619610D01*
X622633Y619670D01*
X622555Y619734D01*
X622481Y619800D01*
X622409Y619869D01*
X622340Y619941D01*
X622274Y620015D01*
X622210Y620093D01*
X622150Y620172D01*
X622093Y620254D01*
X622039Y620338D01*
X621989Y620424D01*
X621942Y620512D01*
X621898Y620602D01*
X621858Y620693D01*
X621822Y620786D01*
X621789Y620880D01*
X621760Y620976D01*
X621735Y621072D01*
X621714Y621169D01*
X621696Y621268D01*
X621683Y621366D01*
X621673Y621466D01*
X621667Y621565D01*
X621665Y621665D01*
X621665Y628015D01*
X621667Y628115D01*
X621673Y628214D01*
X621683Y628314D01*
X621696Y628412D01*
X621714Y628511D01*
X621735Y628608D01*
X621760Y628704D01*
X621789Y628800D01*
X621822Y628894D01*
X621858Y628987D01*
X621898Y629078D01*
X621942Y629168D01*
X621989Y629256D01*
X622039Y629342D01*
X622093Y629426D01*
X622150Y629508D01*
X622210Y629587D01*
X622274Y629665D01*
X622340Y629739D01*
X622409Y629811D01*
X622481Y629880D01*
X622555Y629946D01*
X622633Y630010D01*
X622712Y630070D01*
X622794Y630127D01*
X622878Y630181D01*
X622964Y630231D01*
X623052Y630278D01*
X623142Y630322D01*
X623233Y630362D01*
X623326Y630398D01*
X623420Y630431D01*
X623516Y630460D01*
X623612Y630485D01*
X623709Y630506D01*
X623808Y630524D01*
X623906Y630537D01*
X624006Y630547D01*
X624105Y630553D01*
X624205Y630555D01*
X628015Y630555D01*
D13*
X685800Y675640D02*
X686172Y675635D01*
X686543Y675622D01*
X686914Y675599D01*
X687284Y675568D01*
X687653Y675527D01*
X688021Y675477D01*
X688388Y675419D01*
X688753Y675351D01*
X689117Y675275D01*
X689478Y675190D01*
X689837Y675095D01*
X690194Y674993D01*
X690549Y674881D01*
X690900Y674761D01*
X691249Y674633D01*
X691594Y674496D01*
X691936Y674350D01*
X692274Y674197D01*
X692608Y674035D01*
X692938Y673865D01*
X693264Y673687D01*
X693586Y673501D01*
X693903Y673307D01*
X694215Y673106D01*
X694522Y672897D01*
X694824Y672681D01*
X695121Y672457D01*
X695412Y672227D01*
X695697Y671989D01*
X695977Y671744D01*
X696250Y671493D01*
X696517Y671235D01*
X696778Y670971D01*
X697033Y670700D01*
X697280Y670423D01*
X697521Y670140D01*
X697755Y669852D01*
X697982Y669558D01*
X698201Y669258D01*
X685800Y675640D02*
X685428Y675635D01*
X685057Y675622D01*
X684685Y675599D01*
X684315Y675567D01*
X683945Y675527D01*
X683577Y675477D01*
X683209Y675418D01*
X682844Y675351D01*
X682480Y675274D01*
X682118Y675188D01*
X681758Y675094D01*
X681401Y674991D01*
X681046Y674880D01*
X680694Y674759D01*
X680345Y674630D01*
X680000Y674493D01*
X679658Y674347D01*
X679319Y674193D01*
X678984Y674031D01*
X678654Y673861D01*
X678328Y673682D01*
X678006Y673496D01*
X677688Y673302D01*
X677376Y673100D01*
X677069Y672891D01*
X676767Y672674D01*
X676470Y672450D01*
X676178Y672219D01*
X675893Y671981D01*
X675613Y671735D01*
X675340Y671483D01*
X675072Y671225D01*
X674812Y670960D01*
X674557Y670689D01*
X674309Y670411D01*
X674069Y670128D01*
X673835Y669839D01*
X673608Y669544D01*
X685800Y645160D02*
X686165Y645164D01*
X686530Y645177D01*
X686894Y645199D01*
X687257Y645230D01*
X687620Y645269D01*
X687982Y645317D01*
X688342Y645374D01*
X688701Y645439D01*
X689059Y645512D01*
X689414Y645595D01*
X689767Y645685D01*
X690119Y645785D01*
X690467Y645892D01*
X690813Y646008D01*
X691156Y646132D01*
X691496Y646265D01*
X691833Y646405D01*
X692166Y646553D01*
X692496Y646710D01*
X692822Y646874D01*
X693144Y647046D01*
X693461Y647226D01*
X693774Y647413D01*
X694083Y647607D01*
X694387Y647809D01*
X694686Y648019D01*
X694980Y648235D01*
X695268Y648458D01*
X695551Y648688D01*
X695829Y648925D01*
X696101Y649168D01*
X696367Y649418D01*
X696627Y649674D01*
X696880Y649937D01*
X697128Y650205D01*
X697368Y650479D01*
X697603Y650759D01*
X697830Y651044D01*
X685800Y645160D02*
X685435Y645164D01*
X685070Y645177D01*
X684706Y645199D01*
X684343Y645230D01*
X683980Y645269D01*
X683618Y645317D01*
X683258Y645374D01*
X682899Y645439D01*
X682541Y645512D01*
X682186Y645595D01*
X681833Y645685D01*
X681481Y645785D01*
X681133Y645892D01*
X680787Y646008D01*
X680444Y646132D01*
X680104Y646265D01*
X679767Y646405D01*
X679434Y646553D01*
X679104Y646710D01*
X678778Y646874D01*
X678456Y647046D01*
X678139Y647226D01*
X677826Y647413D01*
X677517Y647607D01*
X677213Y647809D01*
X676914Y648019D01*
X676620Y648235D01*
X676332Y648458D01*
X676049Y648688D01*
X675771Y648925D01*
X675499Y649168D01*
X675233Y649418D01*
X674973Y649674D01*
X674720Y649937D01*
X674472Y650205D01*
X674232Y650479D01*
X673997Y650759D01*
X673770Y651044D01*
D16*
X685800Y680720D02*
X686294Y680714D01*
X686788Y680696D01*
X687282Y680666D01*
X687775Y680624D01*
X688266Y680570D01*
X688756Y680504D01*
X689244Y680426D01*
X689731Y680336D01*
X690215Y680235D01*
X690696Y680121D01*
X691174Y679996D01*
X691650Y679860D01*
X692121Y679712D01*
X692589Y679552D01*
X693053Y679381D01*
X693513Y679199D01*
X693968Y679006D01*
X694419Y678802D01*
X694864Y678587D01*
X695304Y678361D01*
X695738Y678124D01*
X696166Y677877D01*
X696588Y677620D01*
X697004Y677352D01*
X697413Y677074D01*
X697815Y676787D01*
X698211Y676490D01*
X698598Y676183D01*
X698979Y675867D01*
X699351Y675542D01*
X699716Y675207D01*
X700072Y674864D01*
X700419Y674513D01*
X700759Y674153D01*
X701089Y673785D01*
X701410Y673409D01*
X685800Y680720D02*
X685312Y680714D01*
X684825Y680697D01*
X684338Y680667D01*
X683851Y680626D01*
X683366Y680574D01*
X682882Y680509D01*
X682400Y680433D01*
X681920Y680346D01*
X681442Y680247D01*
X680967Y680137D01*
X680494Y680015D01*
X680025Y679882D01*
X679558Y679737D01*
X679096Y679582D01*
X678637Y679415D01*
X678182Y679238D01*
X677732Y679049D01*
X677287Y678850D01*
X676846Y678640D01*
X676410Y678420D01*
X675980Y678189D01*
X675556Y677948D01*
X675138Y677697D01*
X674725Y677436D01*
X674319Y677165D01*
X673920Y676885D01*
X673527Y676595D01*
X673142Y676295D01*
X672764Y675986D01*
X672393Y675669D01*
X672031Y675342D01*
X671676Y675007D01*
X671329Y674664D01*
X670991Y674312D01*
X670661Y673953D01*
X670340Y673585D01*
X670027Y673210D01*
X669724Y672827D01*
X669430Y672438D01*
X669146Y672041D01*
X668871Y671638D01*
X668606Y671228D01*
X668351Y670812D01*
X668106Y670390D01*
X667871Y669962D01*
X685800Y640080D02*
X686290Y640086D01*
X686780Y640104D01*
X687269Y640133D01*
X687758Y640175D01*
X688245Y640228D01*
X688731Y640292D01*
X689215Y640369D01*
X689697Y640457D01*
X690177Y640557D01*
X690655Y640668D01*
X691129Y640791D01*
X691601Y640926D01*
X692069Y641071D01*
X692533Y641228D01*
X692994Y641396D01*
X693450Y641575D01*
X693902Y641765D01*
X694349Y641966D01*
X694791Y642178D01*
X695228Y642400D01*
X695660Y642632D01*
X696086Y642875D01*
X696505Y643129D01*
X696919Y643392D01*
X697326Y643665D01*
X697726Y643948D01*
X698120Y644241D01*
X698506Y644542D01*
X698885Y644854D01*
X699256Y645174D01*
X699619Y645503D01*
X699975Y645840D01*
X700322Y646187D01*
X700660Y646541D01*
X700990Y646904D01*
X701312Y647274D01*
X685800Y640080D02*
X685303Y640086D01*
X684806Y640104D01*
X684310Y640135D01*
X683815Y640177D01*
X683321Y640232D01*
X682828Y640298D01*
X682338Y640377D01*
X681849Y640468D01*
X681363Y640570D01*
X680879Y640685D01*
X680399Y640811D01*
X679921Y640949D01*
X679447Y641098D01*
X678977Y641259D01*
X678511Y641432D01*
X678049Y641616D01*
X677592Y641811D01*
X677140Y642017D01*
X676693Y642234D01*
X676252Y642463D01*
X675816Y642701D01*
X675386Y642951D01*
X674963Y643211D01*
X674545Y643481D01*
X674135Y643761D01*
X673732Y644051D01*
X673335Y644351D01*
X672947Y644661D01*
X672566Y644980D01*
X672193Y645308D01*
X671828Y645645D01*
X671471Y645991D01*
X671123Y646346D01*
X670784Y646709D01*
X670453Y647080D01*
X670132Y647460D01*
X669820Y647847D01*
X669518Y648241D01*
X669226Y648643D01*
X668943Y649052D01*
X668671Y649467D01*
X668408Y649890D01*
X668157Y650318D01*
D10*
X680085Y690245D02*
X680085Y701675D01*
X683260Y701675D01*
X683371Y701673D01*
X683481Y701667D01*
X683592Y701658D01*
X683702Y701644D01*
X683811Y701627D01*
X683920Y701606D01*
X684028Y701581D01*
X684135Y701552D01*
X684241Y701520D01*
X684346Y701484D01*
X684449Y701444D01*
X684551Y701401D01*
X684652Y701354D01*
X684751Y701303D01*
X684848Y701250D01*
X684942Y701193D01*
X685035Y701132D01*
X685126Y701069D01*
X685215Y701002D01*
X685301Y700932D01*
X685384Y700859D01*
X685466Y700784D01*
X685544Y700706D01*
X685619Y700624D01*
X685692Y700541D01*
X685762Y700455D01*
X685829Y700366D01*
X685892Y700275D01*
X685953Y700182D01*
X686010Y700087D01*
X686063Y699991D01*
X686114Y699892D01*
X686161Y699791D01*
X686204Y699689D01*
X686244Y699586D01*
X686280Y699481D01*
X686312Y699375D01*
X686341Y699268D01*
X686366Y699160D01*
X686387Y699051D01*
X686404Y698942D01*
X686418Y698832D01*
X686427Y698721D01*
X686433Y698611D01*
X686435Y698500D01*
X686433Y698389D01*
X686427Y698279D01*
X686418Y698168D01*
X686404Y698058D01*
X686387Y697949D01*
X686366Y697840D01*
X686341Y697732D01*
X686312Y697625D01*
X686280Y697519D01*
X686244Y697414D01*
X686204Y697311D01*
X686161Y697209D01*
X686114Y697108D01*
X686063Y697009D01*
X686010Y696913D01*
X685953Y696818D01*
X685892Y696725D01*
X685829Y696634D01*
X685762Y696545D01*
X685692Y696459D01*
X685619Y696376D01*
X685544Y696294D01*
X685466Y696216D01*
X685384Y696141D01*
X685301Y696068D01*
X685215Y695998D01*
X685126Y695931D01*
X685035Y695868D01*
X684942Y695807D01*
X684848Y695750D01*
X684751Y695697D01*
X684652Y695646D01*
X684551Y695599D01*
X684449Y695556D01*
X684346Y695516D01*
X684241Y695480D01*
X684135Y695448D01*
X684028Y695419D01*
X683920Y695394D01*
X683811Y695373D01*
X683702Y695356D01*
X683592Y695342D01*
X683481Y695333D01*
X683371Y695327D01*
X683260Y695325D01*
X680085Y695325D01*
X683895Y695325D02*
X686435Y690245D01*
D13*
X713740Y599440D02*
X713742Y599340D01*
X713748Y599241D01*
X713758Y599141D01*
X713771Y599043D01*
X713789Y598944D01*
X713810Y598847D01*
X713835Y598751D01*
X713864Y598655D01*
X713897Y598561D01*
X713933Y598468D01*
X713973Y598377D01*
X714017Y598287D01*
X714064Y598199D01*
X714114Y598113D01*
X714168Y598029D01*
X714225Y597947D01*
X714285Y597868D01*
X714349Y597790D01*
X714415Y597716D01*
X714484Y597644D01*
X714556Y597575D01*
X714630Y597509D01*
X714708Y597445D01*
X714787Y597385D01*
X714869Y597328D01*
X714953Y597274D01*
X715039Y597224D01*
X715127Y597177D01*
X715217Y597133D01*
X715308Y597093D01*
X715401Y597057D01*
X715495Y597024D01*
X715591Y596995D01*
X715687Y596970D01*
X715784Y596949D01*
X715883Y596931D01*
X715981Y596918D01*
X716081Y596908D01*
X716180Y596902D01*
X716280Y596900D01*
X731520Y596900D02*
X731620Y596902D01*
X731719Y596908D01*
X731819Y596918D01*
X731917Y596931D01*
X732016Y596949D01*
X732113Y596970D01*
X732209Y596995D01*
X732305Y597024D01*
X732399Y597057D01*
X732492Y597093D01*
X732583Y597133D01*
X732673Y597177D01*
X732761Y597224D01*
X732847Y597274D01*
X732931Y597328D01*
X733013Y597385D01*
X733092Y597445D01*
X733170Y597509D01*
X733244Y597575D01*
X733316Y597644D01*
X733385Y597716D01*
X733451Y597790D01*
X733515Y597868D01*
X733575Y597947D01*
X733632Y598029D01*
X733686Y598113D01*
X733736Y598199D01*
X733783Y598287D01*
X733827Y598377D01*
X733867Y598468D01*
X733903Y598561D01*
X733936Y598655D01*
X733965Y598751D01*
X733990Y598847D01*
X734011Y598944D01*
X734029Y599043D01*
X734042Y599141D01*
X734052Y599241D01*
X734058Y599340D01*
X734060Y599440D01*
X734060Y645160D02*
X734058Y645260D01*
X734052Y645359D01*
X734042Y645459D01*
X734029Y645557D01*
X734011Y645656D01*
X733990Y645753D01*
X733965Y645849D01*
X733936Y645945D01*
X733903Y646039D01*
X733867Y646132D01*
X733827Y646223D01*
X733783Y646313D01*
X733736Y646401D01*
X733686Y646487D01*
X733632Y646571D01*
X733575Y646653D01*
X733515Y646732D01*
X733451Y646810D01*
X733385Y646884D01*
X733316Y646956D01*
X733244Y647025D01*
X733170Y647091D01*
X733092Y647155D01*
X733013Y647215D01*
X732931Y647272D01*
X732847Y647326D01*
X732761Y647376D01*
X732673Y647423D01*
X732583Y647467D01*
X732492Y647507D01*
X732399Y647543D01*
X732305Y647576D01*
X732209Y647605D01*
X732113Y647630D01*
X732016Y647651D01*
X731917Y647669D01*
X731819Y647682D01*
X731719Y647692D01*
X731620Y647698D01*
X731520Y647700D01*
X716280Y647700D02*
X716180Y647698D01*
X716081Y647692D01*
X715981Y647682D01*
X715883Y647669D01*
X715784Y647651D01*
X715687Y647630D01*
X715591Y647605D01*
X715495Y647576D01*
X715401Y647543D01*
X715308Y647507D01*
X715217Y647467D01*
X715127Y647423D01*
X715039Y647376D01*
X714953Y647326D01*
X714869Y647272D01*
X714787Y647215D01*
X714708Y647155D01*
X714630Y647091D01*
X714556Y647025D01*
X714484Y646956D01*
X714415Y646884D01*
X714349Y646810D01*
X714285Y646732D01*
X714225Y646653D01*
X714168Y646571D01*
X714114Y646487D01*
X714064Y646401D01*
X714017Y646313D01*
X713973Y646223D01*
X713933Y646132D01*
X713897Y646039D01*
X713864Y645945D01*
X713835Y645849D01*
X713810Y645753D01*
X713789Y645656D01*
X713771Y645557D01*
X713758Y645459D01*
X713748Y645359D01*
X713742Y645260D01*
X713740Y645160D01*
X716280Y596900D02*
X731520Y596900D01*
X713740Y599440D02*
X713740Y603250D01*
X715010Y604520D01*
X734060Y603250D02*
X734060Y599440D01*
X734060Y603250D02*
X732790Y604520D01*
X715010Y640080D02*
X713740Y641350D01*
X715010Y640080D02*
X715010Y604520D01*
X732790Y640080D02*
X734060Y641350D01*
X732790Y640080D02*
X732790Y604520D01*
X713740Y641350D02*
X713740Y645160D01*
X734060Y645160D02*
X734060Y641350D01*
X731520Y647700D02*
X716280Y647700D01*
D17*
X723900Y649605D03*
X723900Y594995D03*
D12*
X737362Y604293D02*
X746252Y604293D01*
X737362Y604293D02*
X737362Y606762D01*
X737364Y606860D01*
X737370Y606958D01*
X737380Y607056D01*
X737393Y607153D01*
X737411Y607250D01*
X737432Y607346D01*
X737457Y607440D01*
X737486Y607534D01*
X737518Y607627D01*
X737555Y607718D01*
X737594Y607808D01*
X737638Y607896D01*
X737685Y607982D01*
X737735Y608067D01*
X737788Y608149D01*
X737845Y608229D01*
X737905Y608307D01*
X737968Y608382D01*
X738034Y608455D01*
X738103Y608525D01*
X738174Y608592D01*
X738248Y608657D01*
X738325Y608718D01*
X738404Y608777D01*
X738485Y608832D01*
X738568Y608884D01*
X738654Y608932D01*
X738741Y608977D01*
X738830Y609019D01*
X738920Y609057D01*
X739012Y609091D01*
X739105Y609122D01*
X739200Y609149D01*
X739295Y609172D01*
X739392Y609192D01*
X739488Y609207D01*
X739586Y609219D01*
X739684Y609227D01*
X739782Y609231D01*
X739880Y609231D01*
X739978Y609227D01*
X740076Y609219D01*
X740174Y609207D01*
X740270Y609192D01*
X740367Y609172D01*
X740462Y609149D01*
X740557Y609122D01*
X740650Y609091D01*
X740742Y609057D01*
X740832Y609019D01*
X740921Y608977D01*
X741008Y608932D01*
X741094Y608884D01*
X741177Y608832D01*
X741258Y608777D01*
X741337Y608718D01*
X741414Y608657D01*
X741488Y608592D01*
X741559Y608525D01*
X741628Y608455D01*
X741694Y608382D01*
X741757Y608307D01*
X741817Y608229D01*
X741874Y608149D01*
X741927Y608067D01*
X741977Y607982D01*
X742024Y607896D01*
X742068Y607808D01*
X742107Y607718D01*
X742144Y607627D01*
X742176Y607534D01*
X742205Y607440D01*
X742230Y607346D01*
X742251Y607250D01*
X742269Y607153D01*
X742282Y607056D01*
X742292Y606958D01*
X742298Y606860D01*
X742300Y606762D01*
X742301Y606762D02*
X742301Y604293D01*
X742301Y607256D02*
X746252Y609232D01*
X739338Y613143D02*
X737362Y615612D01*
X746252Y615612D01*
X746252Y613143D02*
X746252Y618082D01*
X747240Y621661D02*
X747240Y625612D01*
X746252Y629553D02*
X737362Y629553D01*
X737362Y632023D01*
X737364Y632121D01*
X737370Y632219D01*
X737380Y632317D01*
X737393Y632414D01*
X737411Y632511D01*
X737432Y632607D01*
X737457Y632701D01*
X737486Y632795D01*
X737518Y632888D01*
X737555Y632979D01*
X737594Y633069D01*
X737638Y633157D01*
X737685Y633243D01*
X737735Y633328D01*
X737788Y633410D01*
X737845Y633490D01*
X737905Y633568D01*
X737968Y633643D01*
X738034Y633716D01*
X738103Y633786D01*
X738174Y633853D01*
X738248Y633918D01*
X738325Y633979D01*
X738404Y634038D01*
X738485Y634093D01*
X738568Y634145D01*
X738654Y634193D01*
X738741Y634238D01*
X738830Y634280D01*
X738920Y634318D01*
X739012Y634352D01*
X739105Y634383D01*
X739200Y634410D01*
X739295Y634433D01*
X739392Y634453D01*
X739488Y634468D01*
X739586Y634480D01*
X739684Y634488D01*
X739782Y634492D01*
X739880Y634492D01*
X739978Y634488D01*
X740076Y634480D01*
X740174Y634468D01*
X740270Y634453D01*
X740367Y634433D01*
X740462Y634410D01*
X740557Y634383D01*
X740650Y634352D01*
X740742Y634318D01*
X740832Y634280D01*
X740921Y634238D01*
X741008Y634193D01*
X741094Y634145D01*
X741177Y634093D01*
X741258Y634038D01*
X741337Y633979D01*
X741414Y633918D01*
X741488Y633853D01*
X741559Y633786D01*
X741628Y633716D01*
X741694Y633643D01*
X741757Y633568D01*
X741817Y633490D01*
X741874Y633410D01*
X741927Y633328D01*
X741977Y633243D01*
X742024Y633157D01*
X742068Y633069D01*
X742107Y632979D01*
X742144Y632888D01*
X742176Y632795D01*
X742205Y632701D01*
X742230Y632607D01*
X742251Y632511D01*
X742269Y632414D01*
X742282Y632317D01*
X742292Y632219D01*
X742298Y632121D01*
X742300Y632023D01*
X742301Y632023D02*
X742301Y629553D01*
X742301Y632516D02*
X746252Y634492D01*
D13*
X523240Y670560D02*
X523140Y670558D01*
X523041Y670552D01*
X522941Y670542D01*
X522843Y670529D01*
X522744Y670511D01*
X522647Y670490D01*
X522551Y670465D01*
X522455Y670436D01*
X522361Y670403D01*
X522268Y670367D01*
X522177Y670327D01*
X522087Y670283D01*
X521999Y670236D01*
X521913Y670186D01*
X521829Y670132D01*
X521747Y670075D01*
X521668Y670015D01*
X521590Y669951D01*
X521516Y669885D01*
X521444Y669816D01*
X521375Y669744D01*
X521309Y669670D01*
X521245Y669592D01*
X521185Y669513D01*
X521128Y669431D01*
X521074Y669347D01*
X521024Y669261D01*
X520977Y669173D01*
X520933Y669083D01*
X520893Y668992D01*
X520857Y668899D01*
X520824Y668805D01*
X520795Y668709D01*
X520770Y668613D01*
X520749Y668516D01*
X520731Y668417D01*
X520718Y668319D01*
X520708Y668219D01*
X520702Y668120D01*
X520700Y668020D01*
X520700Y652780D02*
X520702Y652680D01*
X520708Y652581D01*
X520718Y652481D01*
X520731Y652383D01*
X520749Y652284D01*
X520770Y652187D01*
X520795Y652091D01*
X520824Y651995D01*
X520857Y651901D01*
X520893Y651808D01*
X520933Y651717D01*
X520977Y651627D01*
X521024Y651539D01*
X521074Y651453D01*
X521128Y651369D01*
X521185Y651287D01*
X521245Y651208D01*
X521309Y651130D01*
X521375Y651056D01*
X521444Y650984D01*
X521516Y650915D01*
X521590Y650849D01*
X521668Y650785D01*
X521747Y650725D01*
X521829Y650668D01*
X521913Y650614D01*
X521999Y650564D01*
X522087Y650517D01*
X522177Y650473D01*
X522268Y650433D01*
X522361Y650397D01*
X522455Y650364D01*
X522551Y650335D01*
X522647Y650310D01*
X522744Y650289D01*
X522843Y650271D01*
X522941Y650258D01*
X523041Y650248D01*
X523140Y650242D01*
X523240Y650240D01*
X568960Y650240D02*
X569060Y650242D01*
X569159Y650248D01*
X569259Y650258D01*
X569357Y650271D01*
X569456Y650289D01*
X569553Y650310D01*
X569649Y650335D01*
X569745Y650364D01*
X569839Y650397D01*
X569932Y650433D01*
X570023Y650473D01*
X570113Y650517D01*
X570201Y650564D01*
X570287Y650614D01*
X570371Y650668D01*
X570453Y650725D01*
X570532Y650785D01*
X570610Y650849D01*
X570684Y650915D01*
X570756Y650984D01*
X570825Y651056D01*
X570891Y651130D01*
X570955Y651208D01*
X571015Y651287D01*
X571072Y651369D01*
X571126Y651453D01*
X571176Y651539D01*
X571223Y651627D01*
X571267Y651717D01*
X571307Y651808D01*
X571343Y651901D01*
X571376Y651995D01*
X571405Y652091D01*
X571430Y652187D01*
X571451Y652284D01*
X571469Y652383D01*
X571482Y652481D01*
X571492Y652581D01*
X571498Y652680D01*
X571500Y652780D01*
X571500Y668020D02*
X571498Y668120D01*
X571492Y668219D01*
X571482Y668319D01*
X571469Y668417D01*
X571451Y668516D01*
X571430Y668613D01*
X571405Y668709D01*
X571376Y668805D01*
X571343Y668899D01*
X571307Y668992D01*
X571267Y669083D01*
X571223Y669173D01*
X571176Y669261D01*
X571126Y669347D01*
X571072Y669431D01*
X571015Y669513D01*
X570955Y669592D01*
X570891Y669670D01*
X570825Y669744D01*
X570756Y669816D01*
X570684Y669885D01*
X570610Y669951D01*
X570532Y670015D01*
X570453Y670075D01*
X570371Y670132D01*
X570287Y670186D01*
X570201Y670236D01*
X570113Y670283D01*
X570023Y670327D01*
X569932Y670367D01*
X569839Y670403D01*
X569745Y670436D01*
X569649Y670465D01*
X569553Y670490D01*
X569456Y670511D01*
X569357Y670529D01*
X569259Y670542D01*
X569159Y670552D01*
X569060Y670558D01*
X568960Y670560D01*
X520700Y668020D02*
X520700Y652780D01*
X523240Y670560D02*
X527050Y670560D01*
X528320Y669290D01*
X527050Y650240D02*
X523240Y650240D01*
X527050Y650240D02*
X528320Y651510D01*
X563880Y669290D02*
X565150Y670560D01*
X563880Y669290D02*
X528320Y669290D01*
X563880Y651510D02*
X565150Y650240D01*
X563880Y651510D02*
X528320Y651510D01*
X565150Y670560D02*
X568960Y670560D01*
X568960Y650240D02*
X565150Y650240D01*
X571500Y652780D02*
X571500Y668020D01*
D18*
X573405Y660400D03*
X518795Y660400D03*
D12*
X533908Y673862D02*
X533908Y682752D01*
X536377Y682752D01*
X536475Y682750D01*
X536573Y682744D01*
X536671Y682734D01*
X536768Y682721D01*
X536865Y682703D01*
X536961Y682682D01*
X537055Y682657D01*
X537149Y682628D01*
X537242Y682596D01*
X537333Y682559D01*
X537423Y682520D01*
X537511Y682476D01*
X537597Y682429D01*
X537682Y682379D01*
X537764Y682326D01*
X537844Y682269D01*
X537922Y682209D01*
X537997Y682146D01*
X538070Y682080D01*
X538140Y682011D01*
X538207Y681940D01*
X538272Y681866D01*
X538333Y681789D01*
X538392Y681710D01*
X538447Y681629D01*
X538499Y681546D01*
X538547Y681460D01*
X538592Y681373D01*
X538634Y681284D01*
X538672Y681194D01*
X538706Y681102D01*
X538737Y681009D01*
X538764Y680914D01*
X538787Y680819D01*
X538807Y680722D01*
X538822Y680626D01*
X538834Y680528D01*
X538842Y680430D01*
X538846Y680332D01*
X538846Y680234D01*
X538842Y680136D01*
X538834Y680038D01*
X538822Y679940D01*
X538807Y679844D01*
X538787Y679747D01*
X538764Y679652D01*
X538737Y679557D01*
X538706Y679464D01*
X538672Y679372D01*
X538634Y679282D01*
X538592Y679193D01*
X538547Y679106D01*
X538499Y679020D01*
X538447Y678937D01*
X538392Y678856D01*
X538333Y678777D01*
X538272Y678700D01*
X538207Y678626D01*
X538140Y678555D01*
X538070Y678486D01*
X537997Y678420D01*
X537922Y678357D01*
X537844Y678297D01*
X537764Y678240D01*
X537682Y678187D01*
X537597Y678137D01*
X537511Y678090D01*
X537423Y678046D01*
X537333Y678007D01*
X537242Y677970D01*
X537149Y677938D01*
X537055Y677909D01*
X536961Y677884D01*
X536865Y677863D01*
X536768Y677845D01*
X536671Y677832D01*
X536573Y677822D01*
X536475Y677816D01*
X536377Y677814D01*
X536377Y677813D02*
X533908Y677813D01*
X536871Y677813D02*
X538847Y673862D01*
X547697Y680530D02*
X547695Y680622D01*
X547689Y680714D01*
X547680Y680805D01*
X547667Y680896D01*
X547650Y680986D01*
X547629Y681076D01*
X547605Y681164D01*
X547577Y681252D01*
X547545Y681338D01*
X547510Y681423D01*
X547471Y681506D01*
X547429Y681588D01*
X547384Y681668D01*
X547335Y681746D01*
X547283Y681822D01*
X547228Y681895D01*
X547170Y681967D01*
X547110Y682036D01*
X547046Y682102D01*
X546980Y682166D01*
X546911Y682226D01*
X546839Y682284D01*
X546766Y682339D01*
X546690Y682391D01*
X546612Y682440D01*
X546532Y682485D01*
X546450Y682527D01*
X546367Y682566D01*
X546282Y682601D01*
X546196Y682633D01*
X546108Y682661D01*
X546020Y682685D01*
X545930Y682706D01*
X545840Y682723D01*
X545749Y682736D01*
X545658Y682745D01*
X545566Y682751D01*
X545474Y682753D01*
X545474Y682752D02*
X545368Y682750D01*
X545263Y682744D01*
X545158Y682734D01*
X545053Y682721D01*
X544949Y682703D01*
X544846Y682682D01*
X544743Y682657D01*
X544641Y682628D01*
X544541Y682595D01*
X544442Y682559D01*
X544344Y682519D01*
X544248Y682475D01*
X544153Y682428D01*
X544061Y682378D01*
X543970Y682324D01*
X543881Y682266D01*
X543795Y682206D01*
X543711Y682142D01*
X543629Y682076D01*
X543549Y682006D01*
X543473Y681933D01*
X543399Y681858D01*
X543328Y681780D01*
X543260Y681699D01*
X543194Y681616D01*
X543132Y681530D01*
X543074Y681443D01*
X543018Y681353D01*
X542966Y681261D01*
X542917Y681167D01*
X542872Y681072D01*
X542830Y680975D01*
X542792Y680876D01*
X542758Y680777D01*
X546956Y678801D02*
X547025Y678870D01*
X547091Y678940D01*
X547154Y679014D01*
X547213Y679090D01*
X547270Y679168D01*
X547324Y679248D01*
X547374Y679331D01*
X547421Y679415D01*
X547464Y679502D01*
X547504Y679590D01*
X547540Y679679D01*
X547573Y679770D01*
X547602Y679862D01*
X547627Y679956D01*
X547648Y680050D01*
X547666Y680145D01*
X547679Y680241D01*
X547689Y680337D01*
X547695Y680433D01*
X547697Y680530D01*
X546956Y678801D02*
X542758Y673862D01*
X547697Y673862D01*
X551276Y672874D02*
X555227Y672874D01*
X562560Y678801D02*
X564042Y678801D01*
X564042Y673862D01*
X561078Y673862D01*
X560992Y673864D01*
X560906Y673870D01*
X560820Y673879D01*
X560735Y673892D01*
X560650Y673909D01*
X560567Y673929D01*
X560484Y673953D01*
X560402Y673981D01*
X560322Y674012D01*
X560243Y674047D01*
X560166Y674085D01*
X560090Y674127D01*
X560016Y674171D01*
X559945Y674219D01*
X559875Y674270D01*
X559808Y674324D01*
X559743Y674381D01*
X559681Y674441D01*
X559621Y674503D01*
X559564Y674568D01*
X559510Y674635D01*
X559459Y674705D01*
X559411Y674776D01*
X559367Y674850D01*
X559325Y674926D01*
X559287Y675003D01*
X559252Y675082D01*
X559221Y675162D01*
X559193Y675244D01*
X559169Y675327D01*
X559149Y675410D01*
X559132Y675495D01*
X559119Y675580D01*
X559110Y675666D01*
X559104Y675752D01*
X559102Y675838D01*
X559103Y675838D02*
X559103Y680776D01*
X559102Y680776D02*
X559104Y680865D01*
X559110Y680953D01*
X559120Y681041D01*
X559134Y681129D01*
X559152Y681216D01*
X559173Y681302D01*
X559199Y681387D01*
X559228Y681470D01*
X559261Y681553D01*
X559298Y681633D01*
X559338Y681712D01*
X559382Y681789D01*
X559429Y681865D01*
X559479Y681937D01*
X559533Y682008D01*
X559590Y682076D01*
X559650Y682142D01*
X559712Y682204D01*
X559778Y682264D01*
X559846Y682321D01*
X559917Y682375D01*
X559989Y682425D01*
X560064Y682472D01*
X560142Y682516D01*
X560221Y682556D01*
X560301Y682593D01*
X560384Y682626D01*
X560467Y682655D01*
X560552Y682681D01*
X560638Y682702D01*
X560725Y682720D01*
X560813Y682734D01*
X560901Y682744D01*
X560989Y682750D01*
X561078Y682752D01*
X564042Y682752D01*
D10*
X385600Y-30000D02*
X325600Y-30000D01*
X325600Y-10750D01*
X325600Y10750D02*
X325600Y30000D01*
X385600Y30000D01*
X385600Y10750D01*
X385600Y-10750D02*
X385600Y-30000D01*
D11*
X392600Y0D02*
X392602Y63D01*
X392608Y125D01*
X392618Y187D01*
X392631Y249D01*
X392649Y309D01*
X392670Y368D01*
X392695Y426D01*
X392724Y482D01*
X392756Y536D01*
X392791Y588D01*
X392829Y637D01*
X392871Y685D01*
X392915Y729D01*
X392963Y771D01*
X393012Y809D01*
X393064Y844D01*
X393118Y876D01*
X393174Y905D01*
X393232Y930D01*
X393291Y951D01*
X393351Y969D01*
X393413Y982D01*
X393475Y992D01*
X393537Y998D01*
X393600Y1000D01*
X393663Y998D01*
X393725Y992D01*
X393787Y982D01*
X393849Y969D01*
X393909Y951D01*
X393968Y930D01*
X394026Y905D01*
X394082Y876D01*
X394136Y844D01*
X394188Y809D01*
X394237Y771D01*
X394285Y729D01*
X394329Y685D01*
X394371Y637D01*
X394409Y588D01*
X394444Y536D01*
X394476Y482D01*
X394505Y426D01*
X394530Y368D01*
X394551Y309D01*
X394569Y249D01*
X394582Y187D01*
X394592Y125D01*
X394598Y63D01*
X394600Y0D01*
X394598Y-63D01*
X394592Y-125D01*
X394582Y-187D01*
X394569Y-249D01*
X394551Y-309D01*
X394530Y-368D01*
X394505Y-426D01*
X394476Y-482D01*
X394444Y-536D01*
X394409Y-588D01*
X394371Y-637D01*
X394329Y-685D01*
X394285Y-729D01*
X394237Y-771D01*
X394188Y-809D01*
X394136Y-844D01*
X394082Y-876D01*
X394026Y-905D01*
X393968Y-930D01*
X393909Y-951D01*
X393849Y-969D01*
X393787Y-982D01*
X393725Y-992D01*
X393663Y-998D01*
X393600Y-1000D01*
X393537Y-998D01*
X393475Y-992D01*
X393413Y-982D01*
X393351Y-969D01*
X393291Y-951D01*
X393232Y-930D01*
X393174Y-905D01*
X393118Y-876D01*
X393064Y-844D01*
X393012Y-809D01*
X392963Y-771D01*
X392915Y-729D01*
X392871Y-685D01*
X392829Y-637D01*
X392791Y-588D01*
X392756Y-536D01*
X392724Y-482D01*
X392695Y-426D01*
X392670Y-368D01*
X392649Y-309D01*
X392631Y-249D01*
X392618Y-187D01*
X392608Y-125D01*
X392602Y-63D01*
X392600Y0D01*
D12*
X367454Y35508D02*
X367454Y47192D01*
X370699Y47192D02*
X364208Y47192D01*
X375426Y41999D02*
X378672Y41999D01*
X378672Y42000D02*
X378785Y41998D01*
X378898Y41992D01*
X379011Y41982D01*
X379124Y41968D01*
X379236Y41951D01*
X379347Y41929D01*
X379457Y41904D01*
X379567Y41874D01*
X379675Y41841D01*
X379782Y41804D01*
X379888Y41764D01*
X379992Y41719D01*
X380095Y41671D01*
X380196Y41620D01*
X380295Y41565D01*
X380392Y41507D01*
X380487Y41445D01*
X380580Y41380D01*
X380670Y41312D01*
X380758Y41241D01*
X380844Y41166D01*
X380927Y41089D01*
X381007Y41009D01*
X381084Y40926D01*
X381159Y40840D01*
X381230Y40752D01*
X381298Y40662D01*
X381363Y40569D01*
X381425Y40474D01*
X381483Y40377D01*
X381538Y40278D01*
X381589Y40177D01*
X381637Y40074D01*
X381682Y39970D01*
X381722Y39864D01*
X381759Y39757D01*
X381792Y39649D01*
X381822Y39539D01*
X381847Y39429D01*
X381869Y39318D01*
X381886Y39206D01*
X381900Y39093D01*
X381910Y38980D01*
X381916Y38867D01*
X381918Y38754D01*
X381916Y38641D01*
X381910Y38528D01*
X381900Y38415D01*
X381886Y38302D01*
X381869Y38190D01*
X381847Y38079D01*
X381822Y37969D01*
X381792Y37859D01*
X381759Y37751D01*
X381722Y37644D01*
X381682Y37538D01*
X381637Y37434D01*
X381589Y37331D01*
X381538Y37230D01*
X381483Y37131D01*
X381425Y37034D01*
X381363Y36939D01*
X381298Y36846D01*
X381230Y36756D01*
X381159Y36668D01*
X381084Y36582D01*
X381007Y36499D01*
X380927Y36419D01*
X380844Y36342D01*
X380758Y36267D01*
X380670Y36196D01*
X380580Y36128D01*
X380487Y36063D01*
X380392Y36001D01*
X380295Y35943D01*
X380196Y35888D01*
X380095Y35837D01*
X379992Y35789D01*
X379888Y35744D01*
X379782Y35704D01*
X379675Y35667D01*
X379567Y35634D01*
X379457Y35604D01*
X379347Y35579D01*
X379236Y35557D01*
X379124Y35540D01*
X379011Y35526D01*
X378898Y35516D01*
X378785Y35510D01*
X378672Y35508D01*
X375426Y35508D01*
X375426Y47192D01*
X378672Y47192D01*
X378773Y47190D01*
X378873Y47184D01*
X378973Y47174D01*
X379073Y47161D01*
X379172Y47143D01*
X379271Y47122D01*
X379368Y47097D01*
X379465Y47068D01*
X379560Y47035D01*
X379654Y46999D01*
X379746Y46959D01*
X379837Y46916D01*
X379926Y46869D01*
X380013Y46819D01*
X380099Y46765D01*
X380182Y46708D01*
X380262Y46648D01*
X380341Y46585D01*
X380417Y46518D01*
X380490Y46449D01*
X380560Y46377D01*
X380628Y46303D01*
X380693Y46226D01*
X380754Y46146D01*
X380813Y46064D01*
X380868Y45980D01*
X380920Y45894D01*
X380969Y45806D01*
X381014Y45716D01*
X381056Y45624D01*
X381094Y45531D01*
X381128Y45436D01*
X381159Y45341D01*
X381186Y45244D01*
X381209Y45146D01*
X381229Y45047D01*
X381244Y44947D01*
X381256Y44847D01*
X381264Y44747D01*
X381268Y44646D01*
X381268Y44546D01*
X381264Y44445D01*
X381256Y44345D01*
X381244Y44245D01*
X381229Y44145D01*
X381209Y44046D01*
X381186Y43948D01*
X381159Y43851D01*
X381128Y43756D01*
X381094Y43661D01*
X381056Y43568D01*
X381014Y43476D01*
X380969Y43386D01*
X380920Y43298D01*
X380868Y43212D01*
X380813Y43128D01*
X380754Y43046D01*
X380693Y42966D01*
X380628Y42889D01*
X380560Y42815D01*
X380490Y42743D01*
X380417Y42674D01*
X380341Y42607D01*
X380262Y42544D01*
X380182Y42484D01*
X380099Y42427D01*
X380013Y42373D01*
X379926Y42323D01*
X379837Y42276D01*
X379746Y42233D01*
X379654Y42193D01*
X379560Y42157D01*
X379465Y42124D01*
X379368Y42095D01*
X379271Y42070D01*
X379172Y42049D01*
X379073Y42031D01*
X378973Y42018D01*
X378873Y42008D01*
X378773Y42002D01*
X378672Y42000D01*
D13*
X330200Y-82550D02*
X330200Y-95250D01*
X330200Y-82550D02*
X336550Y-76200D01*
X349250Y-76200D01*
X355600Y-82550D01*
X349250Y-101600D02*
X336550Y-101600D01*
X330200Y-95250D01*
X349250Y-101600D02*
X355600Y-95250D01*
X355600Y-82550D01*
X336550Y-76200D02*
X330200Y-69850D01*
X330200Y-57150D01*
X336550Y-50800D01*
X349250Y-50800D01*
X355600Y-57150D01*
X355600Y-69850D01*
X349250Y-76200D01*
D10*
X323977Y-76327D02*
X312547Y-76327D01*
X312547Y-73152D01*
X312549Y-73041D01*
X312555Y-72931D01*
X312564Y-72820D01*
X312578Y-72710D01*
X312595Y-72601D01*
X312616Y-72492D01*
X312641Y-72384D01*
X312670Y-72277D01*
X312702Y-72171D01*
X312738Y-72066D01*
X312778Y-71963D01*
X312821Y-71861D01*
X312868Y-71760D01*
X312919Y-71661D01*
X312972Y-71565D01*
X313029Y-71470D01*
X313090Y-71377D01*
X313153Y-71286D01*
X313220Y-71197D01*
X313290Y-71111D01*
X313363Y-71028D01*
X313438Y-70946D01*
X313516Y-70868D01*
X313598Y-70793D01*
X313681Y-70720D01*
X313767Y-70650D01*
X313856Y-70583D01*
X313947Y-70520D01*
X314040Y-70459D01*
X314135Y-70402D01*
X314231Y-70349D01*
X314330Y-70298D01*
X314431Y-70251D01*
X314533Y-70208D01*
X314636Y-70168D01*
X314741Y-70132D01*
X314847Y-70100D01*
X314954Y-70071D01*
X315062Y-70046D01*
X315171Y-70025D01*
X315280Y-70008D01*
X315390Y-69994D01*
X315501Y-69985D01*
X315611Y-69979D01*
X315722Y-69977D01*
X315833Y-69979D01*
X315943Y-69985D01*
X316054Y-69994D01*
X316164Y-70008D01*
X316273Y-70025D01*
X316382Y-70046D01*
X316490Y-70071D01*
X316597Y-70100D01*
X316703Y-70132D01*
X316808Y-70168D01*
X316911Y-70208D01*
X317013Y-70251D01*
X317114Y-70298D01*
X317213Y-70349D01*
X317310Y-70402D01*
X317404Y-70459D01*
X317497Y-70520D01*
X317588Y-70583D01*
X317677Y-70650D01*
X317763Y-70720D01*
X317846Y-70793D01*
X317928Y-70868D01*
X318006Y-70946D01*
X318081Y-71028D01*
X318154Y-71111D01*
X318224Y-71197D01*
X318291Y-71286D01*
X318354Y-71377D01*
X318415Y-71470D01*
X318472Y-71565D01*
X318525Y-71661D01*
X318576Y-71760D01*
X318623Y-71861D01*
X318666Y-71963D01*
X318706Y-72066D01*
X318742Y-72171D01*
X318774Y-72277D01*
X318803Y-72384D01*
X318828Y-72492D01*
X318849Y-72601D01*
X318866Y-72710D01*
X318880Y-72820D01*
X318889Y-72931D01*
X318895Y-73041D01*
X318897Y-73152D01*
X318897Y-76327D01*
X323977Y-62966D02*
X323977Y-60426D01*
X323977Y-62966D02*
X323975Y-63066D01*
X323969Y-63165D01*
X323959Y-63265D01*
X323946Y-63363D01*
X323928Y-63462D01*
X323907Y-63559D01*
X323882Y-63655D01*
X323853Y-63751D01*
X323820Y-63845D01*
X323784Y-63938D01*
X323744Y-64029D01*
X323700Y-64119D01*
X323653Y-64207D01*
X323603Y-64293D01*
X323549Y-64377D01*
X323492Y-64459D01*
X323432Y-64538D01*
X323368Y-64616D01*
X323302Y-64690D01*
X323233Y-64762D01*
X323161Y-64831D01*
X323087Y-64897D01*
X323009Y-64961D01*
X322930Y-65021D01*
X322848Y-65078D01*
X322764Y-65132D01*
X322678Y-65182D01*
X322590Y-65229D01*
X322500Y-65273D01*
X322409Y-65313D01*
X322316Y-65349D01*
X322222Y-65382D01*
X322126Y-65411D01*
X322030Y-65436D01*
X321933Y-65457D01*
X321834Y-65475D01*
X321736Y-65488D01*
X321636Y-65498D01*
X321537Y-65504D01*
X321437Y-65506D01*
X315087Y-65506D01*
X314987Y-65504D01*
X314888Y-65498D01*
X314788Y-65488D01*
X314690Y-65475D01*
X314591Y-65457D01*
X314494Y-65436D01*
X314398Y-65411D01*
X314302Y-65382D01*
X314208Y-65349D01*
X314115Y-65313D01*
X314024Y-65273D01*
X313934Y-65229D01*
X313846Y-65182D01*
X313760Y-65132D01*
X313676Y-65078D01*
X313594Y-65021D01*
X313515Y-64961D01*
X313437Y-64897D01*
X313363Y-64831D01*
X313291Y-64762D01*
X313222Y-64690D01*
X313156Y-64616D01*
X313092Y-64538D01*
X313032Y-64459D01*
X312975Y-64377D01*
X312921Y-64293D01*
X312871Y-64207D01*
X312824Y-64119D01*
X312780Y-64029D01*
X312740Y-63938D01*
X312704Y-63845D01*
X312671Y-63751D01*
X312642Y-63655D01*
X312617Y-63559D01*
X312596Y-63462D01*
X312578Y-63363D01*
X312565Y-63265D01*
X312555Y-63165D01*
X312549Y-63066D01*
X312547Y-62966D01*
X312547Y-60426D01*
D13*
X431800Y-31750D02*
X431800Y-19050D01*
X431800Y-31750D02*
X425450Y-38100D01*
X412750Y-38100D01*
X406400Y-31750D01*
X425450Y-38100D02*
X431800Y-44450D01*
X431800Y-57150D01*
X425450Y-63500D01*
X412750Y-63500D01*
X406400Y-57150D01*
X406400Y-44450D01*
X412750Y-38100D01*
X412750Y-12700D02*
X425450Y-12700D01*
X431800Y-19050D01*
X412750Y-12700D02*
X406400Y-19050D01*
X406400Y-31750D01*
X425450Y-63500D02*
X431800Y-69850D01*
X431800Y-82550D01*
X425450Y-88900D01*
X412750Y-88900D01*
X406400Y-82550D01*
X406400Y-69850D01*
X412750Y-63500D01*
D10*
X438023Y-67818D02*
X449453Y-64008D01*
X438023Y-60198D01*
X438023Y-55289D02*
X449453Y-55289D01*
X438023Y-55289D02*
X438023Y-52114D01*
X438025Y-52003D01*
X438031Y-51893D01*
X438040Y-51782D01*
X438054Y-51672D01*
X438071Y-51563D01*
X438092Y-51454D01*
X438117Y-51346D01*
X438146Y-51239D01*
X438178Y-51133D01*
X438214Y-51028D01*
X438254Y-50925D01*
X438297Y-50823D01*
X438344Y-50722D01*
X438395Y-50623D01*
X438448Y-50527D01*
X438505Y-50432D01*
X438566Y-50339D01*
X438629Y-50248D01*
X438696Y-50159D01*
X438766Y-50073D01*
X438839Y-49990D01*
X438914Y-49908D01*
X438992Y-49830D01*
X439074Y-49755D01*
X439157Y-49682D01*
X439243Y-49612D01*
X439332Y-49545D01*
X439423Y-49482D01*
X439516Y-49421D01*
X439611Y-49364D01*
X439707Y-49311D01*
X439806Y-49260D01*
X439907Y-49213D01*
X440009Y-49170D01*
X440112Y-49130D01*
X440217Y-49094D01*
X440323Y-49062D01*
X440430Y-49033D01*
X440538Y-49008D01*
X440647Y-48987D01*
X440756Y-48970D01*
X440866Y-48956D01*
X440977Y-48947D01*
X441087Y-48941D01*
X441198Y-48939D01*
X441309Y-48941D01*
X441419Y-48947D01*
X441530Y-48956D01*
X441640Y-48970D01*
X441749Y-48987D01*
X441858Y-49008D01*
X441966Y-49033D01*
X442073Y-49062D01*
X442179Y-49094D01*
X442284Y-49130D01*
X442387Y-49170D01*
X442489Y-49213D01*
X442590Y-49260D01*
X442689Y-49311D01*
X442786Y-49364D01*
X442880Y-49421D01*
X442973Y-49482D01*
X443064Y-49545D01*
X443153Y-49612D01*
X443239Y-49682D01*
X443322Y-49755D01*
X443404Y-49830D01*
X443482Y-49908D01*
X443557Y-49990D01*
X443630Y-50073D01*
X443700Y-50159D01*
X443767Y-50248D01*
X443830Y-50339D01*
X443891Y-50432D01*
X443948Y-50527D01*
X444001Y-50623D01*
X444052Y-50722D01*
X444099Y-50823D01*
X444142Y-50925D01*
X444182Y-51028D01*
X444218Y-51133D01*
X444250Y-51239D01*
X444279Y-51346D01*
X444304Y-51454D01*
X444325Y-51563D01*
X444342Y-51672D01*
X444356Y-51782D01*
X444365Y-51893D01*
X444371Y-52003D01*
X444373Y-52114D01*
X444373Y-55289D01*
X444373Y-51479D02*
X449453Y-48939D01*
X445008Y-43815D02*
X445008Y-36195D01*
X449453Y-30988D02*
X449453Y-27178D01*
X449451Y-27078D01*
X449445Y-26979D01*
X449435Y-26879D01*
X449422Y-26781D01*
X449404Y-26682D01*
X449383Y-26585D01*
X449358Y-26489D01*
X449329Y-26393D01*
X449296Y-26299D01*
X449260Y-26206D01*
X449220Y-26115D01*
X449176Y-26025D01*
X449129Y-25937D01*
X449079Y-25851D01*
X449025Y-25767D01*
X448968Y-25685D01*
X448908Y-25606D01*
X448844Y-25528D01*
X448778Y-25454D01*
X448709Y-25382D01*
X448637Y-25313D01*
X448563Y-25247D01*
X448485Y-25183D01*
X448406Y-25123D01*
X448324Y-25066D01*
X448240Y-25012D01*
X448154Y-24962D01*
X448066Y-24915D01*
X447976Y-24871D01*
X447885Y-24831D01*
X447792Y-24795D01*
X447698Y-24762D01*
X447602Y-24733D01*
X447506Y-24708D01*
X447409Y-24687D01*
X447310Y-24669D01*
X447212Y-24656D01*
X447112Y-24646D01*
X447013Y-24640D01*
X446913Y-24638D01*
X445643Y-24638D01*
X445543Y-24640D01*
X445444Y-24646D01*
X445344Y-24656D01*
X445246Y-24669D01*
X445147Y-24687D01*
X445050Y-24708D01*
X444954Y-24733D01*
X444858Y-24762D01*
X444764Y-24795D01*
X444671Y-24831D01*
X444580Y-24871D01*
X444490Y-24915D01*
X444402Y-24962D01*
X444316Y-25012D01*
X444232Y-25066D01*
X444150Y-25123D01*
X444071Y-25183D01*
X443993Y-25247D01*
X443919Y-25313D01*
X443847Y-25382D01*
X443778Y-25454D01*
X443712Y-25528D01*
X443648Y-25606D01*
X443588Y-25685D01*
X443531Y-25767D01*
X443477Y-25851D01*
X443427Y-25937D01*
X443380Y-26025D01*
X443336Y-26115D01*
X443296Y-26206D01*
X443260Y-26299D01*
X443227Y-26393D01*
X443198Y-26489D01*
X443173Y-26585D01*
X443152Y-26682D01*
X443134Y-26781D01*
X443121Y-26879D01*
X443111Y-26979D01*
X443105Y-27078D01*
X443103Y-27178D01*
X443103Y-30988D01*
X438023Y-30988D01*
X438023Y-24638D01*
X438023Y-20193D02*
X449453Y-16383D01*
X438023Y-12573D01*
D13*
X495300Y-19050D02*
X495300Y-31750D01*
X488950Y-38100D01*
X476250Y-38100D01*
X469900Y-31750D01*
X488950Y-38100D02*
X495300Y-44450D01*
X495300Y-57150D01*
X488950Y-63500D01*
X476250Y-63500D01*
X469900Y-57150D01*
X469900Y-44450D01*
X476250Y-38100D01*
X476250Y-12700D02*
X488950Y-12700D01*
X495300Y-19050D01*
X476250Y-12700D02*
X469900Y-19050D01*
X469900Y-31750D01*
X488950Y-63500D02*
X495300Y-69850D01*
X495300Y-82550D01*
X488950Y-88900D01*
X476250Y-88900D01*
X469900Y-82550D01*
X469900Y-69850D01*
X476250Y-63500D01*
D10*
X501523Y-64980D02*
X506921Y-61170D01*
X501523Y-57360D01*
X506921Y-61170D02*
X512953Y-61170D01*
X508508Y-52788D02*
X508508Y-45168D01*
X512953Y-36532D02*
X512951Y-36432D01*
X512945Y-36333D01*
X512935Y-36233D01*
X512922Y-36135D01*
X512904Y-36036D01*
X512883Y-35939D01*
X512858Y-35843D01*
X512829Y-35747D01*
X512796Y-35653D01*
X512760Y-35560D01*
X512720Y-35469D01*
X512676Y-35379D01*
X512629Y-35291D01*
X512579Y-35205D01*
X512525Y-35121D01*
X512468Y-35039D01*
X512408Y-34960D01*
X512344Y-34882D01*
X512278Y-34808D01*
X512209Y-34736D01*
X512137Y-34667D01*
X512063Y-34601D01*
X511985Y-34537D01*
X511906Y-34477D01*
X511824Y-34420D01*
X511740Y-34366D01*
X511654Y-34316D01*
X511566Y-34269D01*
X511476Y-34225D01*
X511385Y-34185D01*
X511292Y-34149D01*
X511198Y-34116D01*
X511102Y-34087D01*
X511006Y-34062D01*
X510909Y-34041D01*
X510810Y-34023D01*
X510712Y-34010D01*
X510612Y-34000D01*
X510513Y-33994D01*
X510413Y-33992D01*
X512953Y-36532D02*
X512951Y-36673D01*
X512946Y-36814D01*
X512936Y-36955D01*
X512923Y-37096D01*
X512907Y-37236D01*
X512886Y-37376D01*
X512862Y-37515D01*
X512834Y-37654D01*
X512803Y-37791D01*
X512768Y-37928D01*
X512730Y-38064D01*
X512688Y-38199D01*
X512642Y-38332D01*
X512593Y-38465D01*
X512540Y-38596D01*
X512484Y-38725D01*
X512425Y-38854D01*
X512362Y-38980D01*
X512296Y-39105D01*
X512227Y-39228D01*
X512154Y-39349D01*
X512078Y-39468D01*
X511999Y-39586D01*
X511918Y-39701D01*
X511833Y-39813D01*
X511745Y-39924D01*
X511654Y-40032D01*
X511561Y-40138D01*
X511464Y-40241D01*
X511365Y-40342D01*
X504063Y-40024D02*
X503963Y-40022D01*
X503864Y-40016D01*
X503764Y-40006D01*
X503666Y-39993D01*
X503567Y-39975D01*
X503470Y-39954D01*
X503374Y-39929D01*
X503278Y-39900D01*
X503184Y-39867D01*
X503091Y-39831D01*
X503000Y-39791D01*
X502910Y-39747D01*
X502822Y-39700D01*
X502736Y-39650D01*
X502652Y-39596D01*
X502570Y-39539D01*
X502491Y-39479D01*
X502413Y-39415D01*
X502339Y-39349D01*
X502267Y-39280D01*
X502198Y-39208D01*
X502132Y-39134D01*
X502068Y-39056D01*
X502008Y-38977D01*
X501951Y-38895D01*
X501897Y-38811D01*
X501847Y-38725D01*
X501800Y-38637D01*
X501756Y-38547D01*
X501716Y-38456D01*
X501680Y-38363D01*
X501647Y-38269D01*
X501618Y-38173D01*
X501593Y-38077D01*
X501572Y-37980D01*
X501554Y-37881D01*
X501541Y-37783D01*
X501531Y-37683D01*
X501525Y-37584D01*
X501523Y-37484D01*
X501525Y-37351D01*
X501530Y-37218D01*
X501540Y-37085D01*
X501553Y-36952D01*
X501570Y-36820D01*
X501590Y-36688D01*
X501614Y-36557D01*
X501642Y-36427D01*
X501673Y-36297D01*
X501708Y-36169D01*
X501747Y-36041D01*
X501789Y-35915D01*
X501835Y-35790D01*
X501884Y-35666D01*
X501936Y-35543D01*
X501992Y-35422D01*
X502052Y-35303D01*
X502114Y-35185D01*
X502180Y-35070D01*
X502249Y-34956D01*
X502322Y-34844D01*
X502397Y-34734D01*
X502476Y-34626D01*
X506286Y-38755D02*
X506234Y-38839D01*
X506179Y-38922D01*
X506120Y-39002D01*
X506059Y-39080D01*
X505995Y-39155D01*
X505927Y-39228D01*
X505857Y-39299D01*
X505785Y-39366D01*
X505710Y-39431D01*
X505632Y-39493D01*
X505552Y-39552D01*
X505470Y-39608D01*
X505386Y-39660D01*
X505300Y-39709D01*
X505212Y-39755D01*
X505122Y-39798D01*
X505031Y-39837D01*
X504938Y-39872D01*
X504844Y-39904D01*
X504749Y-39932D01*
X504653Y-39957D01*
X504556Y-39977D01*
X504458Y-39995D01*
X504360Y-40008D01*
X504261Y-40017D01*
X504162Y-40023D01*
X504063Y-40025D01*
X508190Y-35261D02*
X508242Y-35177D01*
X508297Y-35094D01*
X508356Y-35014D01*
X508417Y-34936D01*
X508481Y-34861D01*
X508549Y-34788D01*
X508619Y-34717D01*
X508691Y-34650D01*
X508766Y-34585D01*
X508844Y-34523D01*
X508924Y-34464D01*
X509006Y-34408D01*
X509090Y-34356D01*
X509176Y-34307D01*
X509264Y-34261D01*
X509354Y-34218D01*
X509445Y-34179D01*
X509538Y-34144D01*
X509632Y-34112D01*
X509727Y-34084D01*
X509823Y-34059D01*
X509920Y-34039D01*
X510018Y-34021D01*
X510116Y-34008D01*
X510215Y-33999D01*
X510314Y-33993D01*
X510413Y-33991D01*
X508191Y-35262D02*
X506286Y-38754D01*
X512953Y-28886D02*
X512953Y-23806D01*
X512953Y-28886D02*
X501523Y-28886D01*
X501523Y-23806D01*
X506603Y-25076D02*
X506603Y-28886D01*
X501523Y-18923D02*
X512953Y-18923D01*
X501523Y-18923D02*
X501523Y-15748D01*
X501525Y-15637D01*
X501531Y-15527D01*
X501540Y-15416D01*
X501554Y-15306D01*
X501571Y-15197D01*
X501592Y-15088D01*
X501617Y-14980D01*
X501646Y-14873D01*
X501678Y-14767D01*
X501714Y-14662D01*
X501754Y-14559D01*
X501797Y-14457D01*
X501844Y-14356D01*
X501895Y-14257D01*
X501948Y-14161D01*
X502005Y-14066D01*
X502066Y-13973D01*
X502129Y-13882D01*
X502196Y-13793D01*
X502266Y-13707D01*
X502339Y-13624D01*
X502414Y-13542D01*
X502492Y-13464D01*
X502574Y-13389D01*
X502657Y-13316D01*
X502743Y-13246D01*
X502832Y-13179D01*
X502923Y-13116D01*
X503016Y-13055D01*
X503111Y-12998D01*
X503207Y-12945D01*
X503306Y-12894D01*
X503407Y-12847D01*
X503509Y-12804D01*
X503612Y-12764D01*
X503717Y-12728D01*
X503823Y-12696D01*
X503930Y-12667D01*
X504038Y-12642D01*
X504147Y-12621D01*
X504256Y-12604D01*
X504366Y-12590D01*
X504477Y-12581D01*
X504587Y-12575D01*
X504698Y-12573D01*
X504809Y-12575D01*
X504919Y-12581D01*
X505030Y-12590D01*
X505140Y-12604D01*
X505249Y-12621D01*
X505358Y-12642D01*
X505466Y-12667D01*
X505573Y-12696D01*
X505679Y-12728D01*
X505784Y-12764D01*
X505887Y-12804D01*
X505989Y-12847D01*
X506090Y-12894D01*
X506189Y-12945D01*
X506286Y-12998D01*
X506380Y-13055D01*
X506473Y-13116D01*
X506564Y-13179D01*
X506653Y-13246D01*
X506739Y-13316D01*
X506822Y-13389D01*
X506904Y-13464D01*
X506982Y-13542D01*
X507057Y-13624D01*
X507130Y-13707D01*
X507200Y-13793D01*
X507267Y-13882D01*
X507330Y-13973D01*
X507391Y-14066D01*
X507448Y-14161D01*
X507501Y-14257D01*
X507552Y-14356D01*
X507599Y-14457D01*
X507642Y-14559D01*
X507682Y-14662D01*
X507718Y-14767D01*
X507750Y-14873D01*
X507779Y-14980D01*
X507804Y-15088D01*
X507825Y-15197D01*
X507842Y-15306D01*
X507856Y-15416D01*
X507865Y-15527D01*
X507871Y-15637D01*
X507873Y-15748D01*
X507873Y-18923D01*
X507873Y-15113D02*
X512953Y-12573D01*
D13*
X558800Y-19050D02*
X558800Y-31750D01*
X552450Y-38100D01*
X539750Y-38100D01*
X533400Y-31750D01*
X552450Y-38100D02*
X558800Y-44450D01*
X558800Y-57150D01*
X552450Y-63500D01*
X539750Y-63500D01*
X533400Y-57150D01*
X533400Y-44450D01*
X539750Y-38100D01*
X539750Y-12700D02*
X552450Y-12700D01*
X558800Y-19050D01*
X539750Y-12700D02*
X533400Y-19050D01*
X533400Y-31750D01*
X552450Y-63500D02*
X558800Y-69850D01*
X558800Y-82550D01*
X552450Y-88900D01*
X539750Y-88900D01*
X533400Y-82550D01*
X533400Y-69850D01*
X539750Y-63500D01*
D10*
X565023Y-57360D02*
X576453Y-64980D01*
X576453Y-57360D02*
X565023Y-64980D01*
X572008Y-52788D02*
X572008Y-45168D01*
X576453Y-36532D02*
X576451Y-36432D01*
X576445Y-36333D01*
X576435Y-36233D01*
X576422Y-36135D01*
X576404Y-36036D01*
X576383Y-35939D01*
X576358Y-35843D01*
X576329Y-35747D01*
X576296Y-35653D01*
X576260Y-35560D01*
X576220Y-35469D01*
X576176Y-35379D01*
X576129Y-35291D01*
X576079Y-35205D01*
X576025Y-35121D01*
X575968Y-35039D01*
X575908Y-34960D01*
X575844Y-34882D01*
X575778Y-34808D01*
X575709Y-34736D01*
X575637Y-34667D01*
X575563Y-34601D01*
X575485Y-34537D01*
X575406Y-34477D01*
X575324Y-34420D01*
X575240Y-34366D01*
X575154Y-34316D01*
X575066Y-34269D01*
X574976Y-34225D01*
X574885Y-34185D01*
X574792Y-34149D01*
X574698Y-34116D01*
X574602Y-34087D01*
X574506Y-34062D01*
X574409Y-34041D01*
X574310Y-34023D01*
X574212Y-34010D01*
X574112Y-34000D01*
X574013Y-33994D01*
X573913Y-33992D01*
X576453Y-36532D02*
X576451Y-36673D01*
X576446Y-36814D01*
X576436Y-36955D01*
X576423Y-37096D01*
X576407Y-37236D01*
X576386Y-37376D01*
X576362Y-37515D01*
X576334Y-37654D01*
X576303Y-37791D01*
X576268Y-37928D01*
X576230Y-38064D01*
X576188Y-38199D01*
X576142Y-38332D01*
X576093Y-38465D01*
X576040Y-38596D01*
X575984Y-38725D01*
X575925Y-38854D01*
X575862Y-38980D01*
X575796Y-39105D01*
X575727Y-39228D01*
X575654Y-39349D01*
X575578Y-39468D01*
X575499Y-39586D01*
X575418Y-39701D01*
X575333Y-39813D01*
X575245Y-39924D01*
X575154Y-40032D01*
X575061Y-40138D01*
X574964Y-40241D01*
X574865Y-40342D01*
X567563Y-40024D02*
X567463Y-40022D01*
X567364Y-40016D01*
X567264Y-40006D01*
X567166Y-39993D01*
X567067Y-39975D01*
X566970Y-39954D01*
X566874Y-39929D01*
X566778Y-39900D01*
X566684Y-39867D01*
X566591Y-39831D01*
X566500Y-39791D01*
X566410Y-39747D01*
X566322Y-39700D01*
X566236Y-39650D01*
X566152Y-39596D01*
X566070Y-39539D01*
X565991Y-39479D01*
X565913Y-39415D01*
X565839Y-39349D01*
X565767Y-39280D01*
X565698Y-39208D01*
X565632Y-39134D01*
X565568Y-39056D01*
X565508Y-38977D01*
X565451Y-38895D01*
X565397Y-38811D01*
X565347Y-38725D01*
X565300Y-38637D01*
X565256Y-38547D01*
X565216Y-38456D01*
X565180Y-38363D01*
X565147Y-38269D01*
X565118Y-38173D01*
X565093Y-38077D01*
X565072Y-37980D01*
X565054Y-37881D01*
X565041Y-37783D01*
X565031Y-37683D01*
X565025Y-37584D01*
X565023Y-37484D01*
X565025Y-37351D01*
X565030Y-37218D01*
X565040Y-37085D01*
X565053Y-36952D01*
X565070Y-36820D01*
X565090Y-36688D01*
X565114Y-36557D01*
X565142Y-36427D01*
X565173Y-36297D01*
X565208Y-36169D01*
X565247Y-36041D01*
X565289Y-35915D01*
X565335Y-35790D01*
X565384Y-35666D01*
X565436Y-35543D01*
X565492Y-35422D01*
X565552Y-35303D01*
X565614Y-35185D01*
X565680Y-35070D01*
X565749Y-34956D01*
X565822Y-34844D01*
X565897Y-34734D01*
X565976Y-34626D01*
X569786Y-38755D02*
X569734Y-38839D01*
X569679Y-38922D01*
X569620Y-39002D01*
X569559Y-39080D01*
X569495Y-39155D01*
X569427Y-39228D01*
X569357Y-39299D01*
X569285Y-39366D01*
X569210Y-39431D01*
X569132Y-39493D01*
X569052Y-39552D01*
X568970Y-39608D01*
X568886Y-39660D01*
X568800Y-39709D01*
X568712Y-39755D01*
X568622Y-39798D01*
X568531Y-39837D01*
X568438Y-39872D01*
X568344Y-39904D01*
X568249Y-39932D01*
X568153Y-39957D01*
X568056Y-39977D01*
X567958Y-39995D01*
X567860Y-40008D01*
X567761Y-40017D01*
X567662Y-40023D01*
X567563Y-40025D01*
X571690Y-35261D02*
X571742Y-35177D01*
X571797Y-35094D01*
X571856Y-35014D01*
X571917Y-34936D01*
X571981Y-34861D01*
X572049Y-34788D01*
X572119Y-34717D01*
X572191Y-34650D01*
X572266Y-34585D01*
X572344Y-34523D01*
X572424Y-34464D01*
X572506Y-34408D01*
X572590Y-34356D01*
X572676Y-34307D01*
X572764Y-34261D01*
X572854Y-34218D01*
X572945Y-34179D01*
X573038Y-34144D01*
X573132Y-34112D01*
X573227Y-34084D01*
X573323Y-34059D01*
X573420Y-34039D01*
X573518Y-34021D01*
X573616Y-34008D01*
X573715Y-33999D01*
X573814Y-33993D01*
X573913Y-33991D01*
X571691Y-35262D02*
X569786Y-38754D01*
X576453Y-28886D02*
X576453Y-23806D01*
X576453Y-28886D02*
X565023Y-28886D01*
X565023Y-23806D01*
X570103Y-25076D02*
X570103Y-28886D01*
X565023Y-18923D02*
X576453Y-18923D01*
X565023Y-18923D02*
X565023Y-15748D01*
X565025Y-15637D01*
X565031Y-15527D01*
X565040Y-15416D01*
X565054Y-15306D01*
X565071Y-15197D01*
X565092Y-15088D01*
X565117Y-14980D01*
X565146Y-14873D01*
X565178Y-14767D01*
X565214Y-14662D01*
X565254Y-14559D01*
X565297Y-14457D01*
X565344Y-14356D01*
X565395Y-14257D01*
X565448Y-14161D01*
X565505Y-14066D01*
X565566Y-13973D01*
X565629Y-13882D01*
X565696Y-13793D01*
X565766Y-13707D01*
X565839Y-13624D01*
X565914Y-13542D01*
X565992Y-13464D01*
X566074Y-13389D01*
X566157Y-13316D01*
X566243Y-13246D01*
X566332Y-13179D01*
X566423Y-13116D01*
X566516Y-13055D01*
X566611Y-12998D01*
X566707Y-12945D01*
X566806Y-12894D01*
X566907Y-12847D01*
X567009Y-12804D01*
X567112Y-12764D01*
X567217Y-12728D01*
X567323Y-12696D01*
X567430Y-12667D01*
X567538Y-12642D01*
X567647Y-12621D01*
X567756Y-12604D01*
X567866Y-12590D01*
X567977Y-12581D01*
X568087Y-12575D01*
X568198Y-12573D01*
X568309Y-12575D01*
X568419Y-12581D01*
X568530Y-12590D01*
X568640Y-12604D01*
X568749Y-12621D01*
X568858Y-12642D01*
X568966Y-12667D01*
X569073Y-12696D01*
X569179Y-12728D01*
X569284Y-12764D01*
X569387Y-12804D01*
X569489Y-12847D01*
X569590Y-12894D01*
X569689Y-12945D01*
X569786Y-12998D01*
X569880Y-13055D01*
X569973Y-13116D01*
X570064Y-13179D01*
X570153Y-13246D01*
X570239Y-13316D01*
X570322Y-13389D01*
X570404Y-13464D01*
X570482Y-13542D01*
X570557Y-13624D01*
X570630Y-13707D01*
X570700Y-13793D01*
X570767Y-13882D01*
X570830Y-13973D01*
X570891Y-14066D01*
X570948Y-14161D01*
X571001Y-14257D01*
X571052Y-14356D01*
X571099Y-14457D01*
X571142Y-14559D01*
X571182Y-14662D01*
X571218Y-14767D01*
X571250Y-14873D01*
X571279Y-14980D01*
X571304Y-15088D01*
X571325Y-15197D01*
X571342Y-15306D01*
X571356Y-15416D01*
X571365Y-15527D01*
X571371Y-15637D01*
X571373Y-15748D01*
X571373Y-18923D01*
X571373Y-15113D02*
X576453Y-12573D01*
M02*
